<?xml version="1.0" encoding="utf-8"?>
<!-- Generator: Adobe Illustrator 21.0.0, SVG Export Plug-In . SVG Version: 6.00 Build 0)  -->
<svg version="1.1" id="Layer_1" xmlns="http://www.w3.org/2000/svg" xmlns:xlink="http://www.w3.org/1999/xlink" x="0px" y="0px"
	 viewBox="0 0 294 294" style="enable-background:new 0 0 294 294;" xml:space="preserve">
<style type="text/css">
	.st0{fill:#FFFFFF;}
</style>
<g>
	<path class="st0" d="M148.8,91c-20.8,0-32.1,17.8-32.1,45.3h63C179.7,108.8,170,91,148.8,91z"/>
	<path class="st0" d="M245.9,53.7c-35.6-35.4-55.8-26.8-59-25.1c-0.2,0.1-0.3,0.2-0.5,0.3L141.6,56c-3.1,1.8-6.4,1.8-8.6-1.2
		c-2.5-3.4-1.5-6.4,1.5-9.5l25-26.3v0l0.8-0.9c1.5-1.9,3.5-6.3-9.9-7c-1.2,0-2.3-0.1-3.5-0.1C71.9,11,11,71.9,11,147
		c0,75.1,60.9,136,136,136s136-60.9,136-136C283,110.9,268.9,78.1,245.9,53.7z M195,152.2h-78.3c0,26.9,15.6,48.4,40.7,48.4
		c19,0,29.7-11,37-19.9l11.6,11.9c-7.7,10.1-22.6,25.7-53.2,25.7c-39.2,0-71-29.7-71-71.9c0-44.7,32.7-70.7,67-70.7
		c33,0,63.3,24.8,63.3,57.2C212.2,144.6,206.4,152.2,195,152.2z"/>
</g>
</svg>
