<?xml version="1.0" encoding="utf-8"?>
<!-- Generator: Adobe Illustrator 19.2.1, SVG Export Plug-In . SVG Version: 6.00 Build 0)  -->
<svg version="1.1" id="Capa_1" xmlns="http://www.w3.org/2000/svg" xmlns:xlink="http://www.w3.org/1999/xlink" x="0px" y="0px"
	 viewBox="0 0 145.3 51.8" style="enable-background:new 0 0 145.3 51.8;" xml:space="preserve">
<style type="text/css">
	.st0{fill:#FFFFFF;}
</style>
<g>
	<path class="st0" d="M21.2,20.4c-3.5,0-5.4,3-5.4,7.6h10.6C26.4,23.4,24.8,20.4,21.2,20.4 M29,30.7H15.9c0,4.5,2.6,8.1,6.8,8.1
		c3.2,0,5-1.8,6.2-3.3l1.9,2c-1.3,1.7-3.8,4.3-8.9,4.3c-6.6,0-11.9-5-11.9-12.1c0-7.5,5.5-11.9,11.2-11.9c5.5,0,10.6,4.2,10.6,9.6
		C31.9,29.4,30.9,30.7,29,30.7"/>
	<path class="st0" d="M46.9,39.9c-1,0.8-2.6,1.8-5.5,1.8c-4,0-6.4-2.2-6.4-7.5V20.4h-2.5v-2.6c3.5,0,4.5-2.6,5.8-5.2
		c0.6-1,2.1-0.9,2.1,0.2v5.1h5.6v1.3c0,0.8-0.3,1.2-1.1,1.2h-4.5v14.7c0,2.3,0.5,3.9,2.2,3.9c1.2,0,2.2-0.6,2.8-1
		C46.5,37.4,47.9,39.2,46.9,39.9"/>
	<path class="st0" d="M56.5,13.5c0.4,0.5,0.9,0.5,1.4,0.2l6.9-4c1.5-0.9,2.3-2.5,1.1-3.9c-1.2-1.3-2.6-1-3.7,0.3L56.8,12
		C56.2,12.5,56.1,13,56.5,13.5 M58.5,20.4c-3.5,0-5.4,3-5.4,7.6h10.6C63.7,23.4,62.1,20.4,58.5,20.4 M66.3,30.7H53.2
		c0,4.5,2.6,8.1,6.8,8.1c3.2,0,5-1.8,6.2-3.3l1.9,2c-1.3,1.7-3.8,4.3-8.9,4.3c-6.6,0-11.9-5-11.9-12.1c0-7.5,5.5-11.9,11.2-11.9
		c5.5,0,10.6,4.2,10.6,9.6C69.2,29.4,68.2,30.7,66.3,30.7"/>
	<path class="st0" d="M83.8,22.1c-2.9,0-4.3,4.2-4.6,6.4v8.8c0,1.2,0.9,1.4,2.8,1.4v3H71.3v-3c1.7,0,2.6-0.3,2.6-1.4V23
		c0-1.7-0.9-2.3-3.1-1.9v-2.5l6.9-0.9c1.8-0.3,1.5,1.5,1.3,3.8L78.5,26c1.4-5.7,3.9-8.3,7.9-8.3c2.8,0,4.8,1.3,3.3,3.2l-1.3,1.6
		C86.8,24.5,86.2,22.1,83.8,22.1"/>
	<path class="st0" d="M100.1,20.4c-3.5,0-5.4,3-5.4,7.6h10.6C105.3,23.4,103.6,20.4,100.1,20.4 M107.9,30.7H94.7
		c0,4.5,2.6,8.1,6.8,8.1c3.2,0,5-1.8,6.2-3.3l1.9,2c-1.3,1.7-3.8,4.3-8.9,4.3c-6.6,0-11.9-5-11.9-12.1c0-7.5,5.5-11.9,11.2-11.9
		c5.5,0,10.6,4.2,10.6,9.6C110.7,29.4,109.8,30.7,107.9,30.7"/>
	<path class="st0" d="M123.2,20.4c-3.4,0-5.4,2.5-5.4,8c0,6.3,2.8,10.4,6.4,10.4c3.4,0,5.4-2.2,5.4-7.5
		C129.5,24.6,126.9,20.4,123.2,20.4 M135.3,29.6c0,7.5-5.7,12.2-11.5,12.2c-5.9,0-11.7-4.6-11.7-11.8c0-7.8,5.8-12.2,11.6-12.2
		C129.5,17.9,135.3,22.2,135.3,29.6"/>
</g>
</svg>
