<?xml version="1.0" encoding="utf-8"?>
<!-- Generator: Adobe Illustrator 21.0.0, SVG Export Plug-In . SVG Version: 6.00 Build 0)  -->
<svg version="1.1" id="Capa_1" xmlns="http://www.w3.org/2000/svg" xmlns:xlink="http://www.w3.org/1999/xlink" x="0px" y="0px"
	 viewBox="0 0 512 512" style="enable-background:new 0 0 512 512;" xml:space="preserve">
<style type="text/css">
	.st0{fill:#FFFFFF;}
</style>
<g>
	<g>
		<path class="st0" d="M75.8,419.8c-23.9,0-43.4-20.2-43.4-45.1V137.3c0-24.9,19.5-45.1,43.4-45.1h268.1c19.2,0,41.4,11.7,52.8,27.8
			l73.5,104.3c12.8,18.1,12.8,45.4,0,63.4l-73.5,104.2c-11.3,16.1-33.5,27.8-52.8,27.8H75.8z M75.8,135.4c-1,0-1.9,0.9-1.9,1.9
			v237.4c0,1,0.9,1.9,1.9,1.9h268c6,0,15.9-5.2,19.3-10.1l73.5-104.3c2-2.9,2-9.7,0.1-12.6l-73.5-104.2
			c-3.5-4.9-13.5-10.1-19.3-10.1H75.8z"/>
		<path class="st0" d="M343.8,101.5c16.3,0,35.9,10.3,45.6,24.1L463,229.8c10.4,14.7,10.4,37.8,0,52.4l-73.5,104.3
			c-9.6,13.7-29.2,24.1-45.6,24.1H75.8c-19,0-34.5-16.1-34.5-35.9V137.3c0-19.8,15.5-35.9,34.5-35.9H343.8 M75.8,385.9h268
			c8.7,0,21.4-6.6,26.5-13.9l73.5-104.3c4.3-6.1,4.3-17.3,0.1-23.4l-73.5-104.3c-5.2-7.2-17.8-13.9-26.5-13.9H75.8
			c-5.9,0-10.7,5-10.7,11.2v237.4C65,380.9,69.9,385.9,75.8,385.9 M343.8,83H75.8c-28.8,0-52.3,24.4-52.3,54.3v237.3
			c0,30,23.4,54.3,52.3,54.3h268.1c10.7,0,22.5-3.2,33.4-8.9c11-5.8,20.2-13.7,26.6-22.8l73.5-104.2c15-21.1,15-53.1,0-74.3
			l-73.5-104.3c-6.4-9.1-15.6-16.9-26.6-22.7C366.3,86.2,354.5,83,343.8,83L343.8,83z M82.8,144.6h261.1c3,0,10.3,3.9,12.3,6.5
			l73,103.6c0.2,0.7,0.2,1.9,0,2.6l-73.2,103.8l0,0l0,0c-1.8,2.5-9.1,6.3-12.1,6.3h-261V144.6L82.8,144.6z"/>
	</g>
</g>
</svg>
