<?xml version="1.0" encoding="utf-8"?>
<!-- Generator: Adobe Illustrator 21.0.0, SVG Export Plug-In . SVG Version: 6.00 Build 0)  -->
<svg version="1.1" id="Capa_1" xmlns="http://www.w3.org/2000/svg" xmlns:xlink="http://www.w3.org/1999/xlink" x="0px" y="0px"
	 viewBox="0 0 193 213.5" style="enable-background:new 0 0 193 213.5;" xml:space="preserve">
<style type="text/css">
	.st0{clip-path:url(#SVGID_2_);fill:none;stroke:#C1C1C1;stroke-miterlimit:10;}
	.st1{fill:none;}
	.st2{clip-path:url(#SVGID_4_);}
	.st3{clip-path:url(#SVGID_6_);fill:#DC425F;}
	.st4{clip-path:url(#SVGID_8_);}
	.st5{clip-path:url(#SVGID_10_);fill:#DC425F;}
	.st6{clip-path:url(#SVGID_12_);}
	.st7{clip-path:url(#SVGID_14_);fill:#DC425F;}
	.st8{clip-path:url(#SVGID_16_);}
	.st9{clip-path:url(#SVGID_18_);fill:#DC425F;}
	.st10{clip-path:url(#SVGID_20_);}
	.st11{clip-path:url(#SVGID_22_);fill:#DC425F;}
	.st12{clip-path:url(#SVGID_24_);}
	.st13{clip-path:url(#SVGID_26_);fill:#DC425F;}
	.st14{clip-path:url(#SVGID_28_);}
	.st15{clip-path:url(#SVGID_30_);fill:#DC425F;}
	.st16{clip-path:url(#SVGID_32_);}
	.st17{clip-path:url(#SVGID_34_);fill:#DC425F;}
	.st18{clip-path:url(#SVGID_36_);}
	.st19{clip-path:url(#SVGID_38_);fill:#DC425F;}
	.st20{clip-path:url(#SVGID_40_);}
	.st21{clip-path:url(#SVGID_42_);fill:#DC425F;}
	.st22{clip-path:url(#SVGID_44_);}
	.st23{clip-path:url(#SVGID_46_);fill:#DC425F;}
	.st24{clip-path:url(#SVGID_48_);}
	.st25{clip-path:url(#SVGID_50_);fill:#DC425F;}
	.st26{clip-path:url(#SVGID_52_);}
	.st27{clip-path:url(#SVGID_54_);fill:#DC425F;}
	.st28{clip-path:url(#SVGID_56_);}
	.st29{clip-path:url(#SVGID_58_);fill:#DC425F;}
	.st30{clip-path:url(#SVGID_60_);}
	.st31{clip-path:url(#SVGID_62_);fill:#DC425F;}
	.st32{clip-path:url(#SVGID_64_);}
	.st33{clip-path:url(#SVGID_66_);fill:#DC425F;}
	.st34{clip-path:url(#SVGID_68_);}
	.st35{clip-path:url(#SVGID_70_);fill:#DC425F;}
	.st36{clip-path:url(#SVGID_72_);}
	.st37{clip-path:url(#SVGID_74_);fill:#DC425F;}
	.st38{clip-path:url(#SVGID_76_);}
	.st39{clip-path:url(#SVGID_78_);fill:#DC425F;}
	.st40{clip-path:url(#SVGID_80_);}
	.st41{clip-path:url(#SVGID_82_);fill:#DC425F;}
	.st42{clip-path:url(#SVGID_84_);}
	.st43{clip-path:url(#SVGID_86_);fill:#DC425F;}
	.st44{clip-path:url(#SVGID_88_);}
	.st45{clip-path:url(#SVGID_90_);fill:#DC425F;}
	.st46{clip-path:url(#SVGID_92_);}
	.st47{clip-path:url(#SVGID_94_);fill:#DC425F;}
	.st48{clip-path:url(#SVGID_96_);}
	.st49{clip-path:url(#SVGID_98_);fill:#1D1D1D;}
	.st50{clip-path:url(#SVGID_100_);}
	.st51{clip-path:url(#SVGID_102_);fill:#1D1D1D;}
	.st52{clip-path:url(#SVGID_104_);}
	.st53{clip-path:url(#SVGID_106_);fill:#1D1D1D;}
	.st54{clip-path:url(#SVGID_108_);}
	.st55{clip-path:url(#SVGID_110_);fill:#1D1D1D;}
	.st56{clip-path:url(#SVGID_112_);}
	.st57{clip-path:url(#SVGID_114_);fill:#1D1D1D;}
	.st58{clip-path:url(#SVGID_116_);}
	.st59{clip-path:url(#SVGID_118_);fill:#1D1D1D;}
	.st60{clip-path:url(#SVGID_120_);}
	.st61{clip-path:url(#SVGID_122_);fill:#1D1D1D;}
	.st62{clip-path:url(#SVGID_124_);}
	.st63{clip-path:url(#SVGID_126_);fill:#1D1D1D;}
	.st64{clip-path:url(#SVGID_128_);}
	.st65{clip-path:url(#SVGID_130_);fill:#1D1D1D;}
	.st66{clip-path:url(#SVGID_132_);}
	.st67{clip-path:url(#SVGID_134_);fill:#1D1D1D;}
	.st68{clip-path:url(#SVGID_136_);}
	.st69{clip-path:url(#SVGID_138_);fill:#1D1D1D;}
	.st70{clip-path:url(#SVGID_140_);}
	.st71{clip-path:url(#SVGID_142_);fill:#1D1D1D;}
	.st72{clip-path:url(#SVGID_144_);}
	.st73{clip-path:url(#SVGID_146_);fill:#1D1D1D;}
	.st74{clip-path:url(#SVGID_148_);}
	.st75{clip-path:url(#SVGID_150_);fill:#1D1D1D;}
	.st76{clip-path:url(#SVGID_152_);}
	.st77{clip-path:url(#SVGID_154_);fill:#1D1D1D;}
	.st78{clip-path:url(#SVGID_156_);}
	.st79{clip-path:url(#SVGID_158_);fill:#1D1D1D;}
	.st80{clip-path:url(#SVGID_160_);}
	.st81{clip-path:url(#SVGID_162_);fill:#1D1D1D;}
	.st82{clip-path:url(#SVGID_164_);}
	.st83{clip-path:url(#SVGID_166_);fill:#1D1D1D;}
	.st84{clip-path:url(#SVGID_168_);}
	.st85{clip-path:url(#SVGID_170_);fill:#1D1D1D;}
	.st86{clip-path:url(#SVGID_172_);}
	.st87{clip-path:url(#SVGID_174_);fill:#1D1D1D;}
	.st88{clip-path:url(#SVGID_176_);}
	.st89{clip-path:url(#SVGID_178_);fill:#1D1D1D;}
	.st90{clip-path:url(#SVGID_180_);}
	.st91{clip-path:url(#SVGID_182_);fill:#1D1D1D;}
	.st92{clip-path:url(#SVGID_184_);}
	.st93{clip-path:url(#SVGID_186_);fill:#1D1D1D;}
	.st94{clip-path:url(#SVGID_188_);}
	.st95{clip-path:url(#SVGID_190_);fill:#1D1D1D;}
	.st96{clip-path:url(#SVGID_192_);}
	.st97{clip-path:url(#SVGID_194_);fill:#1D1D1D;}
	.st98{clip-path:url(#SVGID_196_);}
	.st99{clip-path:url(#SVGID_198_);fill:#1D1D1D;}
	.st100{clip-path:url(#SVGID_200_);}
	.st101{clip-path:url(#SVGID_202_);fill:#1D1D1D;}
	.st102{clip-path:url(#SVGID_204_);}
	.st103{clip-path:url(#SVGID_206_);fill:#1D1D1D;}
</style>
<g id="Layer_1">
	<g>
		<g>
			<g>
				<g>
					<defs>
						<rect id="SVGID_1_" x="-229.8" y="-4733" width="1600" height="10808"/>
					</defs>
					<clipPath id="SVGID_2_">
						<use xlink:href="#SVGID_1_"  style="overflow:visible;"/>
					</clipPath>
					<path class="st0" d="M1.7,71.2v71.1c0,12,6.4,23.2,16.8,29.2L79.7,207c10.4,6,23.2,6,33.6,0l61.3-35.5
						c10.4-6,16.8-17.1,16.8-29.2V71.2c0-12-6.4-23.2-16.8-29.2L113.3,6.5c-10.4-6-23.2-6-33.6,0L18.4,42C8.1,48,1.7,59.2,1.7,71.2z
						"/>
				</g>
			</g>
		</g>
	</g>
</g>
<rect x="-444.1" y="-13491.4" class="st1" width="2667.1" height="23572.4"/>
<g>
	<g>
		<defs>
			<path id="SVGID_3_" d="M110,57c-6.1,0-11.1,5.4-11.1,12c0,8.2,5.1,11.3,11.5,15.3c3.7,2.3,8,4.9,11.5,8.9c3.5-4,7.7-6.6,11.5-8.9
				c6.4-4,11.5-7.1,11.5-15.3c0-6.6-5-12-11.1-12s-11.1,5.4-11.1,12c0,0.4-0.3,0.8-0.8,0.8c-0.4,0-0.8-0.3-0.8-0.8
				C121.1,62.4,116.1,57,110,57z M121.8,95.2c-0.2,0-0.4-0.1-0.6-0.3c-3.4-4.2-7.6-6.8-11.7-9.3C103.3,81.7,97.3,78,97.3,69
				c0-7.4,5.7-13.5,12.6-13.5c5.4,0,10.1,3.7,11.9,8.9c1.8-5.2,6.4-8.9,11.9-8.9c7,0,12.6,6,12.6,13.5c0,9.1-6,12.7-12.3,16.6
				c-4.1,2.5-8.2,5.1-11.7,9.3C122.3,95.1,122.1,95.2,121.8,95.2z"/>
		</defs>
		<clipPath id="SVGID_4_">
			<use xlink:href="#SVGID_3_"  style="overflow:visible;"/>
		</clipPath>
		<g class="st2">
			<defs>
				<rect id="SVGID_5_" x="-397.8" y="-12887.8" width="2438.1" height="21548.1"/>
			</defs>
			<clipPath id="SVGID_6_">
				<use xlink:href="#SVGID_5_"  style="overflow:visible;"/>
			</clipPath>
			<rect x="89.7" y="47.9" class="st3" width="64.3" height="54.9"/>
		</g>
	</g>
	<g>
		<defs>
			<path id="SVGID_7_" d="M103.7,62.9c-0.2,0-0.4-0.1-0.5-0.2c-0.3-0.3-0.3-0.8-0.1-1.1c0.4-0.5,0.9-0.9,1.4-1.3
				c0.5-0.4,1.1-0.7,1.6-1c0.4-0.2,0.8,0,1,0.4c0.2,0.4,0,0.8-0.4,1c-0.5,0.2-0.9,0.5-1.4,0.8c-0.4,0.3-0.8,0.7-1.2,1.1
				C104.1,62.8,103.9,62.9,103.7,62.9z"/>
		</defs>
		<clipPath id="SVGID_8_">
			<use xlink:href="#SVGID_7_"  style="overflow:visible;"/>
		</clipPath>
		<g class="st4">
			<defs>
				<rect id="SVGID_9_" x="-397.8" y="-12887.8" width="2438.1" height="21548.1"/>
			</defs>
			<clipPath id="SVGID_10_">
				<use xlink:href="#SVGID_9_"  style="overflow:visible;"/>
			</clipPath>
			<rect x="95.3" y="51.7" class="st5" width="19.6" height="18.8"/>
		</g>
	</g>
	<g>
		<defs>
			<path id="SVGID_11_" d="M111.6,83.1c-0.1,0-0.3,0-0.4-0.1c-0.9-0.5-1.7-1-2.4-1.5c-0.8-0.5-1.5-1-2.1-1.4c-0.7-0.5-1.3-1-1.8-1.4
				c-0.6-0.5-1.1-1-1.5-1.5c-0.5-0.5-0.9-1.1-1.2-1.7c-0.4-0.6-0.7-1.2-0.9-1.9c-0.2-0.7-0.4-1.4-0.5-2.1c-0.1-0.8-0.2-1.6-0.2-2.4
				c0-0.7,0.1-1.4,0.2-2.1c0.1-0.7,0.3-1.3,0.6-1.9c0.2-0.4,0.6-0.6,1-0.4c0.4,0.2,0.6,0.6,0.4,1c-0.2,0.5-0.4,1.1-0.5,1.7
				c-0.1,0.6-0.2,1.2-0.2,1.8c0,0.8,0.1,1.5,0.2,2.2c0.1,0.7,0.3,1.3,0.5,1.8c0.2,0.6,0.5,1.1,0.8,1.6c0.3,0.5,0.7,1,1.1,1.4
				c0.4,0.5,0.9,0.9,1.4,1.4c0.5,0.4,1.1,0.9,1.7,1.4c0.6,0.4,1.3,0.9,2.1,1.4c0.8,0.5,1.6,1,2.4,1.5c0.4,0.2,0.5,0.7,0.2,1.1
				C112.1,83,111.8,83.1,111.6,83.1z"/>
		</defs>
		<clipPath id="SVGID_12_">
			<use xlink:href="#SVGID_11_"  style="overflow:visible;"/>
		</clipPath>
		<g class="st6">
			<defs>
				<rect id="SVGID_13_" x="-397.8" y="-12887.8" width="2438.1" height="21548.1"/>
			</defs>
			<clipPath id="SVGID_14_">
				<use xlink:href="#SVGID_13_"  style="overflow:visible;"/>
			</clipPath>
			<rect x="92.8" y="56.8" class="st7" width="27.2" height="33.9"/>
		</g>
	</g>
	<g>
		<defs>
			<path id="SVGID_15_" d="M137.9,77.6c-0.2,0-0.4-0.1-0.5-0.2c-0.1-0.1-0.2-0.3-0.2-0.5c0-0.2,0.1-0.4,0.2-0.5
				c0.3-0.3,0.8-0.3,1.1,0c0.1,0.1,0.2,0.3,0.2,0.5c0,0.2-0.1,0.4-0.2,0.5C138.3,77.5,138.1,77.6,137.9,77.6z"/>
		</defs>
		<clipPath id="SVGID_16_">
			<use xlink:href="#SVGID_15_"  style="overflow:visible;"/>
		</clipPath>
		<g class="st8">
			<defs>
				<rect id="SVGID_17_" x="-397.8" y="-12887.8" width="2438.1" height="21548.1"/>
			</defs>
			<clipPath id="SVGID_18_">
				<use xlink:href="#SVGID_17_"  style="overflow:visible;"/>
			</clipPath>
			<rect x="129.5" y="68.5" class="st9" width="16.8" height="16.8"/>
		</g>
	</g>
	<g>
		<defs>
			<path id="SVGID_19_" d="M134.9,77.6c-0.2,0-0.4-0.1-0.5-0.2c-0.1-0.1-0.2-0.3-0.2-0.5c0-0.2,0.1-0.4,0.2-0.5
				c0.3-0.3,0.8-0.3,1.1,0c0.1,0.1,0.2,0.3,0.2,0.5c0,0.2-0.1,0.4-0.2,0.5C135.3,77.5,135.1,77.6,134.9,77.6z"/>
		</defs>
		<clipPath id="SVGID_20_">
			<use xlink:href="#SVGID_19_"  style="overflow:visible;"/>
		</clipPath>
		<g class="st10">
			<defs>
				<rect id="SVGID_21_" x="-397.8" y="-12887.8" width="2438.1" height="21548.1"/>
			</defs>
			<clipPath id="SVGID_22_">
				<use xlink:href="#SVGID_21_"  style="overflow:visible;"/>
			</clipPath>
			<rect x="126.5" y="68.5" class="st11" width="16.8" height="16.8"/>
		</g>
	</g>
	<g>
		<defs>
			<path id="SVGID_23_" d="M131.8,77.6c-0.2,0-0.4-0.1-0.5-0.2c-0.1-0.1-0.2-0.3-0.2-0.5c0-0.2,0.1-0.4,0.2-0.5
				c0.3-0.3,0.8-0.3,1.1,0c0.1,0.1,0.2,0.3,0.2,0.5c0,0.2-0.1,0.4-0.2,0.5C132.2,77.5,132,77.6,131.8,77.6z"/>
		</defs>
		<clipPath id="SVGID_24_">
			<use xlink:href="#SVGID_23_"  style="overflow:visible;"/>
		</clipPath>
		<g class="st12">
			<defs>
				<rect id="SVGID_25_" x="-397.8" y="-12887.8" width="2438.1" height="21548.1"/>
			</defs>
			<clipPath id="SVGID_26_">
				<use xlink:href="#SVGID_25_"  style="overflow:visible;"/>
			</clipPath>
			<rect x="123.4" y="68.5" class="st13" width="16.8" height="16.8"/>
		</g>
	</g>
	<g>
		<defs>
			<path id="SVGID_27_" d="M128.7,77.6c-0.2,0-0.4-0.1-0.5-0.2c-0.1-0.1-0.2-0.3-0.2-0.5c0-0.2,0.1-0.4,0.2-0.5
				c0.3-0.3,0.8-0.3,1.1,0c0.1,0.1,0.2,0.3,0.2,0.5c0,0.2-0.1,0.4-0.2,0.5C129.1,77.5,128.9,77.6,128.7,77.6z"/>
		</defs>
		<clipPath id="SVGID_28_">
			<use xlink:href="#SVGID_27_"  style="overflow:visible;"/>
		</clipPath>
		<g class="st14">
			<defs>
				<rect id="SVGID_29_" x="-397.8" y="-12887.8" width="2438.1" height="21548.1"/>
			</defs>
			<clipPath id="SVGID_30_">
				<use xlink:href="#SVGID_29_"  style="overflow:visible;"/>
			</clipPath>
			<rect x="120.4" y="68.5" class="st15" width="16.8" height="16.8"/>
		</g>
	</g>
	<g>
		<defs>
			<path id="SVGID_31_" d="M134.9,80.7c-0.2,0-0.4-0.1-0.5-0.2c-0.1-0.1-0.2-0.3-0.2-0.5c0-0.2,0.1-0.4,0.2-0.5
				c0.3-0.3,0.8-0.3,1.1,0c0.1,0.1,0.2,0.3,0.2,0.5c0,0.2-0.1,0.4-0.2,0.5C135.3,80.6,135.1,80.7,134.9,80.7z"/>
		</defs>
		<clipPath id="SVGID_32_">
			<use xlink:href="#SVGID_31_"  style="overflow:visible;"/>
		</clipPath>
		<g class="st16">
			<defs>
				<rect id="SVGID_33_" x="-397.8" y="-12887.8" width="2438.1" height="21548.1"/>
			</defs>
			<clipPath id="SVGID_34_">
				<use xlink:href="#SVGID_33_"  style="overflow:visible;"/>
			</clipPath>
			<rect x="126.5" y="71.5" class="st17" width="16.8" height="16.8"/>
		</g>
	</g>
	<g>
		<defs>
			<path id="SVGID_35_" d="M131.8,80.7c-0.2,0-0.4-0.1-0.5-0.2c-0.1-0.1-0.2-0.3-0.2-0.5c0-0.2,0.1-0.4,0.2-0.5
				c0.3-0.3,0.8-0.3,1.1,0c0.1,0.1,0.2,0.3,0.2,0.5c0,0.2-0.1,0.4-0.2,0.5C132.2,80.6,132,80.7,131.8,80.7z"/>
		</defs>
		<clipPath id="SVGID_36_">
			<use xlink:href="#SVGID_35_"  style="overflow:visible;"/>
		</clipPath>
		<g class="st18">
			<defs>
				<rect id="SVGID_37_" x="-397.8" y="-12887.8" width="2438.1" height="21548.1"/>
			</defs>
			<clipPath id="SVGID_38_">
				<use xlink:href="#SVGID_37_"  style="overflow:visible;"/>
			</clipPath>
			<rect x="123.4" y="71.5" class="st19" width="16.8" height="16.8"/>
		</g>
	</g>
	<g>
		<defs>
			<path id="SVGID_39_" d="M128.7,80.7c-0.2,0-0.4-0.1-0.5-0.2c-0.1-0.1-0.2-0.3-0.2-0.5c0-0.2,0.1-0.4,0.2-0.5
				c0.3-0.3,0.8-0.3,1.1,0c0.1,0.1,0.2,0.3,0.2,0.5c0,0.2-0.1,0.4-0.2,0.5C129.1,80.6,128.9,80.7,128.7,80.7z"/>
		</defs>
		<clipPath id="SVGID_40_">
			<use xlink:href="#SVGID_39_"  style="overflow:visible;"/>
		</clipPath>
		<g class="st20">
			<defs>
				<rect id="SVGID_41_" x="-397.8" y="-12887.8" width="2438.1" height="21548.1"/>
			</defs>
			<clipPath id="SVGID_42_">
				<use xlink:href="#SVGID_41_"  style="overflow:visible;"/>
			</clipPath>
			<rect x="120.4" y="71.5" class="st21" width="16.8" height="16.8"/>
		</g>
	</g>
	<g>
		<defs>
			<path id="SVGID_43_" d="M128.7,83.7c-0.2,0-0.4-0.1-0.5-0.2c-0.1-0.1-0.2-0.3-0.2-0.5c0-0.2,0.1-0.4,0.2-0.5
				c0.3-0.3,0.8-0.3,1.1,0c0.1,0.1,0.2,0.3,0.2,0.5c0,0.2-0.1,0.4-0.2,0.5C129.1,83.6,128.9,83.7,128.7,83.7z"/>
		</defs>
		<clipPath id="SVGID_44_">
			<use xlink:href="#SVGID_43_"  style="overflow:visible;"/>
		</clipPath>
		<g class="st22">
			<defs>
				<rect id="SVGID_45_" x="-397.8" y="-12887.8" width="2438.1" height="21548.1"/>
			</defs>
			<clipPath id="SVGID_46_">
				<use xlink:href="#SVGID_45_"  style="overflow:visible;"/>
			</clipPath>
			<rect x="120.4" y="74.6" class="st23" width="16.8" height="16.8"/>
		</g>
	</g>
	<g>
		<defs>
			<path id="SVGID_47_" d="M137.9,74.6c-0.2,0-0.4-0.1-0.5-0.2c-0.1-0.1-0.2-0.3-0.2-0.5c0-0.2,0.1-0.4,0.2-0.5
				c0.3-0.3,0.8-0.3,1.1,0c0.1,0.1,0.2,0.3,0.2,0.5c0,0.2-0.1,0.4-0.2,0.5C138.3,74.5,138.1,74.6,137.9,74.6z"/>
		</defs>
		<clipPath id="SVGID_48_">
			<use xlink:href="#SVGID_47_"  style="overflow:visible;"/>
		</clipPath>
		<g class="st24">
			<defs>
				<rect id="SVGID_49_" x="-397.8" y="-12887.8" width="2438.1" height="21548.1"/>
			</defs>
			<clipPath id="SVGID_50_">
				<use xlink:href="#SVGID_49_"  style="overflow:visible;"/>
			</clipPath>
			<rect x="129.5" y="65.4" class="st25" width="16.8" height="16.8"/>
		</g>
	</g>
	<g>
		<defs>
			<path id="SVGID_51_" d="M134.9,74.6c-0.2,0-0.4-0.1-0.5-0.2c-0.1-0.1-0.2-0.3-0.2-0.5c0-0.2,0.1-0.4,0.2-0.5
				c0.3-0.3,0.8-0.3,1.1,0c0.1,0.1,0.2,0.3,0.2,0.5c0,0.2-0.1,0.4-0.2,0.5C135.3,74.5,135.1,74.6,134.9,74.6z"/>
		</defs>
		<clipPath id="SVGID_52_">
			<use xlink:href="#SVGID_51_"  style="overflow:visible;"/>
		</clipPath>
		<g class="st26">
			<defs>
				<rect id="SVGID_53_" x="-397.8" y="-12887.8" width="2438.1" height="21548.1"/>
			</defs>
			<clipPath id="SVGID_54_">
				<use xlink:href="#SVGID_53_"  style="overflow:visible;"/>
			</clipPath>
			<rect x="126.5" y="65.4" class="st27" width="16.8" height="16.8"/>
		</g>
	</g>
	<g>
		<defs>
			<path id="SVGID_55_" d="M131.8,74.6c-0.2,0-0.4-0.1-0.5-0.2c-0.1-0.1-0.2-0.3-0.2-0.5c0-0.2,0.1-0.4,0.2-0.5
				c0.3-0.3,0.8-0.3,1.1,0c0.1,0.1,0.2,0.3,0.2,0.5c0,0.2-0.1,0.4-0.2,0.5C132.2,74.5,132,74.6,131.8,74.6z"/>
		</defs>
		<clipPath id="SVGID_56_">
			<use xlink:href="#SVGID_55_"  style="overflow:visible;"/>
		</clipPath>
		<g class="st28">
			<defs>
				<rect id="SVGID_57_" x="-397.8" y="-12887.8" width="2438.1" height="21548.1"/>
			</defs>
			<clipPath id="SVGID_58_">
				<use xlink:href="#SVGID_57_"  style="overflow:visible;"/>
			</clipPath>
			<rect x="123.4" y="65.4" class="st29" width="16.8" height="16.8"/>
		</g>
	</g>
	<g>
		<defs>
			<path id="SVGID_59_" d="M128.7,74.6c-0.2,0-0.4-0.1-0.5-0.2c-0.1-0.1-0.2-0.3-0.2-0.5c0-0.2,0.1-0.4,0.2-0.5
				c0.3-0.3,0.8-0.3,1.1,0c0.1,0.1,0.2,0.3,0.2,0.5c0,0.2-0.1,0.4-0.2,0.5C129.1,74.5,128.9,74.6,128.7,74.6z"/>
		</defs>
		<clipPath id="SVGID_60_">
			<use xlink:href="#SVGID_59_"  style="overflow:visible;"/>
		</clipPath>
		<g class="st30">
			<defs>
				<rect id="SVGID_61_" x="-397.8" y="-12887.8" width="2438.1" height="21548.1"/>
			</defs>
			<clipPath id="SVGID_62_">
				<use xlink:href="#SVGID_61_"  style="overflow:visible;"/>
			</clipPath>
			<rect x="120.4" y="65.4" class="st31" width="16.8" height="16.8"/>
		</g>
	</g>
	<g>
		<defs>
			<path id="SVGID_63_" d="M137.9,71.5c-0.2,0-0.4-0.1-0.5-0.2c-0.1-0.1-0.2-0.3-0.2-0.5c0-0.2,0.1-0.4,0.2-0.5
				c0.3-0.3,0.8-0.3,1.1,0c0.1,0.1,0.2,0.3,0.2,0.5c0,0.2-0.1,0.4-0.2,0.5C138.3,71.4,138.1,71.5,137.9,71.5z"/>
		</defs>
		<clipPath id="SVGID_64_">
			<use xlink:href="#SVGID_63_"  style="overflow:visible;"/>
		</clipPath>
		<g class="st32">
			<defs>
				<rect id="SVGID_65_" x="-397.8" y="-12887.8" width="2438.1" height="21548.1"/>
			</defs>
			<clipPath id="SVGID_66_">
				<use xlink:href="#SVGID_65_"  style="overflow:visible;"/>
			</clipPath>
			<rect x="129.5" y="62.4" class="st33" width="16.8" height="16.8"/>
		</g>
	</g>
	<g>
		<defs>
			<path id="SVGID_67_" d="M134.9,71.5c-0.2,0-0.4-0.1-0.5-0.2c-0.1-0.1-0.2-0.3-0.2-0.5c0-0.2,0.1-0.4,0.2-0.5
				c0.3-0.3,0.8-0.3,1.1,0c0.1,0.1,0.2,0.3,0.2,0.5c0,0.2-0.1,0.4-0.2,0.5C135.3,71.4,135.1,71.5,134.9,71.5z"/>
		</defs>
		<clipPath id="SVGID_68_">
			<use xlink:href="#SVGID_67_"  style="overflow:visible;"/>
		</clipPath>
		<g class="st34">
			<defs>
				<rect id="SVGID_69_" x="-397.8" y="-12887.8" width="2438.1" height="21548.1"/>
			</defs>
			<clipPath id="SVGID_70_">
				<use xlink:href="#SVGID_69_"  style="overflow:visible;"/>
			</clipPath>
			<rect x="126.5" y="62.4" class="st35" width="16.8" height="16.8"/>
		</g>
	</g>
	<g>
		<defs>
			<path id="SVGID_71_" d="M131.8,71.5c-0.2,0-0.4-0.1-0.5-0.2c-0.1-0.1-0.2-0.3-0.2-0.5c0-0.2,0.1-0.4,0.2-0.5
				c0.3-0.3,0.8-0.3,1.1,0c0.1,0.1,0.2,0.3,0.2,0.5c0,0.2-0.1,0.4-0.2,0.5C132.2,71.4,132,71.5,131.8,71.5z"/>
		</defs>
		<clipPath id="SVGID_72_">
			<use xlink:href="#SVGID_71_"  style="overflow:visible;"/>
		</clipPath>
		<g class="st36">
			<defs>
				<rect id="SVGID_73_" x="-397.8" y="-12887.8" width="2438.1" height="21548.1"/>
			</defs>
			<clipPath id="SVGID_74_">
				<use xlink:href="#SVGID_73_"  style="overflow:visible;"/>
			</clipPath>
			<rect x="123.4" y="62.4" class="st37" width="16.8" height="16.8"/>
		</g>
	</g>
	<g>
		<defs>
			<path id="SVGID_75_" d="M137.9,68.5c-0.2,0-0.4-0.1-0.5-0.2c-0.1-0.1-0.2-0.3-0.2-0.5c0-0.2,0.1-0.4,0.2-0.5
				c0.3-0.3,0.8-0.3,1.1,0c0.1,0.1,0.2,0.3,0.2,0.5c0,0.2-0.1,0.4-0.2,0.5C138.3,68.4,138.1,68.5,137.9,68.5z"/>
		</defs>
		<clipPath id="SVGID_76_">
			<use xlink:href="#SVGID_75_"  style="overflow:visible;"/>
		</clipPath>
		<g class="st38">
			<defs>
				<rect id="SVGID_77_" x="-397.8" y="-12887.8" width="2438.1" height="21548.1"/>
			</defs>
			<clipPath id="SVGID_78_">
				<use xlink:href="#SVGID_77_"  style="overflow:visible;"/>
			</clipPath>
			<rect x="129.5" y="59.3" class="st39" width="16.8" height="16.8"/>
		</g>
	</g>
	<g>
		<defs>
			<path id="SVGID_79_" d="M134.9,68.5c-0.2,0-0.4-0.1-0.5-0.2c-0.1-0.1-0.2-0.3-0.2-0.5c0-0.2,0.1-0.4,0.2-0.5
				c0.3-0.3,0.8-0.3,1.1,0c0.1,0.1,0.2,0.3,0.2,0.5c0,0.2-0.1,0.4-0.2,0.5C135.3,68.4,135.1,68.5,134.9,68.5z"/>
		</defs>
		<clipPath id="SVGID_80_">
			<use xlink:href="#SVGID_79_"  style="overflow:visible;"/>
		</clipPath>
		<g class="st40">
			<defs>
				<rect id="SVGID_81_" x="-397.8" y="-12887.8" width="2438.1" height="21548.1"/>
			</defs>
			<clipPath id="SVGID_82_">
				<use xlink:href="#SVGID_81_"  style="overflow:visible;"/>
			</clipPath>
			<rect x="126.5" y="59.3" class="st41" width="16.8" height="16.8"/>
		</g>
	</g>
	<g>
		<defs>
			<path id="SVGID_83_" d="M141,74.6c-0.2,0-0.4-0.1-0.5-0.2c-0.1-0.1-0.2-0.3-0.2-0.5c0-0.2,0.1-0.4,0.2-0.5c0.3-0.3,0.8-0.3,1.1,0
				c0.1,0.1,0.2,0.3,0.2,0.5c0,0.2-0.1,0.4-0.2,0.5C141.4,74.5,141.2,74.6,141,74.6z"/>
		</defs>
		<clipPath id="SVGID_84_">
			<use xlink:href="#SVGID_83_"  style="overflow:visible;"/>
		</clipPath>
		<g class="st42">
			<defs>
				<rect id="SVGID_85_" x="-397.8" y="-12887.8" width="2438.1" height="21548.1"/>
			</defs>
			<clipPath id="SVGID_86_">
				<use xlink:href="#SVGID_85_"  style="overflow:visible;"/>
			</clipPath>
			<rect x="132.6" y="65.4" class="st43" width="16.8" height="16.8"/>
		</g>
	</g>
	<g>
		<defs>
			<path id="SVGID_87_" d="M141,71.5c-0.2,0-0.4-0.1-0.5-0.2c-0.1-0.1-0.2-0.3-0.2-0.5c0-0.2,0.1-0.4,0.2-0.5c0.3-0.3,0.8-0.3,1.1,0
				c0.1,0.1,0.2,0.3,0.2,0.5c0,0.2-0.1,0.4-0.2,0.5C141.4,71.4,141.2,71.5,141,71.5z"/>
		</defs>
		<clipPath id="SVGID_88_">
			<use xlink:href="#SVGID_87_"  style="overflow:visible;"/>
		</clipPath>
		<g class="st44">
			<defs>
				<rect id="SVGID_89_" x="-397.8" y="-12887.8" width="2438.1" height="21548.1"/>
			</defs>
			<clipPath id="SVGID_90_">
				<use xlink:href="#SVGID_89_"  style="overflow:visible;"/>
			</clipPath>
			<rect x="132.6" y="62.4" class="st45" width="16.8" height="16.8"/>
		</g>
	</g>
	<g>
		<defs>
			<path id="SVGID_91_" d="M141,68.5c-0.2,0-0.4-0.1-0.5-0.2c-0.1-0.1-0.2-0.3-0.2-0.5c0-0.2,0.1-0.4,0.2-0.5c0.3-0.3,0.8-0.3,1.1,0
				c0.1,0.1,0.2,0.3,0.2,0.5c0,0.2-0.1,0.4-0.2,0.5C141.4,68.4,141.2,68.5,141,68.5z"/>
		</defs>
		<clipPath id="SVGID_92_">
			<use xlink:href="#SVGID_91_"  style="overflow:visible;"/>
		</clipPath>
		<g class="st46">
			<defs>
				<rect id="SVGID_93_" x="-397.8" y="-12887.8" width="2438.1" height="21548.1"/>
			</defs>
			<clipPath id="SVGID_94_">
				<use xlink:href="#SVGID_93_"  style="overflow:visible;"/>
			</clipPath>
			<rect x="132.6" y="59.3" class="st47" width="16.8" height="16.8"/>
		</g>
	</g>
	<g>
		<defs>
			<path id="SVGID_95_" d="M133.3,158H54.8c-4.5,0-8.2-3.7-8.2-8.3V96.8c0-4.6,3.7-8.3,8.2-8.3H108c0.9,0,1.6,0.7,1.6,1.7
				s-0.7,1.7-1.6,1.7H54.8c-2.7,0-4.9,2.2-4.9,5v52.9c0,2.7,2.2,5,4.9,5h78.5c2.7,0,4.9-2.2,4.9-5V96.8c0-2.1-1.3-4-3.3-4.7
				c-0.9-0.3-1.3-1.2-1-2.1c0.3-0.9,1.2-1.3,2.1-1c3.3,1.1,5.5,4.3,5.5,7.8v52.9C141.5,154.3,137.8,158,133.3,158z"/>
		</defs>
		<clipPath id="SVGID_96_">
			<use xlink:href="#SVGID_95_"  style="overflow:visible;"/>
		</clipPath>
		<g class="st48">
			<defs>
				<rect id="SVGID_97_" x="-397.8" y="-12887.8" width="2438.1" height="21548.1"/>
			</defs>
			<clipPath id="SVGID_98_">
				<use xlink:href="#SVGID_97_"  style="overflow:visible;"/>
			</clipPath>
			<rect x="39" y="80.9" class="st49" width="110.1" height="84.7"/>
		</g>
	</g>
	<g>
		<defs>
			<path id="SVGID_99_" d="M125.1,118.3H63c-9,0-16.3-7.4-16.3-16.5c0-0.9,0.7-1.7,1.6-1.7c0.9,0,1.6,0.7,1.6,1.7
				c0,7.3,5.9,13.2,13.1,13.2h62.1c7.2,0,13.1-5.9,13.1-13.2c0-0.9,0.7-1.7,1.6-1.7s1.6,0.7,1.6,1.7
				C141.5,110.9,134.1,118.3,125.1,118.3z"/>
		</defs>
		<clipPath id="SVGID_100_">
			<use xlink:href="#SVGID_99_"  style="overflow:visible;"/>
		</clipPath>
		<g class="st50">
			<defs>
				<rect id="SVGID_101_" x="-397.8" y="-12887.8" width="2438.1" height="21548.1"/>
			</defs>
			<clipPath id="SVGID_102_">
				<use xlink:href="#SVGID_101_"  style="overflow:visible;"/>
			</clipPath>
			<rect x="39" y="92.5" class="st51" width="110.1" height="33.4"/>
		</g>
	</g>
	<g>
		<defs>
			<path id="SVGID_103_" d="M94,105.1c-0.9,0-1.6,0.7-1.6,1.7c0,0.9,0.7,1.7,1.6,1.7c0.9,0,1.6-0.7,1.6-1.7
				C95.7,105.8,94.9,105.1,94,105.1z M94,111.7c-2.7,0-4.9-2.2-4.9-5c0-2.7,2.2-5,4.9-5c2.7,0,4.9,2.2,4.9,5
				C99,109.5,96.8,111.7,94,111.7z"/>
		</defs>
		<clipPath id="SVGID_104_">
			<use xlink:href="#SVGID_103_"  style="overflow:visible;"/>
		</clipPath>
		<g class="st52">
			<defs>
				<rect id="SVGID_105_" x="-397.8" y="-12887.8" width="2438.1" height="21548.1"/>
			</defs>
			<clipPath id="SVGID_106_">
				<use xlink:href="#SVGID_105_"  style="overflow:visible;"/>
			</clipPath>
			<rect x="81.5" y="94.2" class="st53" width="25" height="25.2"/>
		</g>
	</g>
	<g>
		<defs>
			<path id="SVGID_107_" d="M133.3,151.4c-0.4,0-0.9-0.2-1.2-0.5c-0.3-0.3-0.5-0.7-0.5-1.2c0-0.4,0.2-0.9,0.5-1.2
				c0.6-0.6,1.7-0.6,2.3,0c0.3,0.3,0.5,0.7,0.5,1.2c0,0.4-0.2,0.9-0.5,1.2C134.1,151.2,133.7,151.4,133.3,151.4z"/>
		</defs>
		<clipPath id="SVGID_108_">
			<use xlink:href="#SVGID_107_"  style="overflow:visible;"/>
		</clipPath>
		<g class="st54">
			<defs>
				<rect id="SVGID_109_" x="-397.8" y="-12887.8" width="2438.1" height="21548.1"/>
			</defs>
			<clipPath id="SVGID_110_">
				<use xlink:href="#SVGID_109_"  style="overflow:visible;"/>
			</clipPath>
			<rect x="124" y="140.5" class="st55" width="18.5" height="18.5"/>
		</g>
	</g>
	<g>
		<defs>
			<path id="SVGID_111_" d="M126.7,151.4c-0.4,0-0.9-0.2-1.2-0.5c-0.3-0.3-0.5-0.7-0.5-1.2c0-0.4,0.2-0.9,0.5-1.2
				c0.6-0.6,1.7-0.6,2.3,0c0.3,0.3,0.5,0.7,0.5,1.2c0,0.4-0.2,0.9-0.5,1.2C127.6,151.2,127.2,151.4,126.7,151.4z"/>
		</defs>
		<clipPath id="SVGID_112_">
			<use xlink:href="#SVGID_111_"  style="overflow:visible;"/>
		</clipPath>
		<g class="st56">
			<defs>
				<rect id="SVGID_113_" x="-397.8" y="-12887.8" width="2438.1" height="21548.1"/>
			</defs>
			<clipPath id="SVGID_114_">
				<use xlink:href="#SVGID_113_"  style="overflow:visible;"/>
			</clipPath>
			<rect x="117.5" y="140.5" class="st57" width="18.5" height="18.5"/>
		</g>
	</g>
	<g>
		<defs>
			<path id="SVGID_115_" d="M120.2,151.4c-0.4,0-0.9-0.2-1.2-0.5c-0.3-0.3-0.5-0.7-0.5-1.2c0-0.4,0.2-0.9,0.5-1.2
				c0.6-0.6,1.7-0.6,2.3,0c0.3,0.3,0.5,0.7,0.5,1.2c0,0.4-0.2,0.9-0.5,1.2C121.1,151.2,120.6,151.4,120.2,151.4z"/>
		</defs>
		<clipPath id="SVGID_116_">
			<use xlink:href="#SVGID_115_"  style="overflow:visible;"/>
		</clipPath>
		<g class="st58">
			<defs>
				<rect id="SVGID_117_" x="-397.8" y="-12887.8" width="2438.1" height="21548.1"/>
			</defs>
			<clipPath id="SVGID_118_">
				<use xlink:href="#SVGID_117_"  style="overflow:visible;"/>
			</clipPath>
			<rect x="111" y="140.5" class="st59" width="18.5" height="18.5"/>
		</g>
	</g>
	<g>
		<defs>
			<path id="SVGID_119_" d="M113.7,151.4c-0.4,0-0.9-0.2-1.2-0.5c-0.3-0.3-0.5-0.7-0.5-1.2c0-0.4,0.2-0.9,0.5-1.2
				c0.6-0.6,1.7-0.6,2.3,0c0.3,0.3,0.5,0.7,0.5,1.2c0,0.4-0.2,0.9-0.5,1.2C114.5,151.2,114.1,151.4,113.7,151.4z"/>
		</defs>
		<clipPath id="SVGID_120_">
			<use xlink:href="#SVGID_119_"  style="overflow:visible;"/>
		</clipPath>
		<g class="st60">
			<defs>
				<rect id="SVGID_121_" x="-397.8" y="-12887.8" width="2438.1" height="21548.1"/>
			</defs>
			<clipPath id="SVGID_122_">
				<use xlink:href="#SVGID_121_"  style="overflow:visible;"/>
			</clipPath>
			<rect x="104.4" y="140.5" class="st61" width="18.5" height="18.5"/>
		</g>
	</g>
	<g>
		<defs>
			<path id="SVGID_123_" d="M133.3,144.8c-0.4,0-0.9-0.2-1.2-0.5c-0.3-0.3-0.5-0.7-0.5-1.2c0-0.4,0.2-0.9,0.5-1.2
				c0.6-0.6,1.7-0.6,2.3,0c0.3,0.3,0.5,0.7,0.5,1.2c0,0.4-0.2,0.9-0.5,1.2C134.1,144.6,133.7,144.8,133.3,144.8z"/>
		</defs>
		<clipPath id="SVGID_124_">
			<use xlink:href="#SVGID_123_"  style="overflow:visible;"/>
		</clipPath>
		<g class="st62">
			<defs>
				<rect id="SVGID_125_" x="-397.8" y="-12887.8" width="2438.1" height="21548.1"/>
			</defs>
			<clipPath id="SVGID_126_">
				<use xlink:href="#SVGID_125_"  style="overflow:visible;"/>
			</clipPath>
			<rect x="124" y="133.9" class="st63" width="18.5" height="18.5"/>
		</g>
	</g>
	<g>
		<defs>
			<path id="SVGID_127_" d="M126.7,144.8c-0.4,0-0.9-0.2-1.2-0.5c-0.3-0.3-0.5-0.7-0.5-1.2c0-0.4,0.2-0.9,0.5-1.2
				c0.6-0.6,1.7-0.6,2.3,0c0.3,0.3,0.5,0.7,0.5,1.2c0,0.4-0.2,0.9-0.5,1.2C127.6,144.6,127.2,144.8,126.7,144.8z"/>
		</defs>
		<clipPath id="SVGID_128_">
			<use xlink:href="#SVGID_127_"  style="overflow:visible;"/>
		</clipPath>
		<g class="st64">
			<defs>
				<rect id="SVGID_129_" x="-397.8" y="-12887.8" width="2438.1" height="21548.1"/>
			</defs>
			<clipPath id="SVGID_130_">
				<use xlink:href="#SVGID_129_"  style="overflow:visible;"/>
			</clipPath>
			<rect x="117.5" y="133.9" class="st65" width="18.5" height="18.5"/>
		</g>
	</g>
	<g>
		<defs>
			<path id="SVGID_131_" d="M120.2,144.8c-0.4,0-0.9-0.2-1.2-0.5c-0.3-0.3-0.5-0.7-0.5-1.2c0-0.4,0.2-0.9,0.5-1.2
				c0.6-0.6,1.7-0.6,2.3,0c0.3,0.3,0.5,0.7,0.5,1.2c0,0.4-0.2,0.9-0.5,1.2C121.1,144.6,120.6,144.8,120.2,144.8z"/>
		</defs>
		<clipPath id="SVGID_132_">
			<use xlink:href="#SVGID_131_"  style="overflow:visible;"/>
		</clipPath>
		<g class="st66">
			<defs>
				<rect id="SVGID_133_" x="-397.8" y="-12887.8" width="2438.1" height="21548.1"/>
			</defs>
			<clipPath id="SVGID_134_">
				<use xlink:href="#SVGID_133_"  style="overflow:visible;"/>
			</clipPath>
			<rect x="111" y="133.9" class="st67" width="18.5" height="18.5"/>
		</g>
	</g>
	<g>
		<defs>
			<path id="SVGID_135_" d="M133.3,138.2c-0.4,0-0.9-0.2-1.2-0.5c-0.3-0.3-0.5-0.7-0.5-1.2c0-0.4,0.2-0.9,0.5-1.2
				c0.6-0.6,1.7-0.6,2.3,0c0.3,0.3,0.5,0.7,0.5,1.2c0,0.4-0.2,0.9-0.5,1.2C134.1,138,133.7,138.2,133.3,138.2z"/>
		</defs>
		<clipPath id="SVGID_136_">
			<use xlink:href="#SVGID_135_"  style="overflow:visible;"/>
		</clipPath>
		<g class="st68">
			<defs>
				<rect id="SVGID_137_" x="-397.8" y="-12887.8" width="2438.1" height="21548.1"/>
			</defs>
			<clipPath id="SVGID_138_">
				<use xlink:href="#SVGID_137_"  style="overflow:visible;"/>
			</clipPath>
			<rect x="124" y="127.3" class="st69" width="18.5" height="18.5"/>
		</g>
	</g>
	<g>
		<defs>
			<path id="SVGID_139_" d="M126.7,138.2c-0.4,0-0.9-0.2-1.2-0.5c-0.3-0.3-0.5-0.7-0.5-1.2c0-0.4,0.2-0.9,0.5-1.2
				c0.6-0.6,1.7-0.6,2.3,0c0.3,0.3,0.5,0.7,0.5,1.2c0,0.4-0.2,0.9-0.5,1.2C127.6,138,127.2,138.2,126.7,138.2z"/>
		</defs>
		<clipPath id="SVGID_140_">
			<use xlink:href="#SVGID_139_"  style="overflow:visible;"/>
		</clipPath>
		<g class="st70">
			<defs>
				<rect id="SVGID_141_" x="-397.8" y="-12887.8" width="2438.1" height="21548.1"/>
			</defs>
			<clipPath id="SVGID_142_">
				<use xlink:href="#SVGID_141_"  style="overflow:visible;"/>
			</clipPath>
			<rect x="117.5" y="127.3" class="st71" width="18.5" height="18.5"/>
		</g>
	</g>
	<g>
		<defs>
			<path id="SVGID_143_" d="M133.3,131.5c-0.4,0-0.9-0.2-1.2-0.5c-0.3-0.3-0.5-0.7-0.5-1.2c0-0.4,0.2-0.9,0.5-1.2
				c0.6-0.6,1.7-0.6,2.3,0c0.3,0.3,0.5,0.7,0.5,1.2c0,0.4-0.2,0.9-0.5,1.2C134.1,131.4,133.7,131.5,133.3,131.5z"/>
		</defs>
		<clipPath id="SVGID_144_">
			<use xlink:href="#SVGID_143_"  style="overflow:visible;"/>
		</clipPath>
		<g class="st72">
			<defs>
				<rect id="SVGID_145_" x="-397.8" y="-12887.8" width="2438.1" height="21548.1"/>
			</defs>
			<clipPath id="SVGID_146_">
				<use xlink:href="#SVGID_145_"  style="overflow:visible;"/>
			</clipPath>
			<rect x="124" y="120.6" class="st73" width="18.5" height="18.5"/>
		</g>
	</g>
	<g>
		<defs>
			<path id="SVGID_147_" d="M54.8,151.4c-0.4,0-0.9-0.2-1.2-0.5c-0.3-0.3-0.5-0.7-0.5-1.2c0-0.4,0.2-0.9,0.5-1.2
				c0.6-0.6,1.7-0.6,2.3,0c0.3,0.3,0.5,0.7,0.5,1.2c0,0.4-0.2,0.9-0.5,1.2C55.7,151.2,55.3,151.4,54.8,151.4z"/>
		</defs>
		<clipPath id="SVGID_148_">
			<use xlink:href="#SVGID_147_"  style="overflow:visible;"/>
		</clipPath>
		<g class="st74">
			<defs>
				<rect id="SVGID_149_" x="-397.8" y="-12887.8" width="2438.1" height="21548.1"/>
			</defs>
			<clipPath id="SVGID_150_">
				<use xlink:href="#SVGID_149_"  style="overflow:visible;"/>
			</clipPath>
			<rect x="45.6" y="140.5" class="st75" width="18.5" height="18.5"/>
		</g>
	</g>
	<g>
		<defs>
			<path id="SVGID_151_" d="M61.4,151.4c-0.4,0-0.9-0.2-1.2-0.5c-0.3-0.3-0.5-0.7-0.5-1.2c0-0.4,0.2-0.9,0.5-1.2
				c0.6-0.6,1.7-0.6,2.3,0c0.3,0.3,0.5,0.7,0.5,1.2c0,0.4-0.2,0.9-0.5,1.2C62.2,151.2,61.8,151.4,61.4,151.4z"/>
		</defs>
		<clipPath id="SVGID_152_">
			<use xlink:href="#SVGID_151_"  style="overflow:visible;"/>
		</clipPath>
		<g class="st76">
			<defs>
				<rect id="SVGID_153_" x="-397.8" y="-12887.8" width="2438.1" height="21548.1"/>
			</defs>
			<clipPath id="SVGID_154_">
				<use xlink:href="#SVGID_153_"  style="overflow:visible;"/>
			</clipPath>
			<rect x="52.1" y="140.5" class="st77" width="18.5" height="18.5"/>
		</g>
	</g>
	<g>
		<defs>
			<path id="SVGID_155_" d="M67.9,151.4c-0.4,0-0.9-0.2-1.2-0.5c-0.3-0.3-0.5-0.7-0.5-1.2c0-0.4,0.2-0.9,0.5-1.2
				c0.6-0.6,1.7-0.6,2.3,0c0.3,0.3,0.5,0.7,0.5,1.2c0,0.4-0.2,0.9-0.5,1.2C68.7,151.2,68.3,151.4,67.9,151.4z"/>
		</defs>
		<clipPath id="SVGID_156_">
			<use xlink:href="#SVGID_155_"  style="overflow:visible;"/>
		</clipPath>
		<g class="st78">
			<defs>
				<rect id="SVGID_157_" x="-397.8" y="-12887.8" width="2438.1" height="21548.1"/>
			</defs>
			<clipPath id="SVGID_158_">
				<use xlink:href="#SVGID_157_"  style="overflow:visible;"/>
			</clipPath>
			<rect x="58.6" y="140.5" class="st79" width="18.5" height="18.5"/>
		</g>
	</g>
	<g>
		<defs>
			<path id="SVGID_159_" d="M74.4,151.4c-0.4,0-0.9-0.2-1.2-0.5c-0.3-0.3-0.5-0.7-0.5-1.2c0-0.4,0.2-0.9,0.5-1.2
				c0.6-0.6,1.7-0.6,2.3,0c0.3,0.3,0.5,0.7,0.5,1.2c0,0.4-0.2,0.9-0.5,1.2C75.3,151.2,74.9,151.4,74.4,151.4z"/>
		</defs>
		<clipPath id="SVGID_160_">
			<use xlink:href="#SVGID_159_"  style="overflow:visible;"/>
		</clipPath>
		<g class="st80">
			<defs>
				<rect id="SVGID_161_" x="-397.8" y="-12887.8" width="2438.1" height="21548.1"/>
			</defs>
			<clipPath id="SVGID_162_">
				<use xlink:href="#SVGID_161_"  style="overflow:visible;"/>
			</clipPath>
			<rect x="65.2" y="140.5" class="st81" width="18.5" height="18.5"/>
		</g>
	</g>
	<g>
		<defs>
			<path id="SVGID_163_" d="M54.8,144.8c-0.4,0-0.9-0.2-1.2-0.5c-0.3-0.3-0.5-0.7-0.5-1.2c0-0.4,0.2-0.9,0.5-1.2
				c0.6-0.6,1.7-0.6,2.3,0c0.3,0.3,0.5,0.7,0.5,1.2c0,0.4-0.2,0.9-0.5,1.2C55.7,144.6,55.2,144.8,54.8,144.8z"/>
		</defs>
		<clipPath id="SVGID_164_">
			<use xlink:href="#SVGID_163_"  style="overflow:visible;"/>
		</clipPath>
		<g class="st82">
			<defs>
				<rect id="SVGID_165_" x="-397.8" y="-12887.8" width="2438.1" height="21548.1"/>
			</defs>
			<clipPath id="SVGID_166_">
				<use xlink:href="#SVGID_165_"  style="overflow:visible;"/>
			</clipPath>
			<rect x="45.6" y="133.9" class="st83" width="18.5" height="18.5"/>
		</g>
	</g>
	<g>
		<defs>
			<path id="SVGID_167_" d="M61.4,144.8c-0.4,0-0.9-0.2-1.2-0.5c-0.3-0.3-0.5-0.7-0.5-1.2c0-0.4,0.2-0.9,0.5-1.2
				c0.6-0.6,1.7-0.6,2.3,0c0.3,0.3,0.5,0.7,0.5,1.2c0,0.4-0.2,0.9-0.5,1.2C62.2,144.6,61.8,144.8,61.4,144.8z"/>
		</defs>
		<clipPath id="SVGID_168_">
			<use xlink:href="#SVGID_167_"  style="overflow:visible;"/>
		</clipPath>
		<g class="st84">
			<defs>
				<rect id="SVGID_169_" x="-397.8" y="-12887.8" width="2438.1" height="21548.1"/>
			</defs>
			<clipPath id="SVGID_170_">
				<use xlink:href="#SVGID_169_"  style="overflow:visible;"/>
			</clipPath>
			<rect x="52.1" y="133.9" class="st85" width="18.5" height="18.5"/>
		</g>
	</g>
	<g>
		<defs>
			<path id="SVGID_171_" d="M67.9,144.8c-0.4,0-0.9-0.2-1.2-0.5c-0.3-0.3-0.5-0.7-0.5-1.2c0-0.4,0.2-0.9,0.5-1.2
				c0.6-0.6,1.7-0.6,2.3,0c0.3,0.3,0.5,0.7,0.5,1.2c0,0.4-0.2,0.9-0.5,1.2C68.7,144.6,68.3,144.8,67.9,144.8z"/>
		</defs>
		<clipPath id="SVGID_172_">
			<use xlink:href="#SVGID_171_"  style="overflow:visible;"/>
		</clipPath>
		<g class="st86">
			<defs>
				<rect id="SVGID_173_" x="-397.8" y="-12887.8" width="2438.1" height="21548.1"/>
			</defs>
			<clipPath id="SVGID_174_">
				<use xlink:href="#SVGID_173_"  style="overflow:visible;"/>
			</clipPath>
			<rect x="58.6" y="133.9" class="st87" width="18.5" height="18.5"/>
		</g>
	</g>
	<g>
		<defs>
			<path id="SVGID_175_" d="M54.8,138.2c-0.4,0-0.9-0.2-1.2-0.5c-0.3-0.3-0.5-0.7-0.5-1.2c0-0.4,0.2-0.9,0.5-1.2
				c0.6-0.6,1.7-0.6,2.3,0c0.3,0.3,0.5,0.7,0.5,1.2c0,0.4-0.2,0.9-0.5,1.2C55.7,138,55.3,138.2,54.8,138.2z"/>
		</defs>
		<clipPath id="SVGID_176_">
			<use xlink:href="#SVGID_175_"  style="overflow:visible;"/>
		</clipPath>
		<g class="st88">
			<defs>
				<rect id="SVGID_177_" x="-397.8" y="-12887.8" width="2438.1" height="21548.1"/>
			</defs>
			<clipPath id="SVGID_178_">
				<use xlink:href="#SVGID_177_"  style="overflow:visible;"/>
			</clipPath>
			<rect x="45.6" y="127.3" class="st89" width="18.5" height="18.5"/>
		</g>
	</g>
	<g>
		<defs>
			<path id="SVGID_179_" d="M61.4,138.2c-0.4,0-0.9-0.2-1.2-0.5c-0.3-0.3-0.5-0.7-0.5-1.2c0-0.4,0.2-0.9,0.5-1.2
				c0.6-0.6,1.7-0.6,2.3,0c0.3,0.3,0.5,0.7,0.5,1.2c0,0.4-0.2,0.9-0.5,1.2C62.2,138,61.8,138.2,61.4,138.2z"/>
		</defs>
		<clipPath id="SVGID_180_">
			<use xlink:href="#SVGID_179_"  style="overflow:visible;"/>
		</clipPath>
		<g class="st90">
			<defs>
				<rect id="SVGID_181_" x="-397.8" y="-12887.8" width="2438.1" height="21548.1"/>
			</defs>
			<clipPath id="SVGID_182_">
				<use xlink:href="#SVGID_181_"  style="overflow:visible;"/>
			</clipPath>
			<rect x="52.1" y="127.3" class="st91" width="18.5" height="18.5"/>
		</g>
	</g>
	<g>
		<defs>
			<path id="SVGID_183_" d="M54.8,131.5c-0.4,0-0.9-0.2-1.2-0.5c-0.3-0.3-0.5-0.7-0.5-1.2c0-0.4,0.2-0.9,0.5-1.2
				c0.6-0.6,1.7-0.6,2.3,0c0.3,0.3,0.5,0.7,0.5,1.2c0,0.4-0.2,0.9-0.5,1.2C55.7,131.4,55.2,131.5,54.8,131.5z"/>
		</defs>
		<clipPath id="SVGID_184_">
			<use xlink:href="#SVGID_183_"  style="overflow:visible;"/>
		</clipPath>
		<g class="st92">
			<defs>
				<rect id="SVGID_185_" x="-397.8" y="-12887.8" width="2438.1" height="21548.1"/>
			</defs>
			<clipPath id="SVGID_186_">
				<use xlink:href="#SVGID_185_"  style="overflow:visible;"/>
			</clipPath>
			<rect x="45.6" y="120.6" class="st93" width="18.5" height="18.5"/>
		</g>
	</g>
	<g>
		<defs>
			<path id="SVGID_187_" d="M121.8,105.1c-0.4,0-0.9-0.2-1.2-0.5c-0.3-0.3-0.5-0.7-0.5-1.2c0-0.4,0.2-0.9,0.5-1.2
				c0.6-0.6,1.7-0.6,2.3,0c0.3,0.3,0.5,0.7,0.5,1.2c0,0.4-0.2,0.9-0.5,1.2C122.7,104.9,122.3,105.1,121.8,105.1z"/>
		</defs>
		<clipPath id="SVGID_188_">
			<use xlink:href="#SVGID_187_"  style="overflow:visible;"/>
		</clipPath>
		<g class="st94">
			<defs>
				<rect id="SVGID_189_" x="-397.8" y="-12887.8" width="2438.1" height="21548.1"/>
			</defs>
			<clipPath id="SVGID_190_">
				<use xlink:href="#SVGID_189_"  style="overflow:visible;"/>
			</clipPath>
			<rect x="112.6" y="94.2" class="st95" width="18.5" height="18.5"/>
		</g>
	</g>
	<g>
		<defs>
			<path id="SVGID_191_" d="M115.3,105.1c-0.4,0-0.9-0.2-1.2-0.5c-0.3-0.3-0.5-0.7-0.5-1.2c0-0.4,0.2-0.9,0.5-1.2
				c0.6-0.6,1.7-0.6,2.3,0c0.3,0.3,0.5,0.7,0.5,1.2c0,0.4-0.2,0.9-0.5,1.2C116.2,104.9,115.7,105.1,115.3,105.1z"/>
		</defs>
		<clipPath id="SVGID_192_">
			<use xlink:href="#SVGID_191_"  style="overflow:visible;"/>
		</clipPath>
		<g class="st96">
			<defs>
				<rect id="SVGID_193_" x="-397.8" y="-12887.8" width="2438.1" height="21548.1"/>
			</defs>
			<clipPath id="SVGID_194_">
				<use xlink:href="#SVGID_193_"  style="overflow:visible;"/>
			</clipPath>
			<rect x="106" y="94.2" class="st97" width="18.5" height="18.5"/>
		</g>
	</g>
	<g>
		<defs>
			<path id="SVGID_195_" d="M128.4,105.1c-0.4,0-0.9-0.2-1.2-0.5c-0.3-0.3-0.5-0.7-0.5-1.2c0-0.4,0.2-0.9,0.5-1.2
				c0.6-0.6,1.7-0.6,2.3,0c0.3,0.3,0.5,0.7,0.5,1.2c0,0.4-0.2,0.9-0.5,1.2C129.2,104.9,128.8,105.1,128.4,105.1z"/>
		</defs>
		<clipPath id="SVGID_196_">
			<use xlink:href="#SVGID_195_"  style="overflow:visible;"/>
		</clipPath>
		<g class="st98">
			<defs>
				<rect id="SVGID_197_" x="-397.8" y="-12887.8" width="2438.1" height="21548.1"/>
			</defs>
			<clipPath id="SVGID_198_">
				<use xlink:href="#SVGID_197_"  style="overflow:visible;"/>
			</clipPath>
			<rect x="119.1" y="94.2" class="st99" width="18.5" height="18.5"/>
		</g>
	</g>
	<g>
		<defs>
			<path id="SVGID_199_" d="M125.1,111.7c-0.4,0-0.9-0.2-1.2-0.5c-0.3-0.3-0.5-0.7-0.5-1.2c0-0.4,0.2-0.9,0.5-1.2
				c0.6-0.6,1.7-0.6,2.3,0c0.3,0.3,0.5,0.7,0.5,1.2c0,0.4-0.2,0.9-0.5,1.2C126,111.5,125.5,111.7,125.1,111.7z"/>
		</defs>
		<clipPath id="SVGID_200_">
			<use xlink:href="#SVGID_199_"  style="overflow:visible;"/>
		</clipPath>
		<g class="st100">
			<defs>
				<rect id="SVGID_201_" x="-397.8" y="-12887.8" width="2438.1" height="21548.1"/>
			</defs>
			<clipPath id="SVGID_202_">
				<use xlink:href="#SVGID_201_"  style="overflow:visible;"/>
			</clipPath>
			<rect x="115.9" y="100.8" class="st101" width="18.5" height="18.5"/>
		</g>
	</g>
	<g>
		<defs>
			<path id="SVGID_203_" d="M118.6,111.7c-0.4,0-0.9-0.2-1.2-0.5c-0.3-0.3-0.5-0.7-0.5-1.2c0-0.4,0.2-0.9,0.5-1.2
				c0.6-0.6,1.7-0.6,2.3,0c0.3,0.3,0.5,0.7,0.5,1.2c0,0.4-0.2,0.9-0.5,1.2C119.4,111.5,119,111.7,118.6,111.7z"/>
		</defs>
		<clipPath id="SVGID_204_">
			<use xlink:href="#SVGID_203_"  style="overflow:visible;"/>
		</clipPath>
		<g class="st102">
			<defs>
				<rect id="SVGID_205_" x="-397.8" y="-12887.8" width="2438.1" height="21548.1"/>
			</defs>
			<clipPath id="SVGID_206_">
				<use xlink:href="#SVGID_205_"  style="overflow:visible;"/>
			</clipPath>
			<rect x="109.3" y="100.8" class="st103" width="18.5" height="18.5"/>
		</g>
	</g>
</g>
</svg>
