<?xml version="1.0" encoding="utf-8"?>
<!-- Generator: Adobe Illustrator 21.0.0, SVG Export Plug-In . SVG Version: 6.00 Build 0)  -->
<svg version="1.1" xmlns="http://www.w3.org/2000/svg" xmlns:xlink="http://www.w3.org/1999/xlink" x="0px" y="0px"
	 viewBox="0 0 193 213.5" style="enable-background:new 0 0 193 213.5;" xml:space="preserve">
<style type="text/css">
	.st0{clip-path:url(#SVGID_2_);fill:none;stroke:#C1C1C1;stroke-miterlimit:10;}
	.st1{clip-path:url(#SVGID_4_);}
	.st2{clip-path:url(#SVGID_6_);fill:#1D1D1D;}
	.st3{clip-path:url(#SVGID_8_);}
	.st4{clip-path:url(#SVGID_10_);fill:#1D1D1D;}
	.st5{clip-path:url(#SVGID_12_);}
	.st6{clip-path:url(#SVGID_14_);fill:#1D1D1D;}
	.st7{clip-path:url(#SVGID_16_);}
	.st8{clip-path:url(#SVGID_18_);fill:#1D1D1D;}
	.st9{clip-path:url(#SVGID_20_);}
	.st10{clip-path:url(#SVGID_22_);fill:#1D1D1D;}
	.st11{clip-path:url(#SVGID_24_);}
	.st12{clip-path:url(#SVGID_26_);fill:#1D1D1D;}
	.st13{clip-path:url(#SVGID_28_);}
	.st14{clip-path:url(#SVGID_30_);fill:#1D1D1D;}
	.st15{clip-path:url(#SVGID_32_);}
	.st16{clip-path:url(#SVGID_34_);fill:#1D1D1D;}
	.st17{clip-path:url(#SVGID_36_);}
	.st18{clip-path:url(#SVGID_38_);fill:#1D1D1D;}
	.st19{clip-path:url(#SVGID_40_);}
	.st20{clip-path:url(#SVGID_42_);fill:#1D1D1D;}
	.st21{clip-path:url(#SVGID_44_);}
	.st22{clip-path:url(#SVGID_46_);fill:#1D1D1D;}
	.st23{clip-path:url(#SVGID_48_);}
	.st24{clip-path:url(#SVGID_50_);fill:#1D1D1D;}
	.st25{clip-path:url(#SVGID_52_);}
	.st26{clip-path:url(#SVGID_54_);fill:#1D1D1D;}
	.st27{clip-path:url(#SVGID_56_);}
	.st28{clip-path:url(#SVGID_58_);fill:#1D1D1D;}
	.st29{clip-path:url(#SVGID_60_);}
	.st30{clip-path:url(#SVGID_62_);fill:#1D1D1D;}
	.st31{clip-path:url(#SVGID_64_);}
	.st32{clip-path:url(#SVGID_66_);fill:#DC425F;}
	.st33{clip-path:url(#SVGID_68_);}
	.st34{clip-path:url(#SVGID_70_);fill:#1D1D1D;}
	.st35{clip-path:url(#SVGID_72_);}
	.st36{clip-path:url(#SVGID_74_);fill:#DC425F;}
	.st37{clip-path:url(#SVGID_76_);}
	.st38{clip-path:url(#SVGID_78_);fill:#DC425F;}
	.st39{clip-path:url(#SVGID_80_);}
	.st40{clip-path:url(#SVGID_82_);fill:#DC425F;}
	.st41{clip-path:url(#SVGID_84_);}
	.st42{clip-path:url(#SVGID_86_);fill:#DC425F;}
	.st43{clip-path:url(#SVGID_88_);}
	.st44{clip-path:url(#SVGID_90_);fill:#DC425F;}
	.st45{clip-path:url(#SVGID_92_);}
	.st46{clip-path:url(#SVGID_94_);fill:#DC425F;}
	.st47{clip-path:url(#SVGID_96_);}
	.st48{clip-path:url(#SVGID_98_);fill:#DC425F;}
	.st49{clip-path:url(#SVGID_100_);}
	.st50{clip-path:url(#SVGID_102_);fill:#DC425F;}
</style>
<g id="Layer_1">
	<g>
		<g>
			<g>
				<defs>
					<rect id="SVGID_1_" x="-229.8" y="-4733" width="1600" height="10808"/>
				</defs>
				<clipPath id="SVGID_2_">
					<use xlink:href="#SVGID_1_"  style="overflow:visible;"/>
				</clipPath>
				<path class="st0" d="M1.7,71.2v71.1c0,12,6.4,23.2,16.8,29.2L79.7,207c10.4,6,23.2,6,33.6,0l61.3-35.5
					c10.4-6,16.8-17.1,16.8-29.2V71.2c0-12-6.4-23.2-16.8-29.2L113.3,6.5c-10.4-6-23.2-6-33.6,0L18.4,42C8.1,48,1.7,59.2,1.7,71.2z"
					/>
			</g>
		</g>
	</g>
</g>
<g id="Capa_2">
	<g>
		<g>
			<defs>
				<path id="SVGID_3_" d="M58.1,117c-4,0-7.2,4-7.2,9c0,5,3.2,9,7.2,9s7.2-4,7.2-9C65.3,121,62,117,58.1,117z M58.1,138.6
					c-5.9,0-10.8-5.7-10.8-12.6c0-7,4.8-12.6,10.8-12.6c5.9,0,10.8,5.7,10.8,12.6C68.8,133,64,138.6,58.1,138.6z"/>
			</defs>
			<clipPath id="SVGID_4_">
				<use xlink:href="#SVGID_3_"  style="overflow:visible;"/>
			</clipPath>
			<g class="st1">
				<defs>
					<rect id="SVGID_5_" x="-444.1" y="-13491.4" width="2667.1" height="23572.4"/>
				</defs>
				<clipPath id="SVGID_6_">
					<use xlink:href="#SVGID_5_"  style="overflow:visible;"/>
				</clipPath>
				<rect x="39" y="105" class="st2" width="38.2" height="41.9"/>
			</g>
		</g>
		<g>
			<defs>
				<path id="SVGID_7_" d="M49.1,160.3c-1,0-1.8-0.8-1.8-1.8V153c0-1,0.8-1.8,1.8-1.8s1.8,0.8,1.8,1.8v5.4
					C50.9,159.4,50.1,160.3,49.1,160.3z"/>
			</defs>
			<clipPath id="SVGID_8_">
				<use xlink:href="#SVGID_7_"  style="overflow:visible;"/>
			</clipPath>
			<g class="st3">
				<defs>
					<rect id="SVGID_9_" x="-444.1" y="-13491.4" width="2667.1" height="23572.4"/>
				</defs>
				<clipPath id="SVGID_10_">
					<use xlink:href="#SVGID_9_"  style="overflow:visible;"/>
				</clipPath>
				<rect x="39" y="142.9" class="st4" width="20.3" height="25.7"/>
			</g>
		</g>
		<g>
			<defs>
				<path id="SVGID_11_" d="M67,160.3c-1,0-1.8-0.8-1.8-1.8V153c0-1,0.8-1.8,1.8-1.8c1,0,1.8,0.8,1.8,1.8v5.4
					C68.8,159.4,68,160.3,67,160.3z"/>
			</defs>
			<clipPath id="SVGID_12_">
				<use xlink:href="#SVGID_11_"  style="overflow:visible;"/>
			</clipPath>
			<g class="st5">
				<defs>
					<rect id="SVGID_13_" x="-444.1" y="-13491.4" width="2667.1" height="23572.4"/>
				</defs>
				<clipPath id="SVGID_14_">
					<use xlink:href="#SVGID_13_"  style="overflow:visible;"/>
				</clipPath>
				<rect x="56.9" y="142.9" class="st6" width="20.3" height="25.7"/>
			</g>
		</g>
		<g>
			<defs>
				<path id="SVGID_15_" d="M41.9,160.3c-1,0-1.8-0.8-1.8-1.8V144c0-3,2.4-5.4,5.4-5.4h5.4c1,0,1.8-0.8,1.8-1.8v-0.9
					c0-1,0.8-1.8,1.8-1.8c1,0,1.8,0.8,1.8,1.8v0.9c0,3-2.4,5.4-5.4,5.4h-5.4c-1,0-1.8,0.8-1.8,1.8v14.4
					C43.7,159.4,42.9,160.3,41.9,160.3z"/>
			</defs>
			<clipPath id="SVGID_16_">
				<use xlink:href="#SVGID_15_"  style="overflow:visible;"/>
			</clipPath>
			<g class="st7">
				<defs>
					<rect id="SVGID_17_" x="-444.1" y="-13491.4" width="2667.1" height="23572.4"/>
				</defs>
				<clipPath id="SVGID_18_">
					<use xlink:href="#SVGID_17_"  style="overflow:visible;"/>
				</clipPath>
				<rect x="31.8" y="125.8" class="st8" width="32.8" height="42.8"/>
			</g>
		</g>
		<g>
			<defs>
				<path id="SVGID_19_" d="M74.2,160.3c-1,0-1.8-0.8-1.8-1.8V144c0-1-0.8-1.8-1.8-1.8h-5.4c-3,0-5.4-2.4-5.4-5.4v-0.9
					c0-1,0.8-1.8,1.8-1.8c1,0,1.8,0.8,1.8,1.8v0.9c0,1,0.8,1.8,1.8,1.8h5.4c3,0,5.4,2.4,5.4,5.4v14.4
					C76,159.4,75.2,160.3,74.2,160.3z"/>
			</defs>
			<clipPath id="SVGID_20_">
				<use xlink:href="#SVGID_19_"  style="overflow:visible;"/>
			</clipPath>
			<g class="st9">
				<defs>
					<rect id="SVGID_21_" x="-444.1" y="-13491.4" width="2667.1" height="23572.4"/>
				</defs>
				<clipPath id="SVGID_22_">
					<use xlink:href="#SVGID_21_"  style="overflow:visible;"/>
				</clipPath>
				<rect x="51.5" y="125.8" class="st10" width="32.8" height="42.8"/>
			</g>
		</g>
		<g>
			<defs>
				<path id="SVGID_23_" d="M97.6,117c-4,0-7.2,4-7.2,9c0,5,3.2,9,7.2,9c4,0,7.2-4,7.2-9C104.8,121,101.5,117,97.6,117z M97.6,138.6
					c-5.9,0-10.8-5.7-10.8-12.6c0-7,4.8-12.6,10.8-12.6c5.9,0,10.8,5.7,10.8,12.6C108.4,133,103.5,138.6,97.6,138.6z"/>
			</defs>
			<clipPath id="SVGID_24_">
				<use xlink:href="#SVGID_23_"  style="overflow:visible;"/>
			</clipPath>
			<g class="st11">
				<defs>
					<rect id="SVGID_25_" x="-444.1" y="-13491.4" width="2667.1" height="23572.4"/>
				</defs>
				<clipPath id="SVGID_26_">
					<use xlink:href="#SVGID_25_"  style="overflow:visible;"/>
				</clipPath>
				<rect x="78.5" y="105" class="st12" width="38.2" height="41.9"/>
			</g>
		</g>
		<g>
			<defs>
				<path id="SVGID_27_" d="M88.6,160.3c-1,0-1.8-0.8-1.8-1.8V153c0-1,0.8-1.8,1.8-1.8c1,0,1.8,0.8,1.8,1.8v5.4
					C90.4,159.4,89.6,160.3,88.6,160.3z"/>
			</defs>
			<clipPath id="SVGID_28_">
				<use xlink:href="#SVGID_27_"  style="overflow:visible;"/>
			</clipPath>
			<g class="st13">
				<defs>
					<rect id="SVGID_29_" x="-444.1" y="-13491.4" width="2667.1" height="23572.4"/>
				</defs>
				<clipPath id="SVGID_30_">
					<use xlink:href="#SVGID_29_"  style="overflow:visible;"/>
				</clipPath>
				<rect x="78.5" y="142.9" class="st14" width="20.3" height="25.7"/>
			</g>
		</g>
		<g>
			<defs>
				<path id="SVGID_31_" d="M106.6,160.3c-1,0-1.8-0.8-1.8-1.8V153c0-1,0.8-1.8,1.8-1.8c1,0,1.8,0.8,1.8,1.8v5.4
					C108.4,159.4,107.5,160.3,106.6,160.3z"/>
			</defs>
			<clipPath id="SVGID_32_">
				<use xlink:href="#SVGID_31_"  style="overflow:visible;"/>
			</clipPath>
			<g class="st15">
				<defs>
					<rect id="SVGID_33_" x="-444.1" y="-13491.4" width="2667.1" height="23572.4"/>
				</defs>
				<clipPath id="SVGID_34_">
					<use xlink:href="#SVGID_33_"  style="overflow:visible;"/>
				</clipPath>
				<rect x="96.4" y="142.9" class="st16" width="20.3" height="25.7"/>
			</g>
		</g>
		<g>
			<defs>
				<path id="SVGID_35_" d="M81.4,160.3c-1,0-1.8-0.8-1.8-1.8V144c0-3,2.4-5.4,5.4-5.4h5.4c1,0,1.8-0.8,1.8-1.8v-0.9
					c0-1,0.8-1.8,1.8-1.8c1,0,1.8,0.8,1.8,1.8v0.9c0,3-2.4,5.4-5.4,5.4H85c-1,0-1.8,0.8-1.8,1.8v14.4
					C83.2,159.4,82.4,160.3,81.4,160.3z"/>
			</defs>
			<clipPath id="SVGID_36_">
				<use xlink:href="#SVGID_35_"  style="overflow:visible;"/>
			</clipPath>
			<g class="st17">
				<defs>
					<rect id="SVGID_37_" x="-444.1" y="-13491.4" width="2667.1" height="23572.4"/>
				</defs>
				<clipPath id="SVGID_38_">
					<use xlink:href="#SVGID_37_"  style="overflow:visible;"/>
				</clipPath>
				<rect x="71.3" y="125.8" class="st18" width="32.8" height="42.8"/>
			</g>
		</g>
		<g>
			<defs>
				<path id="SVGID_39_" d="M113.7,160.3c-1,0-1.8-0.8-1.8-1.8V144c0-1-0.8-1.8-1.8-1.8h-5.4c-3,0-5.4-2.4-5.4-5.4v-0.9
					c0-1,0.8-1.8,1.8-1.8s1.8,0.8,1.8,1.8v0.9c0,1,0.8,1.8,1.8,1.8h5.4c3,0,5.4,2.4,5.4,5.4v14.4
					C115.5,159.4,114.7,160.3,113.7,160.3z"/>
			</defs>
			<clipPath id="SVGID_40_">
				<use xlink:href="#SVGID_39_"  style="overflow:visible;"/>
			</clipPath>
			<g class="st19">
				<defs>
					<rect id="SVGID_41_" x="-444.1" y="-13491.4" width="2667.1" height="23572.4"/>
				</defs>
				<clipPath id="SVGID_42_">
					<use xlink:href="#SVGID_41_"  style="overflow:visible;"/>
				</clipPath>
				<rect x="91" y="125.8" class="st20" width="32.8" height="42.8"/>
			</g>
		</g>
		<g>
			<defs>
				<path id="SVGID_43_" d="M137.1,117c-4,0-7.2,4-7.2,9c0,5,3.2,9,7.2,9s7.2-4,7.2-9C144.3,121,141,117,137.1,117z M137.1,138.6
					c-5.9,0-10.8-5.7-10.8-12.6c0-7,4.8-12.6,10.8-12.6c5.9,0,10.8,5.7,10.8,12.6C147.9,133,143,138.6,137.1,138.6z"/>
			</defs>
			<clipPath id="SVGID_44_">
				<use xlink:href="#SVGID_43_"  style="overflow:visible;"/>
			</clipPath>
			<g class="st21">
				<defs>
					<rect id="SVGID_45_" x="-444.1" y="-13491.4" width="2667.1" height="23572.4"/>
				</defs>
				<clipPath id="SVGID_46_">
					<use xlink:href="#SVGID_45_"  style="overflow:visible;"/>
				</clipPath>
				<rect x="118" y="105" class="st22" width="38.2" height="41.9"/>
			</g>
		</g>
		<g>
			<defs>
				<path id="SVGID_47_" d="M128.1,160.3c-1,0-1.8-0.8-1.8-1.8V153c0-1,0.8-1.8,1.8-1.8c1,0,1.8,0.8,1.8,1.8v5.4
					C129.9,159.4,129.1,160.3,128.1,160.3z"/>
			</defs>
			<clipPath id="SVGID_48_">
				<use xlink:href="#SVGID_47_"  style="overflow:visible;"/>
			</clipPath>
			<g class="st23">
				<defs>
					<rect id="SVGID_49_" x="-444.1" y="-13491.4" width="2667.1" height="23572.4"/>
				</defs>
				<clipPath id="SVGID_50_">
					<use xlink:href="#SVGID_49_"  style="overflow:visible;"/>
				</clipPath>
				<rect x="118" y="142.9" class="st24" width="20.3" height="25.7"/>
			</g>
		</g>
		<g>
			<defs>
				<path id="SVGID_51_" d="M146.1,160.3c-1,0-1.8-0.8-1.8-1.8V153c0-1,0.8-1.8,1.8-1.8c1,0,1.8,0.8,1.8,1.8v5.4
					C147.9,159.4,147.1,160.3,146.1,160.3z"/>
			</defs>
			<clipPath id="SVGID_52_">
				<use xlink:href="#SVGID_51_"  style="overflow:visible;"/>
			</clipPath>
			<g class="st25">
				<defs>
					<rect id="SVGID_53_" x="-444.1" y="-13491.4" width="2667.1" height="23572.4"/>
				</defs>
				<clipPath id="SVGID_54_">
					<use xlink:href="#SVGID_53_"  style="overflow:visible;"/>
				</clipPath>
				<rect x="135.9" y="142.9" class="st26" width="20.3" height="25.7"/>
			</g>
		</g>
		<g>
			<defs>
				<path id="SVGID_55_" d="M120.9,160.3c-1,0-1.8-0.8-1.8-1.8V144c0-3,2.4-5.4,5.4-5.4h5.4c1,0,1.8-0.8,1.8-1.8v-0.9
					c0-1,0.8-1.8,1.8-1.8c1,0,1.8,0.8,1.8,1.8v0.9c0,3-2.4,5.4-5.4,5.4h-5.4c-1,0-1.8,0.8-1.8,1.8v14.4
					C122.7,159.4,121.9,160.3,120.9,160.3z"/>
			</defs>
			<clipPath id="SVGID_56_">
				<use xlink:href="#SVGID_55_"  style="overflow:visible;"/>
			</clipPath>
			<g class="st27">
				<defs>
					<rect id="SVGID_57_" x="-444.1" y="-13491.4" width="2667.1" height="23572.4"/>
				</defs>
				<clipPath id="SVGID_58_">
					<use xlink:href="#SVGID_57_"  style="overflow:visible;"/>
				</clipPath>
				<rect x="110.8" y="125.8" class="st28" width="32.8" height="42.8"/>
			</g>
		</g>
		<g>
			<defs>
				<path id="SVGID_59_" d="M153.2,160.3c-1,0-1.8-0.8-1.8-1.8V144c0-1-0.8-1.8-1.8-1.8h-5.4c-3,0-5.4-2.4-5.4-5.4v-0.9
					c0-1,0.8-1.8,1.8-1.8c1,0,1.8,0.8,1.8,1.8v0.9c0,1,0.8,1.8,1.8,1.8h5.4c3,0,5.4,2.4,5.4,5.4v14.4
					C155,159.4,154.2,160.3,153.2,160.3z"/>
			</defs>
			<clipPath id="SVGID_60_">
				<use xlink:href="#SVGID_59_"  style="overflow:visible;"/>
			</clipPath>
			<g class="st29">
				<defs>
					<rect id="SVGID_61_" x="-444.1" y="-13491.4" width="2667.1" height="23572.4"/>
				</defs>
				<clipPath id="SVGID_62_">
					<use xlink:href="#SVGID_61_"  style="overflow:visible;"/>
				</clipPath>
				<rect x="130.5" y="125.8" class="st30" width="32.8" height="42.8"/>
			</g>
		</g>
		<g>
			<defs>
				<path id="SVGID_63_" d="M97.6,48.4c-9.9,0-18,8.1-18,18c0,6.8,3.8,13,9.8,16.1c0.6,0.3,1,0.9,1,1.6v9.4c0,1,0.8,1.8,1.8,1.8H103
					c1,0,1.8-0.8,1.8-1.8v-9.4c0-0.7,0.4-1.3,1-1.6c6.9-3.6,10.8-11.2,9.6-18.9c-1.2-7.8-7.8-14.2-15.7-15
					C99,48.5,98.3,48.4,97.6,48.4z M103,98.9H92.2c-3,0-5.4-2.4-5.4-5.4v-8.3C80.1,81.4,76,74.3,76,66.5c0-11.9,9.7-21.6,21.5-21.6
					c0.8,0,1.7,0,2.5,0.1c9.5,1.1,17.4,8.7,18.8,18.1c1.4,8.9-2.8,17.7-10.5,22.2v8.3C108.4,96.5,105.9,98.9,103,98.9z"/>
			</defs>
			<clipPath id="SVGID_64_">
				<use xlink:href="#SVGID_63_"  style="overflow:visible;"/>
			</clipPath>
			<g class="st31">
				<defs>
					<rect id="SVGID_65_" x="-444.1" y="-13491.4" width="2667.1" height="23572.4"/>
				</defs>
				<clipPath id="SVGID_66_">
					<use xlink:href="#SVGID_65_"  style="overflow:visible;"/>
				</clipPath>
				<rect x="67.7" y="36.5" class="st32" width="59.8" height="70.8"/>
			</g>
		</g>
		<g>
			<defs>
				<path id="SVGID_67_" d="M137.1,111.6c-1,0-1.8-0.8-1.8-1.8v-3.6H59.9v3.6c0,1-0.8,1.8-1.8,1.8c-1,0-1.8-0.8-1.8-1.8v-5.4
					c0-1,0.8-1.8,1.8-1.8h79c1,0,1.8,0.8,1.8,1.8v5.4C138.9,110.8,138.1,111.6,137.1,111.6z"/>
			</defs>
			<clipPath id="SVGID_68_">
				<use xlink:href="#SVGID_67_"  style="overflow:visible;"/>
			</clipPath>
			<g class="st33">
				<defs>
					<rect id="SVGID_69_" x="-444.1" y="-13491.4" width="2667.1" height="23572.4"/>
				</defs>
				<clipPath id="SVGID_70_">
					<use xlink:href="#SVGID_69_"  style="overflow:visible;"/>
				</clipPath>
				<rect x="47.9" y="94.2" class="st34" width="99.3" height="25.7"/>
			</g>
		</g>
		<g>
			<defs>
				<path id="SVGID_71_" d="M97.6,111.6c-1,0-1.8-0.8-1.8-1.8V79.1c0-1,0.8-1.8,1.8-1.8c1,0,1.8,0.8,1.8,1.8v30.7
					C99.4,110.8,98.6,111.6,97.6,111.6z"/>
			</defs>
			<clipPath id="SVGID_72_">
				<use xlink:href="#SVGID_71_"  style="overflow:visible;"/>
			</clipPath>
			<g class="st35">
				<defs>
					<rect id="SVGID_73_" x="-444.1" y="-13491.4" width="2667.1" height="23572.4"/>
				</defs>
				<clipPath id="SVGID_74_">
					<use xlink:href="#SVGID_73_"  style="overflow:visible;"/>
				</clipPath>
				<rect x="87.4" y="69" class="st36" width="20.3" height="50.9"/>
			</g>
		</g>
		<g>
			<defs>
				<path id="SVGID_75_" d="M93.7,70.1l3.8,5.8l3.8-5.8H93.7z M97.6,80.9c-0.6,0-1.2-0.3-1.5-0.8l-7.2-10.8
					c-0.4-0.6-0.4-1.3-0.1-1.9c0.3-0.6,0.9-1,1.6-1h14.4c0.7,0,1.3,0.4,1.6,1c0.3,0.6,0.3,1.3-0.1,1.9l-7.2,10.8
					C98.7,80.6,98.2,80.9,97.6,80.9z"/>
			</defs>
			<clipPath id="SVGID_76_">
				<use xlink:href="#SVGID_75_"  style="overflow:visible;"/>
			</clipPath>
			<g class="st37">
				<defs>
					<rect id="SVGID_77_" x="-444.1" y="-13491.4" width="2667.1" height="23572.4"/>
				</defs>
				<clipPath id="SVGID_78_">
					<use xlink:href="#SVGID_77_"  style="overflow:visible;"/>
				</clipPath>
				<rect x="80.3" y="58.1" class="st38" width="34.6" height="31.1"/>
			</g>
		</g>
		<g>
			<defs>
				<path id="SVGID_79_" d="M70.6,68.3h-7.2c-1,0-1.8-0.8-1.8-1.8s0.8-1.8,1.8-1.8h7.2c1,0,1.8,0.8,1.8,1.8S71.6,68.3,70.6,68.3z"/>
			</defs>
			<clipPath id="SVGID_80_">
				<use xlink:href="#SVGID_79_"  style="overflow:visible;"/>
			</clipPath>
			<g class="st39">
				<defs>
					<rect id="SVGID_81_" x="-444.1" y="-13491.4" width="2667.1" height="23572.4"/>
				</defs>
				<clipPath id="SVGID_82_">
					<use xlink:href="#SVGID_81_"  style="overflow:visible;"/>
				</clipPath>
				<rect x="53.3" y="56.3" class="st40" width="27.4" height="20.3"/>
			</g>
		</g>
		<g>
			<defs>
				<path id="SVGID_83_" d="M70.6,59.3c-0.1,0-0.3,0-0.4-0.1L63,57.4c-1-0.2-1.5-1.2-1.3-2.2c0.2-1,1.2-1.6,2.2-1.3l7.2,1.8
					c1,0.2,1.5,1.2,1.3,2.2C72.2,58.7,71.4,59.3,70.6,59.3z"/>
			</defs>
			<clipPath id="SVGID_84_">
				<use xlink:href="#SVGID_83_"  style="overflow:visible;"/>
			</clipPath>
			<g class="st41">
				<defs>
					<rect id="SVGID_85_" x="-444.1" y="-13491.4" width="2667.1" height="23572.4"/>
				</defs>
				<clipPath id="SVGID_86_">
					<use xlink:href="#SVGID_85_"  style="overflow:visible;"/>
				</clipPath>
				<rect x="53.3" y="45.5" class="st42" width="27.4" height="22.1"/>
			</g>
		</g>
		<g>
			<defs>
				<path id="SVGID_87_" d="M63.5,79.1c-0.8,0-1.5-0.5-1.7-1.4c-0.2-1,0.3-1.9,1.3-2.2l7.2-1.8c1-0.2,1.9,0.3,2.2,1.3
					c0.2,1-0.3,1.9-1.3,2.2L63.9,79C63.7,79.1,63.6,79.1,63.5,79.1z"/>
			</defs>
			<clipPath id="SVGID_88_">
				<use xlink:href="#SVGID_87_"  style="overflow:visible;"/>
			</clipPath>
			<g class="st43">
				<defs>
					<rect id="SVGID_89_" x="-444.1" y="-13491.4" width="2667.1" height="23572.4"/>
				</defs>
				<clipPath id="SVGID_90_">
					<use xlink:href="#SVGID_89_"  style="overflow:visible;"/>
				</clipPath>
				<rect x="53.3" y="65.4" class="st44" width="27.4" height="22.1"/>
			</g>
		</g>
		<g>
			<defs>
				<path id="SVGID_91_" d="M131.7,68.3h-7.2c-1,0-1.8-0.8-1.8-1.8s0.8-1.8,1.8-1.8h7.2c1,0,1.8,0.8,1.8,1.8S132.7,68.3,131.7,68.3z
					"/>
			</defs>
			<clipPath id="SVGID_92_">
				<use xlink:href="#SVGID_91_"  style="overflow:visible;"/>
			</clipPath>
			<g class="st45">
				<defs>
					<rect id="SVGID_93_" x="-444.1" y="-13491.4" width="2667.1" height="23572.4"/>
				</defs>
				<clipPath id="SVGID_94_">
					<use xlink:href="#SVGID_93_"  style="overflow:visible;"/>
				</clipPath>
				<rect x="114.4" y="56.3" class="st46" width="27.4" height="20.3"/>
			</g>
		</g>
		<g>
			<defs>
				<path id="SVGID_95_" d="M124.5,59.3c-0.8,0-1.5-0.5-1.7-1.4c-0.2-1,0.3-1.9,1.3-2.2l7.2-1.8c1-0.2,1.9,0.3,2.2,1.3
					c0.2,1-0.3,1.9-1.3,2.2l-7.2,1.8C124.8,59.2,124.7,59.3,124.5,59.3z"/>
			</defs>
			<clipPath id="SVGID_96_">
				<use xlink:href="#SVGID_95_"  style="overflow:visible;"/>
			</clipPath>
			<g class="st47">
				<defs>
					<rect id="SVGID_97_" x="-444.1" y="-13491.4" width="2667.1" height="23572.4"/>
				</defs>
				<clipPath id="SVGID_98_">
					<use xlink:href="#SVGID_97_"  style="overflow:visible;"/>
				</clipPath>
				<rect x="114.4" y="45.5" class="st48" width="27.4" height="22.1"/>
			</g>
		</g>
		<g>
			<defs>
				<path id="SVGID_99_" d="M131.7,79.1c-0.1,0-0.3,0-0.4-0.1l-7.2-1.8c-1-0.2-1.5-1.2-1.3-2.2c0.2-1,1.2-1.6,2.2-1.3l7.2,1.8
					c1,0.2,1.5,1.2,1.3,2.2C133.2,78.6,132.5,79.1,131.7,79.1z"/>
			</defs>
			<clipPath id="SVGID_100_">
				<use xlink:href="#SVGID_99_"  style="overflow:visible;"/>
			</clipPath>
			<g class="st49">
				<defs>
					<rect id="SVGID_101_" x="-444.1" y="-13491.4" width="2667.1" height="23572.4"/>
				</defs>
				<clipPath id="SVGID_102_">
					<use xlink:href="#SVGID_101_"  style="overflow:visible;"/>
				</clipPath>
				<rect x="114.4" y="65.4" class="st50" width="27.4" height="22.1"/>
			</g>
		</g>
	</g>
</g>
</svg>
