<?xml version="1.0" encoding="utf-8"?>
<!-- Generator: Adobe Illustrator 21.0.0, SVG Export Plug-In . SVG Version: 6.00 Build 0)  -->
<svg version="1.1" id="Layer_1" xmlns="http://www.w3.org/2000/svg" xmlns:xlink="http://www.w3.org/1999/xlink" x="0px" y="0px"
	 viewBox="0 0 193 213.5" style="enable-background:new 0 0 193 213.5;" xml:space="preserve">
<style type="text/css">
	.st0{clip-path:url(#SVGID_2_);fill:none;stroke:#C1C1C1;stroke-miterlimit:10;}
	.st1{clip-path:url(#SVGID_6_);}
	.st2{clip-path:url(#SVGID_8_);fill:#1D1D1D;}
	.st3{clip-path:url(#SVGID_12_);}
	.st4{clip-path:url(#SVGID_14_);fill:#DC425F;}
	.st5{clip-path:url(#SVGID_16_);}
	.st6{clip-path:url(#SVGID_18_);fill:#DC425F;}
	.st7{clip-path:url(#SVGID_20_);}
	.st8{clip-path:url(#SVGID_22_);fill:#DC425F;}
	.st9{clip-path:url(#SVGID_24_);}
	.st10{clip-path:url(#SVGID_26_);fill:#DC425F;}
	.st11{clip-path:url(#SVGID_28_);}
</style>
<g>
	<defs>
		<rect id="SVGID_1_" x="-229.8" y="-4733" width="1600" height="10808"/>
	</defs>
	<clipPath id="SVGID_2_">
		<use xlink:href="#SVGID_1_"  style="overflow:visible;"/>
	</clipPath>
	<path class="st0" d="M1.7,71.2v71.1c0,12,6.4,23.2,16.8,29.2L79.7,207c10.4,6,23.2,6,33.6,0l61.3-35.5c10.4-6,16.8-17.1,16.8-29.2
		V71.2c0-12-6.4-23.2-16.8-29.2L113.3,6.5c-10.4-6-23.2-6-33.6,0L18.4,42C8.1,48,1.7,59.2,1.7,71.2z"/>
</g>
<g>
	<defs>
		<rect id="SVGID_3_" x="-707.2" y="-5262.5" width="1600" height="10808"/>
	</defs>
	<clipPath id="SVGID_4_">
		<use xlink:href="#SVGID_3_"  style="overflow:visible;"/>
	</clipPath>
</g>
<g>
	<defs>
		<path id="SVGID_5_" d="M79.4,156.7h41.2c0.4-10,4.7-20,11.9-27.7c9-9.6,13.3-22.7,11.8-36c-1.4-12.6-8.4-24.4-18.7-31.7
			c-7.2-5.1-16-7.9-24.7-7.9c-4.5,0-8.9,0.7-13.1,2.2c-7.6,2.6-14.3,7.3-19.6,13.7c-2.2,2.7-4.2,6-6,9.8l-13.4,28.6
			c-0.4,0.8-0.1,1.4,0.1,1.7c0.1,0.2,0.6,0.8,1.4,0.8h6.9c0.9,0,1.7,0.8,1.7,1.7v17.2c0,4.8,5.2,8.6,9.7,8.6h3.4
			c4.4,0,7.5,3.5,7.5,8.6V156.7z M122.2,160.1H77.6c-0.9,0-1.7-0.8-1.7-1.7v-12c0-2.5-1.1-5.2-4.1-5.2h-3.4c-6.2,0-13.1-5.2-13.1-12
			v-15.5h-5.2c-1.7,0-3.3-0.9-4.3-2.4c-1-1.5-1.1-3.4-0.3-5L59,77.6c1.9-4.1,4.1-7.6,6.5-10.5c5.6-6.9,12.9-12,21.1-14.8
			c4.5-1.6,9.3-2.4,14.2-2.4c9.4,0,18.9,3,26.7,8.5c11.2,7.9,18.7,20.6,20.2,34.2c1.6,14.3-3.1,28.4-12.7,38.7
			c-7,7.5-11,17.4-11,27.1C123.9,159.4,123.2,160.1,122.2,160.1z"/>
	</defs>
	<clipPath id="SVGID_6_">
		<use xlink:href="#SVGID_5_"  style="overflow:visible;"/>
	</clipPath>
	<g class="st1">
		<defs>
			<rect id="SVGID_7_" x="-707.2" y="-5262.5" width="1600" height="10808"/>
		</defs>
		<clipPath id="SVGID_8_">
			<use xlink:href="#SVGID_7_"  style="overflow:visible;"/>
		</clipPath>
		<rect x="37.1" y="42" class="st2" width="118.8" height="126.1"/>
	</g>
</g>
<g>
	<defs>
		<rect id="SVGID_9_" x="-1110.6" y="-5331.5" width="1600" height="10808"/>
	</defs>
	<clipPath id="SVGID_10_">
		<use xlink:href="#SVGID_9_"  style="overflow:visible;"/>
	</clipPath>
</g>
<g>
	<defs>
		<path id="SVGID_11_" d="M102.1,89.8c-18,0-29,5-29,8.6c0,3.6,11,8.6,29,8.6c18,0,29-5,29-8.6C131.1,94.8,120.1,89.8,102.1,89.8z
			 M102.1,110.3c-15.7,0-32.4-4.2-32.4-12c0-7.8,16.7-12,32.4-12c15.7,0,32.4,4.2,32.4,12C134.6,106.1,117.9,110.3,102.1,110.3z"/>
	</defs>
	<clipPath id="SVGID_12_">
		<use xlink:href="#SVGID_11_"  style="overflow:visible;"/>
	</clipPath>
	<g class="st3">
		<defs>
			<rect id="SVGID_13_" x="-1110.6" y="-5330.5" width="1600" height="10808"/>
		</defs>
		<clipPath id="SVGID_14_">
			<use xlink:href="#SVGID_13_"  style="overflow:visible;"/>
		</clipPath>
		<rect x="61.8" y="78.4" class="st4" width="80.7" height="39.8"/>
	</g>
</g>
<g>
	<defs>
		<path id="SVGID_15_" d="M118.6,70.9c-4.4,0-14.2,8-23.8,22.8c-9.1,14.1-12.2,25.4-11.2,30c0.2,0.9,0.5,1.5,1,1.8
			c0.3,0.2,0.7,0.3,1.1,0.3c4.4,0,14.2-8,23.8-22.8c9.1-14.1,12.2-25.4,11.2-30c-0.2-0.9-0.5-1.5-1-1.8
			C119.4,71,119.1,70.9,118.6,70.9z M85.7,129.2L85.7,129.2c-1.1,0-2.1-0.3-2.9-0.8c-1.3-0.8-2.1-2.1-2.5-4
			c-1.4-6.5,3.3-19.6,11.7-32.6c9.3-14.3,20.2-24.3,26.7-24.3c1.1,0,2.1,0.3,2.9,0.8c1.3,0.8,2.1,2.1,2.5,4
			c1.4,6.5-3.3,19.6-11.7,32.6C103.1,119.2,92.1,129.2,85.7,129.2z"/>
	</defs>
	<clipPath id="SVGID_16_">
		<use xlink:href="#SVGID_15_"  style="overflow:visible;"/>
	</clipPath>
	<g class="st5">
		<defs>
			<rect id="SVGID_17_" x="-1110.6" y="-5330.5" width="1600" height="10808"/>
		</defs>
		<clipPath id="SVGID_18_">
			<use xlink:href="#SVGID_17_"  style="overflow:visible;"/>
		</clipPath>
		<rect x="72.1" y="59.6" class="st6" width="60.2" height="77.5"/>
	</g>
</g>
<g>
	<defs>
		<path id="SVGID_19_" d="M85.7,70.9c-0.5,0-0.8,0.1-1.1,0.3c-0.5,0.3-0.8,0.9-1,1.8c-1,4.5,2.1,15.8,11.2,30
			c9.6,14.8,19.4,22.8,23.8,22.8c0.5,0,0.8-0.1,1.1-0.3c0.5-0.3,0.8-0.9,1-1.8c1-4.5-2.1-15.8-11.2-30
			C99.9,78.9,90.1,70.9,85.7,70.9z M118.6,129.2c-6.4,0-17.4-10-26.7-24.3c-8.4-13-13.1-26.1-11.7-32.6c0.4-1.8,1.2-3.2,2.5-4
			c0.8-0.5,1.8-0.8,2.9-0.8c6.4,0,17.4,10,26.7,24.3c8.4,13,13.1,26.1,11.7,32.6c-0.4,1.8-1.2,3.2-2.5,4
			C120.7,128.9,119.7,129.2,118.6,129.2z"/>
	</defs>
	<clipPath id="SVGID_20_">
		<use xlink:href="#SVGID_19_"  style="overflow:visible;"/>
	</clipPath>
	<g class="st7">
		<defs>
			<rect id="SVGID_21_" x="-1110.6" y="-5330.5" width="1600" height="10808"/>
		</defs>
		<clipPath id="SVGID_22_">
			<use xlink:href="#SVGID_21_"  style="overflow:visible;"/>
		</clipPath>
		<rect x="72.1" y="59.6" class="st8" width="60.2" height="77.5"/>
	</g>
</g>
<g>
	<defs>
		<path id="SVGID_23_" d="M102.1,96.6c-0.9,0-1.7,0.8-1.7,1.7c0,0.9,0.8,1.7,1.7,1.7c0.9,0,1.7-0.8,1.7-1.7
			C103.9,97.4,103.1,96.6,102.1,96.6z M102.1,103.5c-2.8,0-5.1-2.3-5.1-5.1c0-2.8,2.3-5.1,5.1-5.1c2.8,0,5.1,2.3,5.1,5.1
			C107.3,101.2,105,103.5,102.1,103.5z"/>
	</defs>
	<clipPath id="SVGID_24_">
		<use xlink:href="#SVGID_23_"  style="overflow:visible;"/>
	</clipPath>
	<g class="st9">
		<defs>
			<rect id="SVGID_25_" x="-1110.6" y="-5330.5" width="1600" height="10808"/>
		</defs>
		<clipPath id="SVGID_26_">
			<use xlink:href="#SVGID_25_"  style="overflow:visible;"/>
		</clipPath>
		<rect x="89.1" y="85.3" class="st10" width="26.1" height="26.1"/>
	</g>
</g>
<g>
	<defs>
		<path id="SVGID_27_" d="M122.6,161.7H78.3c-0.9,0-1.7-0.8-1.7-1.7v-12c0-2.5-1.1-5.2-4.1-5.2h-3.4c-6.2,0-13-5.1-13-12v-15.4h-5.2
			c-1.7,0-3.3-0.9-4.3-2.4c-1-1.5-1.1-3.4-0.3-5l13.4-28.5c1.9-4.1,4-7.5,6.5-10.5c5.6-6.8,12.9-11.9,21-14.7
			c4.5-1.6,9.3-2.3,14.1-2.3c9.4,0,18.8,3,26.5,8.5c11.1,7.8,18.6,20.5,20.1,34c1.5,14.2-3.1,28.2-12.7,38.5
			c-7,7.5-10.9,17.3-10.9,26.9C124.3,160.9,123.5,161.7,122.6,161.7z"/>
	</defs>
	<clipPath id="SVGID_28_">
		<use xlink:href="#SVGID_27_"  style="overflow:visible;"/>
	</clipPath>
	<g class="st11">
		<defs>
			<rect id="SVGID_29_" x="-1110.6" y="-5330.5" width="1600" height="10808"/>
		</defs>
		<clipPath id="SVGID_30_">
			<use xlink:href="#SVGID_29_"  style="overflow:visible;"/>
		</clipPath>
	</g>
</g>
</svg>
