<?xml version="1.0" encoding="utf-8"?>
<!-- Generator: Adobe Illustrator 21.0.0, SVG Export Plug-In . SVG Version: 6.00 Build 0)  -->
<svg version="1.1" id="Capa_1" xmlns="http://www.w3.org/2000/svg" xmlns:xlink="http://www.w3.org/1999/xlink" x="0px" y="0px"
	 viewBox="0 0 512 512" style="enable-background:new 0 0 512 512;" xml:space="preserve">
<style type="text/css">
	.st0{fill:#171A1C;}
</style>
<g>
	<path class="st0" d="M252.4,226c-4.6,1.3-7.3,6.1-5.9,10.8c0.2,0.8,23.4,83.2,17,266.3c-0.2,4.8,3.6,8.8,8.4,9c0.1,0,0.2,0,0.3,0
		c4.7,0,8.5-3.7,8.7-8.4c6.5-185.8-16.7-268.3-17.7-271.7C261.8,227.3,257,224.7,252.4,226z"/>
	<path class="st0" d="M470.6,143C433.8,56.1,349.1,0,254.8,0c-31.1,0-61.5,6.1-90.2,18.1c-15.9,6.6-31,14.5-44.7,23.5
		c-4,2.6-5.2,8-2.6,12c2.6,4,8,5.2,12,2.6c12.9-8.4,27-15.8,41.9-22C197.9,23,226,17.4,254.8,17.4c87.3,0,165.8,52,199.8,132.4
		c14.1,33.4,21.8,95,25.1,128.8c0.4,4.5,4.2,7.8,8.6,7.8c0.3,0,0.6,0,0.9,0c4.8-0.5,8.3-4.7,7.8-9.5
		C492.8,234.4,484.9,176.8,470.6,143z"/>
	<path class="st0" d="M94.2,84.3c3.4-3.4,3.4-8.9,0.1-12.3c-3.4-3.4-8.9-3.4-12.3-0.1c-46.7,46-93.2,131.5-49.6,277.7
		c1.1,3.8,4.6,6.2,8.3,6.2c0.8,0,1.6-0.1,2.5-0.4c4.6-1.4,7.2-6.2,5.8-10.8C16.5,235.5,32.1,145.4,94.2,84.3z"/>
	<path class="st0" d="M261.5,52.2c-26.6-1-52.4,3.7-76.8,13.9C99.5,101.6,54.3,195.2,79.4,283.8c2.5,8.9,5.1,18.3,6.5,27.7
		c3.1,21.3,3.3,60.4,3.3,122.4c0,4.8,3.9,8.7,8.7,8.7c4.8,0,8.7-3.9,8.7-8.7c0-64.7-0.2-102.4-3.5-124.9
		c-1.5-10.4-4.3-20.5-6.9-29.9c-22.7-80.2,18.2-164.8,95.2-196.9c22.1-9.2,45.6-13.4,69.5-12.6c61.7,2.2,131.7,56.6,152.8,118.8
		c18.3,53.8,18.4,145.4,16.1,228c-0.1,4.8,3.7,8.8,8.4,8.9c4.7-0.1,8.8-3.6,8.9-8.4c2.3-84.1,2.1-177.6-17.1-234
		C406.5,113.2,330.8,54.7,261.5,52.2z"/>
	<path class="st0" d="M254.8,104.1c-9.4,0-18.8,1-27.9,3c-4.7,1-7.6,5.7-6.6,10.3c1,4.7,5.6,7.6,10.3,6.6c7.9-1.7,16-2.6,24.2-2.6
		c45.4,0,86.2,27,103.9,68.9c21.1,49.8,22.5,129.8,17.6,269.3c-0.2,4.8,3.6,8.8,8.4,9c0.1,0,0.2,0,0.3,0c4.7,0,8.5-3.7,8.7-8.4
		c5.1-145.1,3.5-223.5-19-276.6C354.3,135.3,307.2,104.1,254.8,104.1z"/>
	<path class="st0" d="M190.4,141.8c3.9-2.8,4.9-8.2,2.1-12.1c-2.7-3.9-8.2-4.9-12.1-2.1c-44.7,31.4-64.1,91.7-48.3,150.1
		c0.2,0.6,17.8,64.8,17.8,164.9c0,4.8,3.9,8.7,8.7,8.7c4.8,0,8.7-3.9,8.7-8.7c0-102.5-17.7-166.9-18.4-169.5
		C134.9,221.7,151.6,169,190.4,141.8z"/>
	<path class="st0" d="M340.8,416.6c0-4.8-3.8-8.7-8.6-8.7c0,0,0,0-0.1,0c-4.8,0-8.6,3.8-8.7,8.6c0,6.5,0.2,16.1,0.4,26.3
		c0.3,15,0.7,31.9,0.3,42.8c-0.2,4.8,3.6,8.8,8.4,9c0.1,0,0.2,0,0.3,0c4.7,0,8.5-3.7,8.7-8.4c0.4-11.4,0-28.6-0.3-43.8
		C341,432.3,340.8,423,340.8,416.6z"/>
	<path class="st0" d="M254.8,164.9c-9.2,0-18.2,1.8-26.7,5.4c-33.8,14.1-50.2,52.2-38.2,88.6C196.4,278.7,202,382.7,202,486
		c0,4.8,3.9,8.7,8.7,8.7c4.8,0,8.7-3.9,8.7-8.7c0-92.9-4.9-208.2-12.9-232.5c-9.1-27.7,3.1-56.6,28.4-67.2c6.4-2.7,13.1-4,20-4
		c21,0,39.8,12.5,48,31.8c16.2,38.3,21,107.8,22.2,159.3c0.1,4.7,4,8.5,8.7,8.5c0.1,0,0.1,0,0.2,0c4.8-0.1,8.6-4.1,8.5-8.9
		c-1.2-53-6.3-124.7-23.6-165.7C307.9,181.5,282.8,164.9,254.8,164.9z"/>
</g>
</svg>
