<?xml version="1.0" encoding="utf-8"?>
<!-- Generator: Adobe Illustrator 21.0.0, SVG Export Plug-In . SVG Version: 6.00 Build 0)  -->
<svg version="1.1" id="Capa_1" xmlns="http://www.w3.org/2000/svg" xmlns:xlink="http://www.w3.org/1999/xlink" x="0px" y="0px"
	 viewBox="0 0 101.2 101.2" style="enable-background:new 0 0 101.2 101.2;" xml:space="preserve">
<style type="text/css">
	.st0{fill:#434547;}
</style>
<path class="st0" d="M91.3,39.7V27.1l-10.9-6.3L74.1,9.9H61.5L50.6,3.6L39.7,9.9H27.1l-6.3,10.9L9.9,27.1v12.6L3.6,50.6l6.3,10.9
	v12.6l10.9,6.3l6.3,10.9h12.6l10.9,6.3l10.9-6.3h12.6l6.3-10.9l10.9-6.3V61.5l6.3-10.9L91.3,39.7z M9.9,59.6l-5.2-9l5.2-9V59.6z
	 M73.5,10.8l5.2,9l-15.7-9H73.5z M50.6,4.6l9,5.2H41.5L50.6,4.6z M27.6,10.8h10.4l-15.7,9L27.6,10.8z M10.8,27.6l9-5.2l-9,15.7V27.6
	z M10.8,73.5V63.1l9,15.7L10.8,73.5z M27.6,90.4l-5.2-9l15.7,9H27.6z M50.6,96.5l-9-5.2h18.1L50.6,96.5z M73.5,90.4H63.1l15.7-9
	L73.5,90.4z M90.4,73.5l-9,5.2l9-15.7V73.5z M90.4,61.2L79.7,79.7L61.2,90.4H39.9L21.5,79.7L10.8,61.2V39.9l10.7-18.5l18.5-10.7
	h21.3l18.5,10.7l10.7,18.5V61.2z M90.4,38.1l-9-15.7l9,5.2V38.1z M91.3,41.5l5.2,9l-5.2,9V41.5z"/>
</svg>
