<?xml version="1.0" encoding="utf-8"?>
<!-- Generator: Adobe Illustrator 21.0.0, SVG Export Plug-In . SVG Version: 6.00 Build 0)  -->
<svg version="1.1" id="Capa_1" xmlns="http://www.w3.org/2000/svg" xmlns:xlink="http://www.w3.org/1999/xlink" x="0px" y="0px"
	 viewBox="0 0 64 64" style="enable-background:new 0 0 64 64;" xml:space="preserve">
<style type="text/css">
	.st0{fill:#FFFFFF;}
</style>
<g>
	<path class="st0" d="M33.4,20.4c-4.3,0-6.7,3.7-6.7,9.4h13.1C39.8,24.1,37.7,20.4,33.4,20.4z"/>
	<path class="st0" d="M53.5,12.6c-7.4-7.4-11.6-5.6-12.2-5.2c0,0-0.1,0-0.1,0.1l-9.3,5.6c-0.6,0.4-1.3,0.4-1.8-0.3
		c-0.5-0.7-0.3-1.3,0.3-2l5.2-5.5v0l0.2-0.2c0.3-0.4,0.7-1.3-2.1-1.5c-0.2,0-0.5,0-0.7,0C17.4,3.8,4.7,16.4,4.7,32
		c0,15.6,12.6,28.2,28.3,28.2S61.2,47.6,61.2,32C61.2,24.5,58.3,17.7,53.5,12.6z M43,33.1H26.7c0,5.6,3.2,10,8.5,10
		c3.9,0,6.2-2.3,7.7-4.1l2.4,2.5c-1.6,2.1-4.7,5.3-11.1,5.3c-8.1,0-14.7-6.2-14.7-14.9c0-9.3,6.8-14.7,13.9-14.7
		c6.9,0,13.2,5.1,13.2,11.9C46.5,31.5,45.3,33.1,43,33.1z"/>
</g>
</svg>
