<?xml version="1.0" encoding="utf-8"?>
<!-- Generator: Adobe Illustrator 21.0.0, SVG Export Plug-In . SVG Version: 6.00 Build 0)  -->
<svg version="1.1" id="Capa_1" xmlns="http://www.w3.org/2000/svg" xmlns:xlink="http://www.w3.org/1999/xlink" x="0px" y="0px"
	 viewBox="0 0 1024 1024" style="enable-background:new 0 0 1024 1024;" xml:space="preserve">
<style type="text/css">
	.st0{fill:#FFFFFF;}
</style>
<g>
	<path class="st0" d="M537,155.5c-16.9,11.1-35.5,19.6-55.2,24.4c-16.9,4-34.2,5.3-44-1.4c-17.9-12.1,15.7-44,15.7-44
		c7-8.3,39.2-34.9,57.6-60.3c5.3-7.3,9.8-13.9,13.9-20.1c4.6-7.4,29.4-52-48.2-48.5C213.2,23.8,5,243.3,5,511.5
		c0,279.7,227.5,507.1,507.2,507c279.9-0.1,506.8-227.1,506.8-507c0-196.6-111.9-367-275.5-451.1c-1-0.5-1.9-1-3-1.5
		c-2.8-1.4-5.6-2.8-8.4-4.1c-36.1-16.2-62.1-2.4-78.6,11.5C595.6,115,557.6,142,537,155.5z M760.1,667.1
		C720,742,653.7,792.3,545,792.3c-178,0-287.9-130.8-287.9-286.1c0-199,128.8-275.5,255.2-275.5c141.9,0,220.8,126.4,220.8,207.3
		c0,6.1-1.9,10.5-8.8,13.5L412.8,587.6c24.5,59.4,77.8,115.5,161.3,115.5c45.3,0,98.9-25,136.5-79.3c2.3-3.4,6.6-4.7,9.2-4.7
		c6.5,0,8.4,0.9,42.6,20.9c3.3,2,4.5,4.8,4.5,8.3C766.9,654.1,763.2,661.3,760.1,667.1z"/>
	<path class="st0" d="M486.1,315.7c-59,0-96.3,53.3-96.3,122.9c0,21.1,1.4,56.5,10,81.9l172.5-86.9
		C572.4,365.4,535.5,315.7,486.1,315.7z"/>
</g>
</svg>
