<?xml version="1.0" encoding="utf-8"?>
<!-- Generator: Adobe Illustrator 21.0.0, SVG Export Plug-In . SVG Version: 6.00 Build 0)  -->
<svg version="1.1" id="Capa_1" xmlns="http://www.w3.org/2000/svg" xmlns:xlink="http://www.w3.org/1999/xlink" x="0px" y="0px"
	 viewBox="0 0 1024 1024" style="enable-background:new 0 0 1024 1024;" xml:space="preserve">
<style type="text/css">
	.st0{fill:#FFFFFF;}
</style>
<g>
	<g>
		<path class="st0" d="M55.1,575c7.9,19.1,25,37.2,51.9,37.2c14.6,0,31.9-8,43.9-25.5c0.7-1.1,2.1-1.5,3-1.5c2.1,0,2.7,0.3,13.7,6.7
			c1.1,0.6,1.5,1.6,1.5,2.7c0,1.9-1.2,4.2-2.2,6c-12.9,24.1-34.3,40.3-69.3,40.3C40.4,640.9,5,598.8,5,548.8
			c0-64.1,41.5-88.7,82.2-88.7c45.7,0,71.1,40.7,71.1,66.7c0,2-0.6,3.4-2.8,4.3L55.1,575z M106.5,525.4c0-22-11.9-38-27.8-38
			c-19,0-31,17.2-31,39.6c0,6.8,0.4,18.2,3.2,26.4L106.5,525.4z"/>
		<path class="st0" d="M299.2,611.8c0.7,1,1,2.1,1,3c0,1.6-0.9,2.9-2.7,4l-10.4,6.5c-12.3,7.7-31.3,15.7-48.4,15.7
			c-21.4,0-40.1-12.4-40.1-53.1v-64c0-18.5,0-43-25.1-43c-3.4,0-5.2-1.8-5.2-5.2v-10.4c0-3.4,1.8-5.2,5.2-5.2h25.1v-19.4
			c0-2.8,0.7-5,3.1-6.3c10-5.5,28.3-16.4,42.4-28.5c0.5-0.4,1-0.8,1.5-0.8h0.5c0.4,0,0.8,0,0.9,0.6v54.4h46.2c3.4,0,5.2,1.8,5.2,5.2
			v14.8c0,3.4-1.8,5.2-5.2,5.2h-46.1V588c0,17.9,6.3,23.4,14.3,23.4c7.9,0,17.5-5.4,24.6-9.8l0.4-0.3c1.1-0.7,2.1-1,3.1-1
			c1.6,0,3,0.9,4.1,2.7L299.2,611.8z"/>
		<path class="st0" d="M361.6,575c7.9,19.1,25,37.2,51.9,37.2c14.6,0,31.9-8,43.9-25.5c0.7-1.1,2.1-1.5,3-1.5
			c2.1,0,2.7,0.3,13.7,6.7c1.1,0.6,1.5,1.6,1.5,2.7c0,1.9-1.2,4.2-2.2,6c-12.9,24.1-34.3,40.3-69.3,40.3
			c-57.3,0-92.7-42.1-92.7-92.1c0-64.1,41.5-88.7,82.2-88.7c45.7,0,71.1,40.7,71.1,66.7c0,2-0.6,3.4-2.8,4.3L361.6,575z M413,525.4
			c0-22-11.9-38-27.8-38c-19,0-31,17.2-31,39.6c0,6.8,0.4,18.2,3.2,26.4L413,525.4z"/>
		<path class="st0" d="M715.7,575c7.9,19.1,25,37.2,51.9,37.2c14.3,0,31.1-7.7,43.1-24.4c0.3-0.4,0.5-0.8,0.8-1.1
			c0.7-1.1,2.1-1.5,3-1.5c2.1,0,2.7,0.3,13.7,6.7c1.1,0.6,1.5,1.6,1.5,2.7c0,1.9-1.2,4.2-2.2,6c-12.9,24.1-34.3,40.3-69.3,40.3
			c-57.3,0-92.7-42.1-92.7-92.1c0-64.1,41.5-88.7,82.2-88.7c45.7,0,71.1,40.7,71.1,66.7c0,2-0.6,3.4-2.8,4.3L715.7,575z
			 M767.1,525.4c0-22-11.9-38-27.8-38c-19,0-31,17.2-31,39.6c0,6.8,0.4,18.2,3.2,26.4L767.1,525.4z"/>
		<path class="st0" d="M928.2,459.7c34.3,0,67.5,20.4,82.7,54.6c5.5,12.4,8.1,25.2,8.1,37.9c0,34.3-19.2,66.7-51.8,81.2
			c-11.4,5.1-23.3,7.5-35,7.5c-34.3,0-67.5-20.5-82.7-54.7c-5.4-12.3-8-25.2-8-37.8c0-34.3,19-66.7,51.6-81.3
			C904.6,462.1,916.4,459.7,928.2,459.7z M882.7,526.9c0,12.8,3.8,27.1,9.7,40.3c10.9,24.5,29.4,46.1,50.7,46.1
			c4.5,0,9.1-1,13.8-3.1c15-6.7,20.8-20.4,20.8-36.4c0-12.8-3.8-27.1-9.7-40.3c-10.9-24.5-29.4-46.1-50.7-46.1
			c-4.5,0-9.1,1-13.8,3.1C888.6,497.1,882.7,510.9,882.7,526.9z"/>
		<path class="st0" d="M562.2,496.9c6.6-22.6,31.2-36.6,55.7-36.6c21.6,0,39,12,39,35.6c0,10.4-0.7,18.5-9.1,22l-32.3,13.3
			c-1.2,0.5-2.2,0.7-3.1,0.7c-2.1,0-3.2-1.4-3.2-3.3c0-0.9,0.2-1.9,0.7-3c2.7-6.6,3.1-12.6,3.1-17.3c0-12.5-6.8-17.9-16.3-17.9
			c-15.8,0-29.5,17.3-34.7,29.9v67.1c0,18.8,8.5,32.9,25.4,32.9h0.6c3.4,0,5.2,1.8,5.2,5.2v10.4c0,3.4-1.8,5.2-5.2,5.2H487.7
			c-3.4,0-5.2-1.8-5.2-5.2v-10.4c0-3.4,1.8-5.2,5.2-5.2h0.8c16.9,0,25.1-14.1,25.1-32.9v-43.4c0-18.5-1.3-41.1-20.4-43.2
			c-3.4-0.4-4.2-2.1-4-4.5v-11.7c0-2.9,1.6-4,5-4.6c32.3-7.1,42.3-11.2,62.2-18.2c0.5-0.4,4-1.5,4.5-1.5l0.8,0
			c0.4,0,0.5,0.1,0.5,0.6L562.2,496.9z"/>
		<path class="st0" d="M374.7,429.1c0,0-10.8,10.3-5.1,14.2c5.8,3.9,20.4,1,26.7-1.9c6.4-3,19.1-8.1,33-22.4
			c13.7-14.1,10.3-26.2,3.1-31.4c-7.2-5.2-21.4-6.7-25-1c-2.1,3.3-5,10.7-14.1,23.2C387.3,417.8,377,426.4,374.7,429.1z"/>
	</g>
</g>
</svg>
