<?xml version="1.0" encoding="utf-8"?>
<!-- Generator: Adobe Illustrator 21.0.0, SVG Export Plug-In . SVG Version: 6.00 Build 0)  -->
<svg version="1.1" id="Capa_1" xmlns="http://www.w3.org/2000/svg" xmlns:xlink="http://www.w3.org/1999/xlink" x="0px" y="0px"
	 viewBox="0 0 250 250" style="enable-background:new 0 0 250 250;" xml:space="preserve">
<style type="text/css">
	.st0{fill:#FFFFFF;}
</style>
<g>
	<path class="st0" d="M58.2,66.6L38.5,44.8l8.9-8c2.6-2.3,5.1-3.5,7.6-3.5c2.5,0,4.7,1.1,6.7,3.2c1.9,2.1,2.8,4.5,2.5,6.9
		c-0.2,2.5-1.6,4.9-4.2,7.2l-4.6,4.1l7.2,7.9L58.2,66.6z M51.8,50.7l4.5-4c2.4-2.2,2.7-4.2,1-6.2c-1.8-1.9-3.8-1.8-6.2,0.3l-4.5,4
		L51.8,50.7z"/>
	<path class="st0" d="M95.6,41.3l-6.3-28.7l21.3-4.7l1.2,5.3l-15.6,3.4l1.4,6.3l14.8-3.3l1.2,5.3l-14.8,3.3l1.4,6.6l15.7-3.5
		l1.2,5.3L95.6,41.3z"/>
	<path class="st0" d="M143.3,30.8c-0.5-2.6-0.2-5.3,0.7-8s2.4-5,4.4-6.8c2-1.8,4.3-2.9,7-3.4c2.7-0.5,5.4-0.2,8.2,0.8
		c2.8,1,5.1,2.5,6.9,4.5c1.8,2,2.9,4.3,3.4,6.9c0.5,2.6,0.2,5.3-0.7,8c-0.9,2.7-2.4,5-4.4,6.8c-2,1.8-4.3,2.9-7,3.3
		c-2.7,0.5-5.4,0.2-8.2-0.8c-2.8-1-5.1-2.5-6.9-4.5C144.9,35.8,143.8,33.5,143.3,30.8z M154.6,19.1c-2.2,1.1-3.8,3-4.8,5.7
		c-0.9,2.7-0.9,5.2,0.2,7.4s2.9,3.8,5.5,4.7c2.6,0.9,5,0.8,7.2-0.3s3.8-3,4.7-5.7c0.9-2.7,0.9-5.2-0.2-7.4c-1.1-2.3-2.9-3.8-5.5-4.7
		C159.2,17.9,156.8,18,154.6,19.1z"/>
	<path class="st0" d="M186.5,61.1l22.7-18.6l7.6,9.3c2.2,2.7,3.2,5.2,3.1,7.7c-0.1,2.5-1.3,4.7-3.5,6.5c-2.2,1.8-4.6,2.6-7.1,2.2
		c-2.5-0.4-4.8-1.9-7-4.5l-3.9-4.8l-8.3,6.8L186.5,61.1z M202.7,55.4l3.8,4.6c2.1,2.5,4.1,2.9,6.1,1.2c2-1.7,2-3.7,0-6.3l-3.8-4.6
		L202.7,55.4z"/>
	<path class="st0" d="M209.9,99.7l28.9-5.3l1.1,5.8l-23.5,4.3l2.8,15.3l-5.4,1L209.9,99.7z"/>
	<path class="st0" d="M212,142.7l27.9,9.3l-6.9,20.7l-5.1-1.7l5-15.1l-6.1-2l-4.8,14.4l-5.1-1.7l4.8-14.4l-6.4-2.1l-5.1,15.3
		l-5.1-1.7L212,142.7z"/>
	<path class="st0" d="M169.1,202l11.6,27l-19.8,8.5l-2.1-5l14.4-6.2l-2.6-6.1L157,226l-2.1-5l13.5-5.8l-4.7-10.9L169.1,202z"/>
	<path class="st0" d="M125.7,213.1l-0.7,29.4l-5.9-0.1l0.7-29.4L125.7,213.1z"/>
	<path class="st0" d="M95.4,208.7L82.2,235l-11.1-5.6c-3.1-1.6-5.1-3.4-6.1-5.7s-0.8-4.6,0.5-7.1c1.1-2.2,2.7-3.6,4.8-4.2
		c2.1-0.7,4.5-0.5,7.1,0.5l-2.8-14.6l6.3,3.2l2.4,14.3l1.5,0.8l5.2-10.5L95.4,208.7z M82.6,221.1l-5.8-2.9c-2.9-1.4-4.9-1.1-6,1.1
		c-1.1,2.1-0.1,3.9,2.7,5.3l5.8,2.9L82.6,221.1z"/>
	<path class="st0" d="M55.6,185.7l-5.6,0.1c0.1-1.5,0-3.1-0.4-4.8c-0.4-1.7-1.1-3.3-2.1-4.8c-0.9-1.4-2-2.4-3.1-2.9
		c-1.1-0.6-2.1-0.5-3.1,0.1c-0.8,0.5-1.1,1.3-1,2.4c0.1,1.1,0.7,2.6,1.6,4.7l0.8,1.7c0.6,1.2,1,2.4,1.2,3.5c0.2,1.1,0.3,2.2,0.2,3.2
		s-0.4,2-1,2.9c-0.6,0.9-1.4,1.7-2.5,2.4c-1.6,1.1-3.4,1.6-5.2,1.5c-1.8-0.1-3.5-0.7-5-1.8c-1.5-1.1-2.9-2.5-4.1-4.3
		c-1.2-1.7-2-3.5-2.6-5.2c-0.6-1.8-0.9-3.7-1-5.8l5.5-0.4c0.1,3.2,1,6,2.5,8.3c0.9,1.4,1.9,2.3,3,2.9s2.1,0.5,3-0.1
		c0.3-0.2,0.6-0.5,0.8-0.9c0.2-0.4,0.3-0.7,0.3-1.1c0-0.4-0.1-0.9-0.2-1.4c-0.1-0.6-0.3-1.1-0.6-1.6s-0.5-1.1-0.8-1.8l-0.7-1.5
		c-2.6-5.8-2-9.9,1.7-12.4c1.3-0.9,2.6-1.4,4-1.5c1.4-0.1,2.7,0,4,0.6c1.3,0.5,2.5,1.3,3.6,2.2c1.1,1,2.1,2.1,3,3.5
		c1.3,1.9,2.2,4,2.9,6.2C55.5,181.6,55.7,183.7,55.6,185.7z"/>
	<path class="st0" d="M14.3,146l-5.5,0.4l-1.9-24l5.5-0.4l0.7,9.1l23.8-1.9l0.5,5.8L13.6,137L14.3,146z"/>
</g>
</svg>
