<?xml version="1.0" encoding="utf-8"?>
<!-- Generator: Adobe Illustrator 21.0.0, SVG Export Plug-In . SVG Version: 6.00 Build 0)  -->
<svg version="1.1" id="Capa_1" xmlns="http://www.w3.org/2000/svg" xmlns:xlink="http://www.w3.org/1999/xlink" x="0px" y="0px"
	 viewBox="0 0 193 213.5" style="enable-background:new 0 0 193 213.5;" xml:space="preserve">
<style type="text/css">
	.st0{clip-path:url(#SVGID_2_);fill:none;stroke:#C1C1C1;stroke-miterlimit:10;}
	.st1{fill:none;}
	.st2{clip-path:url(#SVGID_4_);}
	.st3{clip-path:url(#SVGID_6_);fill:#1D1D1D;}
	.st4{clip-path:url(#SVGID_8_);}
	.st5{clip-path:url(#SVGID_10_);fill:#1D1D1D;}
	.st6{clip-path:url(#SVGID_12_);}
	.st7{clip-path:url(#SVGID_14_);fill:#1D1D1D;}
	.st8{clip-path:url(#SVGID_16_);}
	.st9{clip-path:url(#SVGID_18_);fill:#DC425F;}
	.st10{clip-path:url(#SVGID_20_);}
	.st11{clip-path:url(#SVGID_22_);fill:#DC425F;}
	.st12{clip-path:url(#SVGID_24_);}
	.st13{clip-path:url(#SVGID_26_);fill:#DC425F;}
	.st14{clip-path:url(#SVGID_28_);}
	.st15{clip-path:url(#SVGID_30_);fill:#DC425F;}
	.st16{clip-path:url(#SVGID_32_);}
	.st17{clip-path:url(#SVGID_34_);fill:#DC425F;}
	.st18{clip-path:url(#SVGID_36_);}
	.st19{clip-path:url(#SVGID_38_);fill:#DC425F;}
	.st20{clip-path:url(#SVGID_40_);}
	.st21{clip-path:url(#SVGID_42_);fill:#DC425F;}
	.st22{clip-path:url(#SVGID_44_);}
	.st23{clip-path:url(#SVGID_46_);fill:#DC425F;}
	.st24{clip-path:url(#SVGID_48_);}
	.st25{clip-path:url(#SVGID_50_);fill:#DC425F;}
	.st26{clip-path:url(#SVGID_52_);}
	.st27{clip-path:url(#SVGID_54_);fill:#DC425F;}
	.st28{clip-path:url(#SVGID_56_);}
	.st29{clip-path:url(#SVGID_58_);fill:#DC425F;}
	.st30{clip-path:url(#SVGID_60_);}
	.st31{clip-path:url(#SVGID_62_);fill:#DC425F;}
	.st32{clip-path:url(#SVGID_64_);}
	.st33{clip-path:url(#SVGID_66_);fill:#DC425F;}
</style>
<g id="Layer_1">
	<g>
		<g>
			<g>
				<g>
					<g>
						<defs>
							<rect id="SVGID_1_" x="-229.8" y="-4733" width="1600" height="10808"/>
						</defs>
						<clipPath id="SVGID_2_">
							<use xlink:href="#SVGID_1_"  style="overflow:visible;"/>
						</clipPath>
						<path class="st0" d="M1.7,71.2v71.1c0,12,6.4,23.2,16.8,29.2L79.7,207c10.4,6,23.2,6,33.6,0l61.3-35.5
							c10.4-6,16.8-17.1,16.8-29.2V71.2c0-12-6.4-23.2-16.8-29.2L113.3,6.5c-10.4-6-23.2-6-33.6,0L18.4,42C8.1,48,1.7,59.2,1.7,71.2
							z"/>
					</g>
				</g>
			</g>
		</g>
	</g>
</g>
<rect x="-444.1" y="-13491.4" class="st1" width="2667.1" height="23572.4"/>
<rect x="-397.8" y="-12887.8" class="st1" width="2438.1" height="21548.1"/>
<g>
	<g>
		<defs>
			<path id="SVGID_3_" d="M149.2,160H94.8c-0.9,0-1.7-0.8-1.7-1.7v-18.9c0-0.7,0.4-1.2,0.9-1.5c0.6-0.3,1.3-0.2,1.8,0.2
				c1.2,0.9,2.6,1.4,4.1,1.4c3.7,0,6.8-3.1,6.8-6.9s-3-6.9-6.8-6.9c-1.5,0-2.9,0.5-4.1,1.4c-0.5,0.4-1.2,0.5-1.8,0.2
				c-0.6-0.3-0.9-0.9-0.9-1.5v-18.9c0-0.9,0.8-1.7,1.7-1.7h20.4c0.9,0,1.7,0.8,1.7,1.7c0,0.9-0.8,1.7-1.7,1.7H96.5v14.3
				c1.1-0.4,2.2-0.6,3.4-0.6c5.6,0,10.2,4.6,10.2,10.3s-4.6,10.3-10.2,10.3c-1.2,0-2.3-0.2-3.4-0.6v14.3h51v-14.3
				c-1.1,0.4-2.2,0.6-3.4,0.6c-5.6,0-10.2-4.6-10.2-10.3s4.6-10.3,10.2-10.3c1.2,0,2.3,0.2,3.4,0.6v-14.3h-18.7
				c-0.9,0-1.7-0.8-1.7-1.7c0-0.9,0.8-1.7,1.7-1.7h20.4c0.9,0,1.7,0.8,1.7,1.7v18.9c0,0.7-0.4,1.2-0.9,1.5c-0.6,0.3-1.3,0.2-1.8-0.2
				c-1.2-0.9-2.6-1.4-4.1-1.4c-3.7,0-6.8,3.1-6.8,6.9s3,6.9,6.8,6.9c1.5,0,2.9-0.5,4.1-1.4c0.5-0.4,1.2-0.5,1.8-0.2
				c0.6,0.3,0.9,0.9,0.9,1.5v18.9C150.9,159.2,150.1,160,149.2,160z"/>
		</defs>
		<clipPath id="SVGID_4_">
			<use xlink:href="#SVGID_3_"  style="overflow:visible;"/>
		</clipPath>
		<g class="st2">
			<defs>
				<rect id="SVGID_5_" x="-1050.9" y="-13398.3" width="2533.2" height="22389"/>
			</defs>
			<clipPath id="SVGID_6_">
				<use xlink:href="#SVGID_5_"  style="overflow:visible;"/>
			</clipPath>
			<rect x="85.2" y="97.1" class="st3" width="73.6" height="70.8"/>
		</g>
	</g>
	<g>
		<defs>
			<path id="SVGID_7_" d="M131.6,105h15.9V56.9h-15.9c0.4,1.1,0.6,2.2,0.6,3.4c0,5.7-4.6,10.3-10.2,10.3c-5.6,0-10.2-4.6-10.2-10.3
				c0-1.2,0.2-2.3,0.6-3.4H96.5v17.2c0,0.7-0.4,1.2-0.9,1.5c-0.6,0.3-1.3,0.2-1.8-0.2c-1.2-0.9-2.6-1.4-4.1-1.4
				c-3.7,0-6.8,3.1-6.8,6.9s3,6.9,6.8,6.9c1.5,0,2.9-0.5,4.1-1.4c0.5-0.4,1.2-0.5,1.8-0.2c0.6,0.3,0.9,0.9,0.9,1.5V105h15.9
				c-0.4-1.1-0.6-2.2-0.6-3.4c0-5.7,4.6-10.3,10.2-10.3c5.6,0,10.2,4.6,10.2,10.3C132.2,102.8,132,103.9,131.6,105z M149.2,108.5
				h-20.4c-0.6,0-1.2-0.4-1.5-1c-0.3-0.6-0.2-1.3,0.2-1.8c0.9-1.2,1.4-2.6,1.4-4.1c0-3.8-3-6.9-6.8-6.9s-6.8,3.1-6.8,6.9
				c0,1.4,0.4,2.8,1.2,3.9c0.3,0.3,0.5,0.8,0.5,1.2c0,0.9-0.8,1.7-1.7,1.7c0,0,0,0,0,0H94.8c-0.9,0-1.7-0.8-1.7-1.7v-16
				c-1.1,0.4-2.2,0.6-3.4,0.6c-5.6,0-10.2-4.6-10.2-10.3c0-5.7,4.6-10.3,10.2-10.3c1.2,0,2.3,0.2,3.4,0.6v-16c0-0.9,0.8-1.7,1.7-1.7
				h20.4c0.6,0,1.2,0.4,1.5,1c0.3,0.6,0.2,1.3-0.2,1.8c-0.9,1.2-1.4,2.6-1.4,4.1c0,3.8,3,6.9,6.8,6.9s6.8-3.1,6.8-6.9
				c0-1.5-0.5-2.9-1.4-4.1c-0.4-0.5-0.5-1.2-0.2-1.8c0.3-0.6,0.9-1,1.5-1h20.4c0.9,0,1.7,0.8,1.7,1.7v51.5
				C150.9,107.7,150.1,108.5,149.2,108.5z"/>
		</defs>
		<clipPath id="SVGID_8_">
			<use xlink:href="#SVGID_7_"  style="overflow:visible;"/>
		</clipPath>
		<g class="st4">
			<defs>
				<rect id="SVGID_9_" x="-1050.9" y="-13398.3" width="2533.2" height="22389"/>
			</defs>
			<clipPath id="SVGID_10_">
				<use xlink:href="#SVGID_9_"  style="overflow:visible;"/>
			</clipPath>
			<rect x="71.6" y="45.6" class="st5" width="87.2" height="70.8"/>
		</g>
	</g>
	<g>
		<defs>
			<path id="SVGID_11_" d="M94.8,160h-17c-0.6,0-1.2-0.4-1.5-1c-0.3-0.6-0.2-1.3,0.2-1.8c0.9-1.2,1.4-2.6,1.4-4.1
				c0-3.8-3-6.9-6.8-6.9c-3.7,0-6.8,3.1-6.8,6.9c0,1.5,0.5,2.9,1.4,4.1c0.4,0.5,0.5,1.2,0.2,1.8c-0.3,0.6-0.9,1-1.5,1H43.8
				c-0.9,0-1.7-0.8-1.7-1.7v-51.5c0-0.9,0.8-1.7,1.7-1.7h20.4c0.6,0,1.2,0.4,1.5,1c0.3,0.6,0.2,1.3-0.2,1.8
				c-0.9,1.2-1.4,2.6-1.4,4.1c0,3.8,3,6.9,6.8,6.9c3.7,0,6.8-3.1,6.8-6.9c0-1.5-0.5-2.9-1.4-4.1c-0.4-0.5-0.5-1.2-0.2-1.8
				c0.3-0.6,0.9-1,1.5-1h17c0.9,0,1.7,0.8,1.7,1.7c0,0.9-0.8,1.7-1.7,1.7H80.6c0.4,1.1,0.6,2.2,0.6,3.4c0,5.7-4.6,10.3-10.2,10.3
				c-5.6,0-10.2-4.6-10.2-10.3c0-1.2,0.2-2.3,0.6-3.4H45.5v48.1h15.9c-0.4-1.1-0.6-2.2-0.6-3.4c0-5.7,4.6-10.3,10.2-10.3
				c5.6,0,10.2,4.6,10.2,10.3c0,1.2-0.2,2.3-0.6,3.4h14.2c0.9,0,1.7,0.8,1.7,1.7S95.7,160,94.8,160z"/>
		</defs>
		<clipPath id="SVGID_12_">
			<use xlink:href="#SVGID_11_"  style="overflow:visible;"/>
		</clipPath>
		<g class="st6">
			<defs>
				<rect id="SVGID_13_" x="-1050.9" y="-13398.3" width="2533.2" height="22389"/>
			</defs>
			<clipPath id="SVGID_14_">
				<use xlink:href="#SVGID_13_"  style="overflow:visible;"/>
			</clipPath>
			<rect x="34.2" y="97.1" class="st7" width="70.2" height="70.8"/>
		</g>
	</g>
	<g>
		<defs>
			<path id="SVGID_15_" d="M84.6,56.9c-0.5,0-0.9-0.2-1.2-0.5c-0.3-0.3-0.5-0.8-0.5-1.2c0-0.5,0.2-0.9,0.5-1.2
				c0.6-0.6,1.8-0.6,2.4,0c0.3,0.3,0.5,0.8,0.5,1.2c0,0.4-0.2,0.9-0.5,1.2C85.5,56.7,85.1,56.9,84.6,56.9z"/>
		</defs>
		<clipPath id="SVGID_16_">
			<use xlink:href="#SVGID_15_"  style="overflow:visible;"/>
		</clipPath>
		<g class="st8">
			<defs>
				<rect id="SVGID_17_" x="-1050.9" y="-13398.3" width="2533.2" height="22389"/>
			</defs>
			<clipPath id="SVGID_18_">
				<use xlink:href="#SVGID_17_"  style="overflow:visible;"/>
			</clipPath>
			<rect x="75" y="45.6" class="st9" width="19.2" height="19.2"/>
		</g>
	</g>
	<g>
		<defs>
			<path id="SVGID_19_" d="M43.8,56.9c-0.4,0-0.9-0.2-1.2-0.5c-0.3-0.3-0.5-0.8-0.5-1.2c0-0.5,0.2-0.9,0.5-1.2
				c0.6-0.6,1.8-0.6,2.4,0c0.3,0.3,0.5,0.8,0.5,1.2c0,0.4-0.2,0.9-0.5,1.2C44.7,56.7,44.3,56.9,43.8,56.9z"/>
		</defs>
		<clipPath id="SVGID_20_">
			<use xlink:href="#SVGID_19_"  style="overflow:visible;"/>
		</clipPath>
		<g class="st10">
			<defs>
				<rect id="SVGID_21_" x="-1050.9" y="-13398.3" width="2533.2" height="22389"/>
			</defs>
			<clipPath id="SVGID_22_">
				<use xlink:href="#SVGID_21_"  style="overflow:visible;"/>
			</clipPath>
			<rect x="34.2" y="45.6" class="st11" width="19.2" height="19.2"/>
		</g>
	</g>
	<g>
		<defs>
			<path id="SVGID_23_" d="M43.8,63.8c-0.4,0-0.9-0.2-1.2-0.5c-0.3-0.3-0.5-0.8-0.5-1.2s0.2-0.9,0.5-1.2c0.6-0.6,1.8-0.6,2.4,0
				c0.3,0.3,0.5,0.8,0.5,1.2S45.4,63,45,63.3C44.7,63.6,44.3,63.8,43.8,63.8z"/>
		</defs>
		<clipPath id="SVGID_24_">
			<use xlink:href="#SVGID_23_"  style="overflow:visible;"/>
		</clipPath>
		<g class="st12">
			<defs>
				<rect id="SVGID_25_" x="-1050.9" y="-13398.3" width="2533.2" height="22389"/>
			</defs>
			<clipPath id="SVGID_26_">
				<use xlink:href="#SVGID_25_"  style="overflow:visible;"/>
			</clipPath>
			<rect x="34.2" y="52.5" class="st13" width="19.2" height="19.2"/>
		</g>
	</g>
	<g>
		<defs>
			<path id="SVGID_27_" d="M43.8,70.7c-0.4,0-0.9-0.2-1.2-0.5c-0.3-0.3-0.5-0.8-0.5-1.2c0-0.5,0.2-0.9,0.5-1.2
				c0.6-0.6,1.8-0.6,2.4,0c0.3,0.3,0.5,0.8,0.5,1.2s-0.2,0.9-0.5,1.2C44.7,70.5,44.3,70.7,43.8,70.7z"/>
		</defs>
		<clipPath id="SVGID_28_">
			<use xlink:href="#SVGID_27_"  style="overflow:visible;"/>
		</clipPath>
		<g class="st14">
			<defs>
				<rect id="SVGID_29_" x="-1050.9" y="-13398.3" width="2533.2" height="22389"/>
			</defs>
			<clipPath id="SVGID_30_">
				<use xlink:href="#SVGID_29_"  style="overflow:visible;"/>
			</clipPath>
			<rect x="34.2" y="59.3" class="st15" width="19.2" height="19.2"/>
		</g>
	</g>
	<g>
		<defs>
			<path id="SVGID_31_" d="M43.8,77.5c-0.4,0-0.9-0.2-1.2-0.5c-0.3-0.3-0.5-0.8-0.5-1.2c0-0.5,0.2-0.9,0.5-1.2
				c0.6-0.6,1.8-0.6,2.4,0c0.3,0.3,0.5,0.8,0.5,1.2s-0.2,0.9-0.5,1.2C44.7,77.4,44.3,77.5,43.8,77.5z"/>
		</defs>
		<clipPath id="SVGID_32_">
			<use xlink:href="#SVGID_31_"  style="overflow:visible;"/>
		</clipPath>
		<g class="st16">
			<defs>
				<rect id="SVGID_33_" x="-1050.9" y="-13398.3" width="2533.2" height="22389"/>
			</defs>
			<clipPath id="SVGID_34_">
				<use xlink:href="#SVGID_33_"  style="overflow:visible;"/>
			</clipPath>
			<rect x="34.2" y="66.2" class="st17" width="19.2" height="19.2"/>
		</g>
	</g>
	<g>
		<defs>
			<path id="SVGID_35_" d="M43.8,84.4c-0.5,0-0.9-0.2-1.2-0.5c-0.3-0.3-0.5-0.8-0.5-1.2c0-0.4,0.2-0.9,0.5-1.2
				c0.6-0.6,1.8-0.6,2.4,0c0.3,0.3,0.5,0.8,0.5,1.2s-0.2,0.9-0.5,1.2C44.7,84.2,44.3,84.4,43.8,84.4z"/>
		</defs>
		<clipPath id="SVGID_36_">
			<use xlink:href="#SVGID_35_"  style="overflow:visible;"/>
		</clipPath>
		<g class="st18">
			<defs>
				<rect id="SVGID_37_" x="-1050.9" y="-13398.3" width="2533.2" height="22389"/>
			</defs>
			<clipPath id="SVGID_38_">
				<use xlink:href="#SVGID_37_"  style="overflow:visible;"/>
			</clipPath>
			<rect x="34.2" y="73.1" class="st19" width="19.2" height="19.2"/>
		</g>
	</g>
	<g>
		<defs>
			<path id="SVGID_39_" d="M43.8,91.3c-0.4,0-0.9-0.2-1.2-0.5c-0.3-0.3-0.5-0.8-0.5-1.2c0-0.4,0.2-0.9,0.5-1.2
				c0.6-0.6,1.8-0.6,2.4,0c0.3,0.3,0.5,0.8,0.5,1.2c0,0.5-0.2,0.9-0.5,1.2C44.7,91.1,44.3,91.3,43.8,91.3z"/>
		</defs>
		<clipPath id="SVGID_40_">
			<use xlink:href="#SVGID_39_"  style="overflow:visible;"/>
		</clipPath>
		<g class="st20">
			<defs>
				<rect id="SVGID_41_" x="-1050.9" y="-13398.3" width="2533.2" height="22389"/>
			</defs>
			<clipPath id="SVGID_42_">
				<use xlink:href="#SVGID_41_"  style="overflow:visible;"/>
			</clipPath>
			<rect x="34.2" y="80" class="st21" width="19.2" height="19.2"/>
		</g>
	</g>
	<g>
		<defs>
			<path id="SVGID_43_" d="M43.8,98.2c-0.4,0-0.9-0.2-1.2-0.5c-0.3-0.3-0.5-0.8-0.5-1.2c0-0.5,0.2-0.9,0.5-1.2
				c0.6-0.6,1.8-0.6,2.4,0c0.3,0.3,0.5,0.8,0.5,1.2s-0.2,0.9-0.5,1.2C44.7,98,44.3,98.2,43.8,98.2z"/>
		</defs>
		<clipPath id="SVGID_44_">
			<use xlink:href="#SVGID_43_"  style="overflow:visible;"/>
		</clipPath>
		<g class="st22">
			<defs>
				<rect id="SVGID_45_" x="-1050.9" y="-13398.3" width="2533.2" height="22389"/>
			</defs>
			<clipPath id="SVGID_46_">
				<use xlink:href="#SVGID_45_"  style="overflow:visible;"/>
			</clipPath>
			<rect x="34.2" y="86.8" class="st23" width="19.2" height="19.2"/>
		</g>
	</g>
	<g>
		<defs>
			<path id="SVGID_47_" d="M77.8,56.9c-0.5,0-0.9-0.2-1.2-0.5c-0.3-0.3-0.5-0.8-0.5-1.2c0-0.5,0.2-0.9,0.5-1.2
				c0.6-0.6,1.8-0.6,2.4,0c0.3,0.3,0.5,0.8,0.5,1.2c0,0.4-0.2,0.9-0.5,1.2C78.7,56.7,78.3,56.9,77.8,56.9z"/>
		</defs>
		<clipPath id="SVGID_48_">
			<use xlink:href="#SVGID_47_"  style="overflow:visible;"/>
		</clipPath>
		<g class="st24">
			<defs>
				<rect id="SVGID_49_" x="-1050.9" y="-13398.3" width="2533.2" height="22389"/>
			</defs>
			<clipPath id="SVGID_50_">
				<use xlink:href="#SVGID_49_"  style="overflow:visible;"/>
			</clipPath>
			<rect x="68.2" y="45.6" class="st25" width="19.2" height="19.2"/>
		</g>
	</g>
	<g>
		<defs>
			<path id="SVGID_51_" d="M71,56.9c-0.4,0-0.9-0.2-1.2-0.5c-0.3-0.3-0.5-0.8-0.5-1.2c0-0.5,0.2-0.9,0.5-1.2c0.6-0.6,1.8-0.6,2.4,0
				c0.3,0.3,0.5,0.8,0.5,1.2c0,0.4-0.2,0.9-0.5,1.2C71.9,56.7,71.5,56.9,71,56.9z"/>
		</defs>
		<clipPath id="SVGID_52_">
			<use xlink:href="#SVGID_51_"  style="overflow:visible;"/>
		</clipPath>
		<g class="st26">
			<defs>
				<rect id="SVGID_53_" x="-1050.9" y="-13398.3" width="2533.2" height="22389"/>
			</defs>
			<clipPath id="SVGID_54_">
				<use xlink:href="#SVGID_53_"  style="overflow:visible;"/>
			</clipPath>
			<rect x="61.4" y="45.6" class="st27" width="19.2" height="19.2"/>
		</g>
	</g>
	<g>
		<defs>
			<path id="SVGID_55_" d="M64.2,56.9c-0.4,0-0.9-0.2-1.2-0.5c-0.3-0.3-0.5-0.8-0.5-1.2c0-0.5,0.2-0.9,0.5-1.2
				c0.6-0.6,1.8-0.6,2.4,0c0.3,0.3,0.5,0.8,0.5,1.2c0,0.4-0.2,0.9-0.5,1.2C65.1,56.7,64.7,56.9,64.2,56.9z"/>
		</defs>
		<clipPath id="SVGID_56_">
			<use xlink:href="#SVGID_55_"  style="overflow:visible;"/>
		</clipPath>
		<g class="st28">
			<defs>
				<rect id="SVGID_57_" x="-1050.9" y="-13398.3" width="2533.2" height="22389"/>
			</defs>
			<clipPath id="SVGID_58_">
				<use xlink:href="#SVGID_57_"  style="overflow:visible;"/>
			</clipPath>
			<rect x="54.6" y="45.6" class="st29" width="19.2" height="19.2"/>
		</g>
	</g>
	<g>
		<defs>
			<path id="SVGID_59_" d="M57.4,56.9c-0.4,0-0.9-0.2-1.2-0.5c-0.3-0.3-0.5-0.8-0.5-1.2c0-0.5,0.2-0.9,0.5-1.2
				c0.6-0.6,1.8-0.6,2.4,0c0.3,0.3,0.5,0.8,0.5,1.2c0,0.4-0.2,0.9-0.5,1.2C58.3,56.7,57.9,56.9,57.4,56.9z"/>
		</defs>
		<clipPath id="SVGID_60_">
			<use xlink:href="#SVGID_59_"  style="overflow:visible;"/>
		</clipPath>
		<g class="st30">
			<defs>
				<rect id="SVGID_61_" x="-1050.9" y="-13398.3" width="2533.2" height="22389"/>
			</defs>
			<clipPath id="SVGID_62_">
				<use xlink:href="#SVGID_61_"  style="overflow:visible;"/>
			</clipPath>
			<rect x="47.8" y="45.6" class="st31" width="19.2" height="19.2"/>
		</g>
	</g>
	<g>
		<defs>
			<path id="SVGID_63_" d="M50.6,56.9c-0.4,0-0.9-0.2-1.2-0.5c-0.3-0.3-0.5-0.8-0.5-1.2c0-0.5,0.2-0.9,0.5-1.2
				c0.6-0.6,1.8-0.6,2.4,0c0.3,0.3,0.5,0.8,0.5,1.2c0,0.4-0.2,0.9-0.5,1.2C51.5,56.7,51.1,56.9,50.6,56.9z"/>
		</defs>
		<clipPath id="SVGID_64_">
			<use xlink:href="#SVGID_63_"  style="overflow:visible;"/>
		</clipPath>
		<g class="st32">
			<defs>
				<rect id="SVGID_65_" x="-1050.9" y="-13398.3" width="2533.2" height="22389"/>
			</defs>
			<clipPath id="SVGID_66_">
				<use xlink:href="#SVGID_65_"  style="overflow:visible;"/>
			</clipPath>
			<rect x="41" y="45.6" class="st33" width="19.2" height="19.2"/>
		</g>
	</g>
</g>
</svg>
