<?xml version="1.0" encoding="utf-8"?>
<!-- Generator: Adobe Illustrator 21.0.0, SVG Export Plug-In . SVG Version: 6.00 Build 0)  -->
<svg version="1.1" id="Capa_1" xmlns="http://www.w3.org/2000/svg" xmlns:xlink="http://www.w3.org/1999/xlink" x="0px" y="0px"
	 viewBox="0 0 1024 1024" style="enable-background:new 0 0 1024 1024;" xml:space="preserve" height="110px">
<style type="text/css">
	.st0{fill:#0D1114;}
</style>
<g>
	<g>
		<g>
			<path class="st0" d="M1019,423.1c0,11.6-9.4,21-21,21s-21-9.4-21-21c0-11.6,9.4-21,21-21S1019,411.4,1019,423.1z M1015.1,423.1
				c0-9.5-7.7-17.1-17.1-17.1s-17.1,7.7-17.1,17.1c0,9.5,7.7,17.1,17.1,17.1S1015.1,432.5,1015.1,423.1z M1009.4,431.2
				c0.3,0,0.4,0.1,0.4,0.4v1.2c0,0.3-0.2,0.4-0.4,0.4h-9.1c-0.3,0-0.4-0.1-0.4-0.4v-1.2c0-0.3,0.2-0.4,0.4-0.4h0.2
				c0.9,0,1.4-0.5,1.4-1.1c0-0.3-0.1-0.8-0.4-1.2l-2.5-4.7l-1,0h-2.7v4.6c0,1.5,0.5,2.3,1.9,2.3h0.2c0.3,0,0.4,0.1,0.4,0.4v1.2
				c0,0.3-0.2,0.4-0.4,0.4h-9c-0.3,0-0.4-0.1-0.4-0.4v-1.2c0-0.3,0.2-0.4,0.4-0.4h0.2c1.4-0.1,1.9-0.8,1.9-2.3v-12.5
				c0-1.1-0.4-2.1-1.7-2.3l-0.4,0c-0.3,0-0.4-0.1-0.4-0.4v-1.2c0-0.3,0.2-0.4,0.4-0.4h11.3c4.6,0,7,2.8,7,6c0,2-0.8,4.1-3.3,5.3
				l3,5.6c0.7,1.3,1.4,2.3,2.8,2.3H1009.4z M996.9,421.7c3.2,0,4.9-1.2,4.9-3.8c0-2.6-1.7-3.4-4-3.4h-2.6v7.2H996.9z"/>
		</g>
	</g>
	<g>
		<path class="st0" d="M54.8,574.6c7.8,19,24.9,37,51.6,37c14.5,0,31.7-8,43.7-25.4c0.7-1.1,2.1-1.5,2.9-1.5c2.1,0,2.7,0.3,13.6,6.7
			c1.1,0.6,1.5,1.6,1.5,2.6c0,1.9-1.2,4.2-2.2,6c-12.8,24-34.1,40.1-68.9,40.1c-57,0-92.2-41.9-92.2-91.6
			c0-63.7,41.2-88.2,81.7-88.2c45.4,0,70.7,40.5,70.7,66.4c0,2-0.6,3.4-2.8,4.3L54.8,574.6z M105.9,525.3
			c0-21.8-11.8-37.7-27.6-37.7c-18.9,0-30.8,17.1-30.8,39.4c0,6.8,0.4,18.1,3.2,26.2L105.9,525.3z"/>
		<path class="st0" d="M297.6,611.3c0.7,1,1,2.1,1,3c0,1.6-0.9,2.9-2.6,4l-10.3,6.5c-12.3,7.6-31.1,15.6-48.2,15.6
			c-21.2,0-39.8-12.3-39.8-52.8v-63.7c0-18.4,0-42.7-24.9-42.7c-3.4,0-5.2-1.8-5.2-5.1v-10.3c0-3.3,1.8-5.1,5.2-5.1h24.9v-19.3
			c0-2.8,0.7-4.9,3.1-6.3c9.9-5.4,28.1-16.3,42.2-28.3c0.5-0.4,1-0.8,1.5-0.8h0.5c0.4,0,0.8,0,0.9,0.6v54.1h46
			c3.4,0,5.2,1.8,5.2,5.2v14.8c0,3.4-1.8,5.2-5.2,5.2h-45.9v101.9c0,17.8,6.2,23.3,14.3,23.3c7.9,0,17.4-5.4,24.4-9.8l0.4-0.3
			c1.1-0.7,2.1-1,3.1-1c1.6,0,2.9,0.9,4,2.6L297.6,611.3z"/>
		<path class="st0" d="M359.6,574.6c7.8,19,24.9,37,51.6,37c14.5,0,31.7-8,43.7-25.4c0.7-1.1,2.1-1.5,2.9-1.5
			c2.1,0,2.7,0.3,13.6,6.7c1.1,0.6,1.5,1.6,1.5,2.6c0,1.9-1.2,4.2-2.2,6c-12.8,24-34.1,40.1-68.9,40.1c-57,0-92.2-41.9-92.2-91.6
			c0-63.7,41.2-88.2,81.7-88.2c45.4,0,70.7,40.5,70.7,66.4c0,2-0.6,3.4-2.8,4.3L359.6,574.6z M410.6,525.3
			c0-21.8-11.8-37.7-27.6-37.7c-18.9,0-30.8,17.1-30.8,39.4c0,6.8,0.4,18.1,3.2,26.2L410.6,525.3z"/>
		<path class="st0" d="M711.7,574.6c7.8,19,24.9,37,51.6,37c14.2,0,30.9-7.6,42.9-24.2c0.3-0.4,0.5-0.8,0.8-1.1
			c0.7-1.1,2.1-1.5,2.9-1.5c2.1,0,2.7,0.3,13.6,6.7c1.1,0.6,1.5,1.6,1.5,2.6c0,1.9-1.2,4.2-2.2,6c-12.8,24-34.1,40.1-68.9,40.1
			c-57,0-92.2-41.9-92.2-91.6c0-63.7,41.2-88.2,81.7-88.2c45.4,0,70.7,40.5,70.7,66.4c0,2-0.6,3.4-2.8,4.3L711.7,574.6z
			 M762.8,525.3c0-21.8-11.8-37.7-27.6-37.7c-18.9,0-30.8,17.1-30.8,39.4c0,6.8,0.4,18.1,3.2,26.2L762.8,525.3z"/>
		<path class="st0" d="M922.9,460c34.1,0,67.1,20.3,82.2,54.3c5.5,12.3,8.1,25.1,8.1,37.7c0,34.1-19.1,66.3-51.5,80.7
			c-11.3,5-23.1,7.4-34.8,7.4c-34.1,0-67.1-20.4-82.2-54.4c-5.4-12.3-7.9-25-7.9-37.6c0-34.1,18.9-66.4,51.3-80.8
			C899.4,462.4,911.2,460,922.9,460z M877.7,526.8c0,12.7,3.8,26.9,9.6,40.1c10.9,24.4,29.2,45.8,50.4,45.8c4.5,0,9.1-1,13.8-3
			c14.9-6.6,20.7-20.3,20.7-36.2c0-12.7-3.8-26.9-9.6-40.1c-10.9-24.4-29.2-45.8-50.4-45.8c-4.5,0-9,1-13.7,3
			C883.5,497.2,877.7,510.9,877.7,526.8z"/>
		<path class="st0" d="M559,497c6.6-22.4,31-36.4,55.4-36.4c21.4,0,38.8,12,38.8,35.4c0,10.4-0.7,18.4-9,21.8l-32.1,13.3
			c-1.2,0.5-2.2,0.7-3.1,0.7c-2.1,0-3.1-1.4-3.1-3.3c0-0.9,0.2-1.9,0.7-3c2.7-6.6,3.1-12.5,3.1-17.2c0-12.5-6.8-17.8-16.2-17.8
			c-15.7,0-29.4,17.2-34.5,29.7v66.7c0,18.7,8.5,32.7,25.3,32.7h0.6c3.4,0,5.2,1.8,5.2,5.2V635c0,3.4-1.8,5.2-5.2,5.2h-99.9
			c-3.3,0-5.1-1.8-5.1-5.2v-10.3c0-3.4,1.8-5.2,5.1-5.2h0.8c16.8,0,24.9-14,24.9-32.7v-43.2c0-18.4-1.3-40.8-20.3-42.9
			c-3.4-0.4-4.1-2.1-4-4.4v-11.7c0-2.9,1.6-4,5-4.5c32.1-7.1,42.1-11.1,61.8-18.1c0.5-0.4,4-1.5,4.5-1.5l0.8,0
			c0.4,0,0.5,0.1,0.5,0.6L559,497z"/>
		<path class="st0" d="M372.6,429.5c0,0-10.8,10.2-5,14.1c5.7,3.9,20.3,1,26.6-1.9c6.3-3,19-8.1,32.8-22.3c13.6-14,10.2-26.1,3-31.2
			s-21.3-6.7-24.9-1c-2.1,3.3-5,10.6-14,23.1C385.1,418.4,374.8,426.9,372.6,429.5z"/>
	</g>
</g>
</svg>
