<?xml version="1.0" encoding="utf-8"?>
<!-- Generator: Adobe Illustrator 21.0.0, SVG Export Plug-In . SVG Version: 6.00 Build 0)  -->
<svg version="1.1" id="Layer_1" xmlns="http://www.w3.org/2000/svg" xmlns:xlink="http://www.w3.org/1999/xlink" x="0px" y="0px"
	 viewBox="0 0 193 213.5" style="enable-background:new 0 0 193 213.5;" xml:space="preserve">
<style type="text/css">
	.st0{fill:#F3F3F3;stroke:#C1C1C1;stroke-miterlimit:10;}
	.st1{fill:none;stroke:#171A1C;stroke-width:2;stroke-linecap:round;stroke-linejoin:round;stroke-miterlimit:10;}
	.st2{fill:none;stroke:#DC425F;stroke-width:2;stroke-linecap:round;stroke-linejoin:round;stroke-miterlimit:10;}
</style>
<path class="st0" d="M1.7,71.2v71.1c0,12,6.4,23.2,16.8,29.2L79.7,207c10.4,6,23.2,6,33.6,0l61.3-35.5c10.4-6,16.8-17.1,16.8-29.2
	V71.2c0-12-6.4-23.2-16.8-29.2L113.3,6.5c-10.4-6-23.2-6-33.6,0L18.4,42C8.1,48,1.7,59.2,1.7,71.2z"/>
<g id="XMLID_1054_">
	<path id="XMLID_1308_" class="st1" d="M144.1,75.6c3,5.6,5,11.7,5.7,18c1.7,15.6-3.7,29.9-13.2,40.1c-7.7,8.2-12.3,19.2-12.3,30.3
		h-48v-12.9c0-4.1-2.2-7.4-6.2-7.4h-3.6c-6,0-12.3-5-12.3-11.1v-18.5h-7.4c-2.7,0-4.4-2.8-3.3-5.3l14.4-30.7c1.8-3.9,4-7.6,6.8-10.9
		c5.7-7,13.4-12.4,21.9-15.3c13.3-4.6,28.1-2.5,40,4.8"/>
</g>
<g id="XMLID_1_">
	<path id="XMLID_92_" class="st2" d="M110.2,111l21.2-19.1c4.2-3.8,6.5-9.1,6.6-14.7l0,0c0-7.5-5.8-14-13.2-14.3
		c-7.9-0.4-14.5,6-14.5,13.9c0-7.9-6.6-14.2-14.5-13.9c-7.5,0.3-13.2,6.8-13.2,14.3l0,0c0,5.6,2.4,11,6.6,14.7L110.2,111z"/>
	<path id="XMLID_145_" class="st2" d="M89.5,69.4c0.3-0.3,0.6-0.6,1-0.8"/>
	<path id="XMLID_147_" class="st2" d="M87.6,83.8c-0.2-0.5-0.4-1-0.6-1.6c-0.2-0.5-0.3-1.1-0.4-1.6s-0.2-1.1-0.3-1.7
		c-0.1-0.6-0.1-1.1-0.1-1.7c0-0.7,0.1-1.4,0.2-2.1s0.3-1.3,0.6-1.9c0.2-0.4,0.4-0.8,0.6-1.2"/>
	<line id="XMLID_119_" class="st2" x1="110.2" y1="106.4" x2="110.2" y2="106.4"/>
	<line id="XMLID_120_" class="st2" x1="110.2" y1="102.7" x2="110.2" y2="102.7"/>
	<line id="XMLID_121_" class="st2" x1="113.9" y1="102.7" x2="113.9" y2="102.7"/>
	<line id="XMLID_122_" class="st2" x1="106.5" y1="102.7" x2="106.5" y2="102.7"/>
	<line id="XMLID_125_" class="st2" x1="110.2" y1="99" x2="110.2" y2="99"/>
	<line id="XMLID_124_" class="st2" x1="113.9" y1="99" x2="113.9" y2="99"/>
	<line id="XMLID_123_" class="st2" x1="106.5" y1="99" x2="106.5" y2="99"/>
	<line id="XMLID_128_" class="st2" x1="110.2" y1="95.3" x2="110.2" y2="95.3"/>
	<line id="XMLID_127_" class="st2" x1="113.9" y1="95.3" x2="113.9" y2="95.3"/>
	<line id="XMLID_130_" class="st2" x1="117.6" y1="99" x2="117.6" y2="99"/>
	<line id="XMLID_129_" class="st2" x1="117.6" y1="95.3" x2="117.6" y2="95.3"/>
	<line id="XMLID_134_" class="st2" x1="121.3" y1="95.3" x2="121.3" y2="95.3"/>
	<line id="XMLID_140_" class="st2" x1="113.9" y1="91.6" x2="113.9" y2="91.6"/>
	<line id="XMLID_138_" class="st2" x1="117.6" y1="91.6" x2="117.6" y2="91.6"/>
	<line id="XMLID_135_" class="st2" x1="121.3" y1="91.6" x2="121.3" y2="91.6"/>
	<line id="XMLID_142_" class="st2" x1="125" y1="91.6" x2="125" y2="91.6"/>
	<line id="XMLID_148_" class="st2" x1="117.6" y1="87.9" x2="117.6" y2="87.9"/>
	<line id="XMLID_146_" class="st2" x1="121.3" y1="87.9" x2="121.3" y2="87.9"/>
	<line id="XMLID_144_" class="st2" x1="125" y1="87.9" x2="125" y2="87.9"/>
	<line id="XMLID_153_" class="st2" x1="121.3" y1="84.2" x2="121.3" y2="84.2"/>
	<line id="XMLID_152_" class="st2" x1="125" y1="84.2" x2="125" y2="84.2"/>
	<line id="XMLID_158_" class="st2" x1="125" y1="80.5" x2="125" y2="80.5"/>
	<line id="XMLID_166_" class="st2" x1="128.7" y1="87.9" x2="128.7" y2="87.9"/>
	<line id="XMLID_165_" class="st2" x1="128.7" y1="84.2" x2="128.7" y2="84.2"/>
	<line id="XMLID_164_" class="st2" x1="128.7" y1="80.5" x2="128.7" y2="80.5"/>
	<line id="XMLID_168_" class="st2" x1="132.4" y1="84.2" x2="132.4" y2="84.2"/>
	<line id="XMLID_167_" class="st2" x1="132.4" y1="80.5" x2="132.4" y2="80.5"/>
	<line id="XMLID_5_" class="st2" x1="128.7" y1="76.8" x2="128.7" y2="76.8"/>
	<line id="XMLID_4_" class="st2" x1="132.4" y1="76.8" x2="132.4" y2="76.8"/>
	<line id="XMLID_2_" class="st2" x1="132.4" y1="73.1" x2="132.4" y2="73.1"/>
</g>
</svg>
