<?xml version="1.0" encoding="utf-8"?>
<!-- Generator: Adobe Illustrator 21.0.0, SVG Export Plug-In . SVG Version: 6.00 Build 0)  -->
<svg version="1.1" id="Layer_1" xmlns="http://www.w3.org/2000/svg" xmlns:xlink="http://www.w3.org/1999/xlink" x="0px" y="0px"
	 viewBox="0 0 193 213.5" style="enable-background:new 0 0 193 213.5;" xml:space="preserve">
<style type="text/css">
	.st0{fill:#171A1C;stroke:#C1C1C1;stroke-miterlimit:10;}
	.st1{fill:none;stroke:#999999;stroke-width:2;stroke-linecap:round;stroke-linejoin:round;stroke-miterlimit:10;}
	.st2{fill:none;stroke:#DC425F;stroke-width:2;stroke-linecap:round;stroke-linejoin:round;stroke-miterlimit:10;}
</style>
<path class="st0" d="M1.7,71.2v71.1c0,12,6.4,23.2,16.8,29.2L79.7,207c10.4,6,23.2,6,33.6,0l61.3-35.5c10.4-6,16.8-17.1,16.8-29.2
	V71.2c0-12-6.4-23.2-16.8-29.2L113.3,6.5c-10.4-6-23.2-6-33.6,0L18.4,42C8.1,48,1.7,59.2,1.7,71.2z"/>
<g id="XMLID_1054_">
	<path id="XMLID_1308_" class="st1" d="M144.1,75.6c3,5.6,5,11.7,5.7,18c1.7,15.6-3.7,29.9-13.2,40.1c-7.7,8.2-12.3,19.2-12.3,30.3
		h-48v-12.9c0-4.1-2.2-7.4-6.2-7.4h-3.6c-6,0-12.3-5-12.3-11.1v-18.5h-7.4c-2.7,0-4.4-2.8-3.3-5.3l14.4-30.7c1.8-3.9,4-7.6,6.8-10.9
		c5.7-7,13.4-12.4,21.9-15.3c13.3-4.6,28.1-2.5,40,4.8"/>
</g>
<g id="XMLID_705_">
	<line id="XMLID_732_" class="st2" x1="96.6" y1="65.8" x2="96.6" y2="65.8"/>
	<g id="XMLID_704_">
		<path id="XMLID_778_" class="st2" d="M138.8,103.9V65.9c0-2.3-1.8-4.1-4.1-4.1l-19,0l-19,0c-2.3,0-4.1,1.8-4.1,4.1v38.1
			c0,2.3,1.8,4.1,4.1,4.1l19,0l19,0C137,108,138.8,106.2,138.8,103.9z"/>
		<path id="XMLID_742_" class="st2" d="M92.6,84.9l6.3,0c0.6,0,1.1,0.6,0.9,1.2c-0.4,1.6,0.2,3.3,1.8,4.3c1.3,0.8,2.9,0.8,4.2,0
			c1.6-1,2.2-2.7,1.8-4.3c-0.1-0.6,0.3-1.2,0.9-1.2l7.2,0l6.7,0c0.7,0,1.1-0.7,0.9-1.3c-0.7-1.7-0.2-3.8,1.6-4.9
			c1.3-0.8,2.9-0.8,4.2,0c1.8,1.1,2.3,3.2,1.6,4.9c-0.3,0.6,0.2,1.3,0.9,1.3l7.2,0"/>
		<path id="XMLID_738_" class="st2" d="M115.7,61.8V68c0,0.6-0.6,1.1-1.2,0.9c-1.6-0.4-3.3,0.2-4.3,1.8c-0.8,1.3-0.8,2.9,0,4.2
			c1,1.6,2.7,2.2,4.3,1.8c0.6-0.1,1.2,0.3,1.2,0.9v7.2v7.2c0,0.6,0.6,1.1,1.2,0.9c1.6-0.4,3.3,0.2,4.3,1.8c0.8,1.3,0.8,2.9,0,4.2
			c-1,1.6-2.7,2.2-4.3,1.8c-0.6-0.1-1.2,0.3-1.2,0.9v6.3"/>
		<line id="XMLID_717_" class="st2" x1="134.8" y1="65.8" x2="134.8" y2="65.8"/>
		<line id="XMLID_722_" class="st2" x1="96.6" y1="104" x2="96.6" y2="104"/>
		<line id="XMLID_735_" class="st2" x1="134.8" y1="104" x2="134.8" y2="104"/>
	</g>
</g>
</svg>
