<?xml version="1.0" encoding="utf-8"?>
<!-- Generator: Adobe Illustrator 21.0.0, SVG Export Plug-In . SVG Version: 6.00 Build 0)  -->
<svg version="1.1" id="Layer_1" xmlns="http://www.w3.org/2000/svg" xmlns:xlink="http://www.w3.org/1999/xlink" x="0px" y="0px"
	 viewBox="0 0 193 213.5" style="enable-background:new 0 0 193 213.5;" xml:space="preserve">
<style type="text/css">
	.st0{fill:none;stroke:#C1C1C1;stroke-miterlimit:10;}
	.st1{fill:none;stroke:#DC425F;stroke-width:2;stroke-linecap:round;stroke-linejoin:round;stroke-miterlimit:10;}
	.st2{fill:none;stroke:#1D1D1D;stroke-width:2;stroke-linecap:round;stroke-linejoin:round;stroke-miterlimit:10;}
	.st3{fill:none;stroke:#171A1C;stroke-width:2;stroke-linecap:round;stroke-linejoin:round;stroke-miterlimit:10;}
</style>
<path class="st0" d="M1.7,71.2v71.1c0,12,6.4,23.2,16.8,29.2L79.7,207c10.4,6,23.2,6,33.6,0l61.3-35.5c10.4-6,16.8-17.1,16.8-29.2
	V71.2c0-12-6.4-23.2-16.8-29.2L113.3,6.5c-10.4-6-23.2-6-33.6,0L18.4,42C8.1,48,1.7,59.2,1.7,71.2z"/>
<g id="XMLID_1054_">
	<path id="XMLID_823_" class="st1" d="M125.2,65.8l6.5-6.5c0.7-0.7,1.9-0.7,2.6,0l7.8,7.8c0.7,0.7,0.7,1.9,0,2.6l-6.5,6.5"/>
	<path id="XMLID_899_" class="st1" d="M135.6,76.3l-10.5-10.5c-3.7,3.3-8.5,5.2-13.6,5.7c-4.4,0.5-8.7,2.8-11.6,6.8
		c-4.1,5.6-4.2,13.3-0.3,19c6.1,8.9,18.3,9.7,25.6,2.5c3-3,4.6-6.8,4.8-10.7C130.3,84.3,132.4,79.8,135.6,76.3z"/>
	<line id="XMLID_894_" class="st1" x1="130.4" y1="71" x2="121.2" y2="80.1"/>
	<polyline id="XMLID_895_" class="st1" points="112.1,81.5 121.2,80.1 119.9,89.3 	"/>
	<line id="XMLID_896_" class="st2" x1="93.8" y1="107.6" x2="96.4" y2="105"/>
	<line id="XMLID_897_" class="st1" x1="93.8" y1="107.6" x2="96.4" y2="105"/>
	<line id="XMLID_929_" class="st1" x1="93.8" y1="68.4" x2="96.4" y2="71"/>
	<line id="XMLID_927_" class="st1" x1="130.4" y1="105" x2="133" y2="107.6"/>
	<g id="XMLID_942_">
		<line id="XMLID_944_" class="st1" x1="85.7" y1="88" x2="89.4" y2="88"/>
		<line id="XMLID_943_" class="st1" x1="137.4" y1="88" x2="141.1" y2="88"/>
	</g>
	<line id="XMLID_941_" class="st1" x1="113.4" y1="60.3" x2="113.4" y2="64"/>
	<line id="XMLID_939_" class="st1" x1="113.4" y1="112" x2="113.4" y2="115.7"/>
	<line id="XMLID_986_" class="st1" x1="87.8" y1="98.6" x2="91.2" y2="97.2"/>
	<line id="XMLID_983_" class="st1" x1="102.8" y1="62.4" x2="104.2" y2="65.8"/>
	<line id="XMLID_981_" class="st1" x1="122.6" y1="110.2" x2="124" y2="113.6"/>
	<g id="XMLID_950_">
		<line id="XMLID_952_" class="st1" x1="87.8" y1="77.4" x2="91.2" y2="78.8"/>
		<line id="XMLID_951_" class="st1" x1="135.6" y1="97.2" x2="139" y2="98.6"/>
	</g>
	<line id="XMLID_948_" class="st1" x1="104.2" y1="110.2" x2="102.8" y2="113.6"/>
	<path id="XMLID_1308_" class="st3" d="M144.1,75.6c3,5.6,5,11.7,5.7,18c1.7,15.6-3.7,29.9-13.2,40.1c-7.7,8.2-12.3,19.2-12.3,30.3
		h-48v-12.9c0-4.1-2.2-7.4-6.2-7.4h-3.6c-6,0-12.3-5-12.3-11.1v-18.5h-7.4c-2.7,0-4.4-2.8-3.3-5.3l14.4-30.7c1.8-3.9,4-7.6,6.8-10.9
		c5.7-7,13.4-12.4,21.9-15.3c13.3-4.6,28.1-2.5,40,4.8"/>
</g>
</svg>
