<?xml version="1.0" encoding="utf-8"?>
<!-- Generator: Adobe Illustrator 21.0.0, SVG Export Plug-In . SVG Version: 6.00 Build 0)  -->
<svg version="1.1" id="Layer_1" xmlns="http://www.w3.org/2000/svg" xmlns:xlink="http://www.w3.org/1999/xlink" x="0px" y="0px"
	 viewBox="0 0 193 213.5" style="enable-background:new 0 0 193 213.5;" xml:space="preserve">
<style type="text/css">
	.st0{fill:#171A1C;stroke:#C1C1C1;stroke-miterlimit:10;}
	.st1{fill:none;stroke:#DC425F;stroke-width:2;stroke-linecap:round;stroke-linejoin:round;stroke-miterlimit:10;}
	.st2{fill:none;stroke:#999999;stroke-width:2;stroke-linecap:round;stroke-linejoin:round;stroke-miterlimit:10;}
</style>
<path class="st0" d="M1.7,71.2v71.1c0,12,6.4,23.2,16.8,29.2L79.7,207c10.4,6,23.2,6,33.6,0l61.3-35.5c10.4-6,16.8-17.1,16.8-29.2
	V71.2c0-12-6.4-23.2-16.8-29.2L113.3,6.5c-10.4-6-23.2-6-33.6,0L18.4,42C8.1,48,1.7,59.2,1.7,71.2z"/>
<g id="XMLID_134_">
	<ellipse id="XMLID_167_" class="st1" cx="102" cy="97.5" rx="33.2" ry="11.1"/>
	<path id="XMLID_166_" class="st1" d="M111.6,103.5c11.1-17,15.7-33.5,10.5-36.8c-5.3-3.3-18.5,7.8-29.5,24.8
		c-11.1,17-15.7,33.5-10.5,36.8C87.3,131.7,100.5,120.5,111.6,103.5z"/>
	<path id="XMLID_165_" class="st1" d="M92.5,103.5C81.5,86.5,76.8,70,82,66.7c5.3-3.3,18.5,7.8,29.5,24.8
		c11.1,17,15.7,33.5,10.5,36.8C116.8,131.7,103.6,120.5,92.5,103.5z"/>
	<circle id="XMLID_164_" class="st1" cx="102" cy="97.5" r="3.7"/>
	<path id="XMLID_924_" class="st2" d="M149.8,93.6c1.7,15.6-3.7,29.9-13.2,40.1c-7.7,8.2-12.3,19.2-12.3,30.3h-48v-12.9
		c0-4.1-2.2-7.4-6.2-7.4h-3.6c-6,0-12.3-5-12.3-11.1v-18.5h-7.4c-2.7,0-4.4-2.8-3.3-5.3l14.5-30.7c1.8-3.9,4-7.6,6.8-10.9
		c5.7-7,13.4-12.4,21.9-15.3c14.2-4.9,30.1-2.2,42.4,6.4C140.4,66.4,148.2,79.5,149.8,93.6z"/>
</g>
</svg>
