<?xml version="1.0" encoding="utf-8"?>
<!-- Generator: Adobe Illustrator 21.0.0, SVG Export Plug-In . SVG Version: 6.00 Build 0)  -->
<svg version="1.1" id="Layer_1" xmlns="http://www.w3.org/2000/svg" xmlns:xlink="http://www.w3.org/1999/xlink" x="0px" y="0px"
	 viewBox="0 0 193 213.5" style="enable-background:new 0 0 193 213.5;" xml:space="preserve">
<style type="text/css">
	.st0{fill:#171A1C;stroke:#C1C1C1;stroke-miterlimit:10;}
	.st1{fill:none;stroke:#DC425F;stroke-width:2;stroke-linecap:round;stroke-linejoin:round;stroke-miterlimit:10;}
	.st2{fill:none;stroke:#999999;stroke-width:2;stroke-linecap:round;stroke-linejoin:round;stroke-miterlimit:10;}
</style>
<path class="st0" d="M1.7,71.2v71.1c0,12,6.4,23.2,16.8,29.2L79.7,207c10.4,6,23.2,6,33.6,0l61.3-35.5c10.4-6,16.8-17.1,16.8-29.2
	V71.2c0-12-6.4-23.2-16.8-29.2L113.3,6.5c-10.4-6-23.2-6-33.6,0L18.4,42C8.1,48,1.7,59.2,1.7,71.2z"/>
<g id="XMLID_2_">
	<path id="XMLID_10_" class="st1" d="M131.6,101.2V90.1h-6.2c-0.6-2.5-1.6-4.9-2.9-7l4.4-4.4l-7.8-7.8l-4.4,4.4
		c-2.1-1.3-4.5-2.3-7-2.9v-6.2H96.5v6.2c-2.5,0.6-4.9,1.6-7,2.9l-4.4-4.4l-7.8,7.8l4.4,4.4c-1.3,2.1-2.3,4.5-2.9,7h-6.2v11.1h6.2
		c0.6,2.5,1.6,4.9,2.9,7l-4.4,4.4l7.8,7.8l4.4-4.4c2.1,1.3,4.5,2.3,7,2.9v6.2h11.1V119c2.5-0.6,4.9-1.6,7-2.9l4.4,4.4l7.8-7.8
		l-4.4-4.4c1.3-2.1,2.3-4.5,2.9-7H131.6z"/>
	<path id="XMLID_3_" class="st1" d="M102,110.5c-8.1,0-14.8-6.6-14.8-14.8s6.6-14.8,14.8-14.8c8.1,0,14.8,6.6,14.8,14.8
		S110.2,110.5,102,110.5z"/>
	<path id="XMLID_1199_" class="st2" d="M149.8,93.6c1.7,15.6-3.7,29.9-13.2,40.1c-7.7,8.2-12.3,19.2-12.3,30.3h-48v-12.9
		c0-4.1-2.2-7.4-6.2-7.4h-3.6c-6,0-12.3-5-12.3-11.1v-18.5h-7.4c-2.7,0-4.4-2.8-3.3-5.3l14.5-30.7c1.8-3.9,4-7.6,6.8-10.9
		c5.7-7,13.4-12.4,21.9-15.3c14.2-4.9,30.1-2.2,42.4,6.4C140.4,66.4,148.2,79.5,149.8,93.6z"/>
</g>
</svg>
