<?xml version="1.0" standalone="no"?>
<!DOCTYPE svg PUBLIC "-//W3C//DTD SVG 20010904//EN"
 "http://www.w3.org/TR/2001/REC-SVG-20010904/DTD/svg10.dtd">
<svg version="1.0" xmlns="http://www.w3.org/2000/svg"
 width="1958.000000pt" height="1958.000000pt" viewBox="0 0 1958.000000 1958.000000"
 preserveAspectRatio="xMidYMid meet">
<metadata>
Created by potrace 1.11, written by Peter Selinger 2001-2013
</metadata>
<g transform="translate(0.000000,1958.000000) scale(0.100000,-0.100000)"
fill="#000000" stroke="none">
<path d="M9030 19559 c-58 -4 -132 -10 -165 -14 -33 -3 -82 -8 -110 -11 -80
-8 -114 -12 -205 -24 -47 -6 -103 -13 -125 -16 -478 -59 -1186 -225 -1725
-404 -291 -96 -708 -257 -905 -349 -33 -16 -107 -50 -165 -76 -134 -61 -416
-206 -590 -303 -600 -334 -1200 -757 -1715 -1211 -187 -164 -224 -199 -485
-461 -467 -468 -839 -922 -1216 -1487 -185 -277 -280 -436 -485 -818 -212
-396 -437 -912 -590 -1355 -233 -674 -352 -1173 -464 -1946 -21 -146 -49 -413
-60 -580 -5 -66 -11 -104 -19 -104 -7 0 -7 -3 -1 -8 13 -9 19 -46 6 -38 -6 4
-10 -176 -9 -530 0 -324 3 -532 9 -523 6 10 8 3 7 -21 -2 -34 9 -208 17 -280
2 -19 7 -64 10 -100 49 -523 129 -997 250 -1480 333 -1334 945 -2576 1809
-3675 39 -49 81 -101 92 -115 12 -14 57 -68 100 -120 43 -52 95 -113 115 -135
20 -22 78 -87 129 -145 112 -126 547 -562 679 -680 52 -47 102 -92 111 -100 8
-8 83 -71 165 -140 377 -315 666 -527 1090 -798 637 -407 1415 -772 2175
-1020 429 -140 1037 -289 1415 -347 175 -27 290 -44 335 -50 25 -3 61 -7 80
-10 34 -4 79 -9 188 -20 119 -12 151 -14 232 -20 47 -4 101 -8 120 -10 262
-23 994 -24 1320 0 127 9 237 18 250 20 8 2 51 6 95 10 44 3 94 8 110 10 17 3
86 11 155 20 154 19 454 68 615 100 66 13 131 26 145 29 159 28 600 144 867
227 730 227 1346 499 2060 910 329 189 795 508 1107 759 45 36 97 77 116 92
19 15 47 37 61 50 15 13 48 41 75 63 324 268 765 703 1076 1060 432 497 885
1146 1178 1690 23 44 46 85 51 90 19 25 255 508 324 665 323 728 542 1443 689
2245 13 68 75 484 81 535 3 30 8 73 12 95 3 22 7 53 8 70 9 111 18 212 20 225
2 9 6 74 10 145 3 72 9 155 12 185 9 89 13 851 4 898 -5 23 -4 42 0 42 5 0 9
5 9 11 0 5 -4 8 -9 5 -4 -3 -9 20 -10 52 -2 86 -34 480 -45 562 -3 19 -8 60
-11 90 -33 305 -126 807 -219 1176 -320 1276 -857 2411 -1639 3464 -167 225
-399 511 -535 660 -12 14 -62 69 -110 122 -104 116 -508 518 -642 640 -279
253 -558 477 -867 698 -368 262 -621 422 -1018 642 -164 92 -518 259 -615 292
-150 50 -247 64 -445 64 -145 0 -183 -3 -260 -23 -224 -57 -407 -152 -613
-319 -137 -110 -527 -430 -532 -436 -3 -3 -36 -30 -75 -60 -38 -30 -72 -57
-75 -60 -24 -28 -688 -539 -950 -731 -694 -509 -1009 -691 -1466 -847 -259
-89 -464 -126 -699 -127 -159 0 -188 3 -250 22 -181 58 -248 136 -240 281 10
185 167 409 544 777 740 722 868 866 1148 1281 171 256 225 391 226 569 0 82
-3 96 -35 165 -77 165 -256 267 -549 311 -90 13 -415 18 -559 8z m1300 -4368
c496 -67 882 -179 1275 -371 258 -125 498 -267 675 -399 70 -52 219 -169 230
-181 3 -3 39 -34 80 -70 343 -297 711 -750 937 -1154 328 -589 498 -1135 529
-1701 9 -168 -4 -224 -65 -284 -47 -47 -102 -74 -576 -282 -77 -33 -162 -71
-190 -84 -77 -35 -688 -302 -1595 -697 -454 -197 -838 -365 -855 -373 -16 -7
-156 -68 -310 -135 -154 -67 -298 -130 -320 -140 -22 -10 -438 -192 -925 -405
-1122 -490 -1313 -575 -1325 -586 -12 -12 4 -56 77 -209 51 -109 143 -279 210
-390 83 -136 282 -407 392 -530 155 -175 399 -396 581 -527 382 -275 916 -482
1400 -543 271 -34 617 -32 841 6 701 117 1378 505 1909 1095 55 61 161 190
283 345 88 112 119 133 203 141 105 10 219 -40 619 -273 278 -161 304 -186
301 -294 -2 -110 -80 -287 -251 -570 -243 -405 -445 -667 -739 -960 -320 -319
-627 -545 -1006 -740 -435 -223 -987 -391 -1500 -454 -22 -3 -76 -10 -120 -15
-146 -19 -247 -23 -635 -25 -360 -2 -566 3 -685 19 -452 58 -711 105 -995 181
-419 112 -871 296 -1214 493 -49 28 -90 51 -92 51 -8 0 -258 160 -349 224
-523 363 -984 837 -1340 1376 -312 474 -567 1042 -713 1590 -55 203 -125 549
-146 715 -48 381 -51 428 -51 935 0 447 4 530 30 760 22 185 25 209 35 275 5
33 12 80 15 105 33 234 142 690 226 940 109 327 247 642 395 902 117 205 312
484 453 648 31 36 70 81 86 100 17 19 89 93 160 165 111 111 177 172 325 299
115 99 380 283 555 386 104 61 402 210 520 259 512 215 1132 361 1680 397 55
4 102 8 104 10 2 2 162 2 355 0 291 -3 379 -7 516 -25z"/>
<path d="M9137 13574 c-1 -1 -31 -4 -67 -8 -214 -20 -522 -136 -720 -272 -363
-246 -628 -637 -789 -1159 -30 -97 -74 -288 -85 -370 -3 -22 -10 -72 -16 -110
-29 -211 -32 -830 -6 -1050 2 -16 7 -70 11 -120 19 -256 74 -570 136 -778 18
-62 22 -67 42 -61 20 5 2170 1083 2972 1489 l330 168 -1 136 c-4 506 -156
1030 -413 1417 -117 177 -214 283 -396 433 -45 37 -176 115 -260 156 -177 85
-323 120 -520 125 -55 1 -126 3 -158 4 -32 1 -59 1 -60 0z"/>
</g>
</svg>
