<?xml version="1.0" standalone="no"?>
<!DOCTYPE svg PUBLIC "-//W3C//DTD SVG 20010904//EN"
 "http://www.w3.org/TR/2001/REC-SVG-20010904/DTD/svg10.dtd">
<svg version="1.0" xmlns="http://www.w3.org/2000/svg"
 width="16.000000pt" height="16.000000pt" viewBox="0 0 16.000000 16.000000"
 preserveAspectRatio="xMidYMid meet">
<metadata>
Created by potrace 1.11, written by Peter Selinger 2001-2013
</metadata>
<g transform="translate(0.000000,16.000000) scale(0.000883,-0.000883)"
fill="#000000" stroke="none">
<path d="M8817 18104 c-1 -1 -77 -4 -169 -8 -92 -3 -173 -8 -180 -10 -7 -3
-49 -7 -93 -10 -74 -4 -337 -32 -395 -41 -14 -2 -47 -7 -75 -10 -229 -30 -657
-111 -922 -175 -444 -107 -1074 -318 -1448 -485 -296 -131 -612 -285 -785
-381 -620 -343 -1176 -737 -1713 -1212 -199 -176 -615 -595 -788 -793 -772
-885 -1356 -1879 -1742 -2969 -106 -301 -223 -700 -278 -950 -122 -555 -186
-1000 -216 -1500 -10 -165 -10 -924 0 -1070 13 -192 26 -340 43 -490 4 -43 7
-62 19 -155 44 -344 117 -729 205 -1070 341 -1330 988 -2567 1895 -3625 324
-378 782 -826 1120 -1095 28 -22 52 -42 55 -46 10 -11 198 -157 290 -225 254
-189 475 -337 749 -502 236 -142 257 -153 561 -306 395 -197 618 -295 965
-423 560 -206 1087 -342 1735 -448 64 -11 413 -55 480 -61 41 -3 84 -8 95 -10
11 -2 65 -6 120 -10 55 -3 127 -7 160 -9 85 -5 975 -5 1060 0 186 12 382 30
590 56 118 14 141 17 310 44 161 26 306 52 430 79 39 8 82 17 95 20 14 2 66
14 115 26 50 12 97 23 105 25 68 16 318 86 465 130 834 252 1658 643 2394
1134 179 120 386 268 521 373 41 33 91 71 110 86 368 287 871 770 1185 1137
33 39 63 72 66 75 7 6 182 220 230 280 812 1027 1403 2255 1694 3520 15 63 29
124 31 135 67 337 112 606 138 830 10 84 26 243 31 315 3 41 8 95 10 120 24
269 24 1011 0 1250 -2 19 -6 73 -10 120 -9 114 -14 168 -19 210 -3 19 -8 62
-11 95 -12 119 -57 414 -91 595 -132 701 -329 1337 -609 1970 -70 158 -295
619 -314 645 -4 5 -30 51 -56 100 -205 385 -591 956 -920 1360 -228 281 -530
598 -780 820 -55 49 -102 92 -105 95 -3 3 -34 30 -70 60 -36 30 -67 57 -70 60
-9 9 -164 135 -191 156 -15 10 -73 55 -130 100 -393 305 -859 586 -1259 757
-532 226 -1084 305 -1485 211 -111 -26 -308 -93 -346 -119 -21 -14 -41 -25
-43 -25 -6 0 -450 -262 -971 -574 -230 -138 -435 -260 -455 -271 -19 -11 -197
-118 -395 -236 -992 -595 -1130 -674 -1221 -695 -136 -32 -266 -3 -344 76
-120 122 -173 324 -125 474 37 117 73 158 654 754 152 156 309 318 350 360 40
43 139 145 220 227 230 238 563 584 622 649 132 143 159 237 92 316 -68 82
-292 144 -558 156 -125 5 -623 12 -628 8z m783 -4318 c25 -3 79 -7 120 -11 89
-7 147 -15 355 -50 172 -30 429 -96 636 -165 554 -186 1027 -456 1509 -865 98
-83 379 -376 472 -493 515 -645 799 -1410 800 -2153 0 -169 -14 -256 -73 -457
-116 -390 -330 -661 -633 -802 -87 -41 -236 -85 -326 -96 -99 -12 -240 -13
-2843 -13 l-2579 -1 6 -122 c7 -136 32 -400 46 -493 5 -33 12 -78 15 -100 19
-141 82 -393 141 -574 74 -224 206 -512 308 -671 151 -235 243 -350 430 -535
301 -300 582 -472 991 -607 159 -52 318 -82 545 -103 161 -15 551 -6 685 16
727 118 1335 489 1940 1184 33 38 71 82 85 97 l25 29 398 -397 c218 -219 397
-400 397 -402 0 -9 -111 -154 -189 -247 -482 -578 -1079 -984 -1781 -1213
-254 -83 -588 -156 -855 -187 -27 -3 -61 -8 -75 -10 -27 -5 -116 -12 -280 -24
-104 -8 -643 -6 -710 2 -19 3 -73 8 -120 11 -547 44 -1166 219 -1680 475 -508
254 -895 542 -1300 967 -394 415 -731 958 -940 1519 -161 431 -284 996 -301
1385 -7 157 -4 794 4 880 54 584 185 1118 388 1588 219 505 538 973 933 1367
348 348 695 595 1165 829 478 239 1052 396 1611 442 47 3 87 8 90 11 5 5 524
-5 590 -11z"/>
<path d="M8945 12738 c-365 -32 -743 -192 -1015 -430 -398 -348 -660 -862
-794 -1553 -14 -71 -28 -152 -31 -180 -3 -27 -8 -61 -10 -75 -18 -107 -39
-369 -51 -632 l-6 -138 2087 0 2088 0 -7 199 c-4 109 -9 210 -11 223 -2 12 -6
68 -10 123 -26 417 -135 919 -274 1263 -38 96 -173 357 -191 372 -4 3 -9 12
-12 21 -16 41 -173 235 -268 329 -165 164 -358 289 -566 370 -96 37 -289 85
-404 100 -104 14 -402 18 -525 8z"/>
</g>
</svg>
