<?xml version="1.0" standalone="no"?>
<!DOCTYPE svg PUBLIC "-//W3C//DTD SVG 20010904//EN"
 "http://www.w3.org/TR/2001/REC-SVG-20010904/DTD/svg10.dtd">
<svg version="1.0" xmlns="http://www.w3.org/2000/svg"
 width="16.000000pt" height="16.000000pt" viewBox="0 0 16.000000 16.000000"
 preserveAspectRatio="xMidYMid meet">
<metadata>
Created by potrace 1.11, written by Peter Selinger 2001-2013
</metadata>
<g transform="translate(0.000000,16.000000) scale(0.010526,-0.010526)"
fill="#000000" stroke="none">
<path d="M604 1504 c-180 -38 -355 -152 -458 -298 -64 -89 -95 -157 -122 -264
-42 -165 -21 -369 52 -515 100 -200 279 -345 494 -403 97 -26 265 -27 365 -3
285 70 510 300 570 585 28 132 11 308 -42 441 -80 199 -281 385 -418 385 -41
0 -64 -11 -189 -87 -139 -84 -167 -93 -180 -59 -6 14 21 49 111 144 57 59 63
75 34 83 -35 9 -155 4 -217 -9z m285 -365 c131 -43 228 -161 232 -279 2 -61 0
-71 -30 -101 l-29 -29 -236 0 -236 0 0 -23 c0 -40 27 -117 55 -158 32 -44 112
-89 163 -89 65 0 122 22 171 66 l48 43 32 -33 32 -33 -33 -33 c-78 -77 -168
-111 -280 -106 -138 7 -232 57 -308 164 -114 159 -93 396 47 530 42 40 121 81
177 91 51 10 149 5 195 -10z"/>
<path d="M745 1072 c-89 -18 -136 -83 -152 -209 l-5 -43 175 0 c202 0 192 -5
170 95 -14 62 -43 114 -74 134 -24 15 -89 28 -114 23z"/>
</g>
</svg>
